<?xml version="1.0" encoding="utf-8"?>
<!-- Generator: Adobe Illustrator 24.0.2, SVG Export Plug-In . SVG Version: 6.00 Build 0)  -->
<svg version="1.1" id="Capa_1" xmlns="http://www.w3.org/2000/svg" xmlns:xlink="http://www.w3.org/1999/xlink" x="0px" y="0px"
	 viewBox="0 0 100 100" style="enable-background:new 0 0 100 100;" xml:space="preserve">
<g>
	<path d="M56.5,58c3.5,0.5,6.8,1.1,10,1.3c4.7,0.4,4.6-4.4,1.6-5.8c-2.1-1.4-4.5-2.3-6.7-3.5c-4.1-2.2-5.7-5.2-5.1-9.5
		c0.6-4.3,3.8-5.9,7.5-6.7c4.4-0.9,9.3-0.1,13.4,2.3c-0.6,1.5-1.2,3-1.8,4.6c-2.8-0.6-5.7-1.7-7.7-1.8c-3-0.7-6.7,3.3-1.6,5.5
		c2.1,1.4,4.5,2.3,6.7,3.5c4.4,2.4,5.7,5.3,4.8,9.9c-0.7,3.7-3.6,6.3-7.9,6.8c-2.5,0.3-5.1,0.2-7.6,0.1C56.2,64.4,56,64.1,56.5,58z"
		/>
	<path d="M0.5,51.6c-0.6-3.1-0.7-5.2,3.2-6.1c1.5-0.4,2.9-3,3.6-4.9c0.6-1.7,0.1-3.7,0.1-5.6c0-8.8,2.2-10.8,11.3-10
		c0,1.5,0,3,0,4.9c-4.1,0.1-5,2.9-4.7,6.6c0.1,0.9-0.1,1.9,0,2.8c0.4,4.6-0.8,8.3-5.9,9.3c2,1.8,4.4,3,5.3,5c0.9,2,0.7,4.7,0.6,7.1
		c-0.2,3.8,0.2,7,4.9,7.6c0,1.7,0,3.1,0,4.6c-7.9,1.8-11.5-1-11.5-8.8c0-0.9,0-1.9,0-2.8C7.4,53.9,7.4,53.9,0.5,51.6z"/>
	<path d="M100,46.3c0,1.7,0,3.3,0,5.5c-7.4,0-7.3,5.3-7,10.6c0,0.5,0,1.1,0,1.6c0,7.9-2.4,10-10.8,9.1c-0.5-2.5-1.2-4.7,2.3-6
		c1-0.4,1.7-2.3,2-3.6c0.4-1.4,0.2-2.9,0.1-4.4c-0.2-4.6-0.3-9.1,6.4-9.7c-6.3-4.3-6.3-4.3-6.3-12c0-3.2,0.5-6.6-4-7.7
		c-0.5-0.1-1-2.4-0.7-3.5c0.2-0.7,1.6-1.6,2.5-1.6c6.1-0.3,8.5,2,8.5,8.1c0,1.6,0,3.2,0,4.8C93,44,93.6,44.8,100,46.3z"/>
	<path d="M34.1,72.4c5.8-0.5,6.5-1.2,6.6-7.5c0.1-9,0.1-17.9,0-26.9c0-3,1-3.9,4-3.9c2.9,0,3.7,1.2,3.6,3.8
		c-0.1,10.4,0,20.9-0.2,31.3c-0.1,5.7-3.1,8.6-8.7,8.9C34.3,78.6,33.6,77.8,34.1,72.4z"/>
	<path d="M27.1,65.1c-2.6-0.5-3.9-1.8-3.7-4.4c0.2-3.2,2.1-4,4.8-3.9c2.9,0.1,4.5,2.6,3.9,5.1C31.9,63.1,30.1,65.7,27.1,65.1z"/>
	<path d="M43.7,29.8c-1.9-0.3-3.2-2-3.1-3.9c0.1-2.7,2-3.7,4.4-3.6s4.3,2.1,3.7,4.7C48.4,28.1,47.8,30.5,43.7,29.8z"/>
</g>
</svg>
