<?xml version="1.0" encoding="utf-8"?>
<!-- Generator: Adobe Illustrator 24.0.2, SVG Export Plug-In . SVG Version: 6.00 Build 0)  -->
<svg version="1.1" id="Capa_1" xmlns="http://www.w3.org/2000/svg" xmlns:xlink="http://www.w3.org/1999/xlink" x="0px" y="0px"
	 viewBox="0 0 100 100" style="enable-background:new 0 0 100 100;" xml:space="preserve">
<style type="text/css">
	.st0{fill:#FADE00;}
</style>
<path class="st0" d="M99.1,0C66.4,0,33.6,0,0.9,0C0.1,0,0,0.1,0,0.9C0,17.2,0,33.6,0,50c0,16.4,0,32.8,0,49.1c0,0.7,0.1,0.9,0.9,0.9
	c32.8,0,65.5,0,98.3,0c0.7,0,0.9-0.1,0.9-0.9c0-32.8,0-65.5,0-98.3C100,0.1,99.9,0,99.1,0z M54.4,63.4c0,4.7,0,9.4,0,14.2
	c0,1.8-0.1,3.6-0.6,5.4c-1.3,4.8-4.4,7.8-9.3,8.8c-5.3,1-10.3,0.5-14.6-3.2c-1.4-1.2-2.5-2.7-3.4-4.3c-0.3-0.5-0.2-0.7,0.3-1
	c2.2-1.3,4.4-2.6,6.6-4c0.4-0.2,0.6-0.2,0.8,0.2c0.4,0.7,0.8,1.3,1.2,1.9c1.4,2,3.4,2.7,5.8,2.3c2.2-0.4,3.4-1.8,3.6-4.3
	c0.1-0.8,0.1-1.5,0.1-2.3c0-10,0-20.1,0-30.1c0-0.9,0.3-1.2,1.2-1.1c2.4,0.1,4.8,0.1,7.2,0c0.9,0,1.1,0.2,1.1,1.1c0,2.7,0,5.5,0,8.2
	S54.4,60.7,54.4,63.4z M89.1,87.6c-2.8,2.9-6.4,4.1-10.3,4.5c-0.8,0.1-1.5,0-2.3,0c-5.4,0-10.2-1.5-14.1-5.5c-1-1-1.8-2.2-2.5-3.4
	c-0.3-0.5-0.2-0.7,0.3-0.9c2.1-1.2,4.2-2.4,6.3-3.7c0.6-0.4,0.9-0.3,1.3,0.3c1.6,2.5,3.7,4.3,6.7,4.8c1.9,0.3,3.7,0.3,5.5-0.5
	c1.6-0.7,2.7-1.8,2.8-3.5c0.2-1.8-0.5-3.2-2-4.2c-2.1-1.5-4.6-2.3-6.9-3.4c-2.9-1.3-5.8-2.6-8-5c-3.6-3.8-4.4-8.4-2.9-13.3
	c1.5-4.8,5.2-7.3,10-8.1c2.4-0.4,4.8-0.3,7.2,0.2c4,0.8,6.8,3.2,8.9,6.5c0.3,0.5,0.2,0.7-0.3,1c-2,1.2-3.9,2.5-5.9,3.8
	c-0.6,0.4-0.9,0.4-1.4-0.3c-1.7-2.7-4-3.7-6.8-3.1c-1.5,0.3-2.6,1.2-3,2.7c-0.4,1.6-0.2,3,1,4.2c1.3,1.3,3,2,4.7,2.7
	c3.3,1.4,6.6,2.8,9.6,5C93.7,73.1,93.4,83.1,89.1,87.6z"/>
</svg>
