<?xml version="1.0" encoding="utf-8"?>
<!-- Generator: Adobe Illustrator 24.0.2, SVG Export Plug-In . SVG Version: 6.00 Build 0)  -->
<svg version="1.1" id="Capa_1" xmlns="http://www.w3.org/2000/svg" xmlns:xlink="http://www.w3.org/1999/xlink" x="0px" y="0px"
	 viewBox="0 0 100 100" style="enable-background:new 0 0 100 100;" xml:space="preserve">
<g>
	<path d="M51,100c-1.3,0-2.7-0.3-3.8-1L35,91.8c-1.8-1-0.9-1.4-0.3-1.6c2.4-0.8,2.9-1,5.5-2.5c0.3-0.2,0.6-0.1,0.9,0.1l9.4,5.6
		c0.3,0.2,0.8,0.2,1.1,0l36.6-21.2c0.3-0.2,0.6-0.6,0.6-1V28.8c0-0.4-0.2-0.8-0.6-1L51.5,6.7c-0.3-0.2-0.8-0.2-1.1,0L13.8,27.8
		c-0.4,0.2-0.6,0.6-0.6,1v42.3c0,0.4,0.2,0.8,0.6,1l10,5.8c5.4,2.7,8.8-0.5,8.8-3.7V32.4c0-0.6,0.5-1.1,1.1-1.1h4.6
		c0.6,0,1.1,0.5,1.1,1.1v41.8c0,7.3-4,11.4-10.9,11.4c-2.1,0-3.8,0-8.4-2.3l-9.6-5.5c-2.4-1.4-3.8-3.9-3.8-6.7V28.8
		c0-2.7,1.5-5.3,3.8-6.7L47.1,1c2.3-1.3,5.4-1.3,7.7,0l36.6,21.2c2.4,1.4,3.8,3.9,3.8,6.7v42.3c0,2.7-1.5,5.3-3.8,6.7L54.8,99
		C53.7,99.7,52.3,100,51,100z"/>
	<path d="M62.3,70.9c-16,0-19.4-7.4-19.4-13.5c0-0.6,0.5-1.1,1.1-1.1h4.7c0.5,0,1,0.4,1.1,0.9c0.7,4.8,2.8,7.3,12.5,7.3
		c7.7,0,11-1.7,11-5.8c0-2.4-0.9-4.1-12.9-5.3c-10-1-16.2-3.2-16.2-11.2c0-7.4,6.2-11.8,16.7-11.8c11.7,0,17.5,4.1,18.3,12.8
		c0,0.3-0.1,0.6-0.3,0.8c-0.2,0.2-0.5,0.3-0.8,0.3h-4.8c-0.5,0-0.9-0.3-1-0.8c-1.1-5.1-3.9-6.7-11.4-6.7c-8.4,0-9.4,2.9-9.4,5.1
		c0,2.7,1.2,3.4,12.5,4.9c11.3,1.5,16.6,3.6,16.6,11.5C80.6,66.3,73.9,70.9,62.3,70.9z"/>
</g>
</svg>
