<?xml version="1.0" encoding="utf-8"?>
<!-- Generator: Adobe Illustrator 24.0.2, SVG Export Plug-In . SVG Version: 6.00 Build 0)  -->
<svg version="1.1" id="Capa_1" xmlns="http://www.w3.org/2000/svg" xmlns:xlink="http://www.w3.org/1999/xlink" x="0px" y="0px"
	 viewBox="0 0 100 100" style="enable-background:new 0 0 100 100;" xml:space="preserve">
<path d="M0,50v50h100V0H0V50z M80.6,45.9c2.5,0.6,4.4,1.8,6.2,3.8c1,1,2.1,2.8,2.5,3.1c0,0-4.4,3.1-6.9,4.7c0,0-0.6-0.3-1-1
	c-1.2-1.8-2.5-2.8-4.6-2.8c-3.1-0.3-5,1.3-5,4.1c0,0.6,0,1.3,0.3,1.8c0.6,1.3,1.8,2.1,5.9,3.8c7.2,3.1,10.3,5,12.2,8.2
	c2.1,3.1,2.5,8.5,1.3,12.2c-1.6,4.1-5.6,6.9-10.9,7.8C79,92,75,92,73.1,91.6c-4.1-0.6-7.8-2.8-10.3-5.3c-1-1-2.8-3.8-2.5-3.8
	c0,0,0.3-0.3,1-0.6c0.6-0.3,2.1-1.3,3.8-2.1l2.8-1.6l0.6,1c1,1.3,2.8,3.1,3.8,3.8c3.1,1.6,7.5,1.6,9.7-0.6c1-0.6,1.3-1.8,1.3-3.1
	c0-1.3,0-1.6-0.6-2.5c-0.6-1.3-2.5-2.1-6.9-4.1c-5.3-2.1-7.5-3.8-9.3-5.9c-1.3-1.6-2.1-3.1-2.8-5c-0.3-1.6-0.6-5-0.3-6.2
	c1-5,4.7-8.5,10.3-9.3C74.7,45.3,78.6,45.6,80.6,45.9L80.6,45.9z M57.1,50.3v4.1H44v36.9h-9V54.4H21.8v-4.1c0-2.1,0-4.1,0-4.1
	s7.8,0,17.5,0h17.5L57.1,50.3z"/>
</svg>
