<?xml version="1.0" encoding="utf-8"?>
<!-- Generator: Adobe Illustrator 24.0.2, SVG Export Plug-In . SVG Version: 6.00 Build 0)  -->
<svg version="1.1" id="Capa_1" xmlns="http://www.w3.org/2000/svg" xmlns:xlink="http://www.w3.org/1999/xlink" x="0px" y="0px"
	 viewBox="0 0 100 100" style="enable-background:new 0 0 100 100;" xml:space="preserve">
<style type="text/css">
	.st0{fill:#20244B;}
</style>
<g>
	<path class="st0" d="M36.5,46c-0.4-1.3-0.8-2.6-1.2-4c-0.4-1.3-0.8-2.6-1.1-3.8c-0.3-1.2-0.7-2.3-0.9-3.4h-0.1
		c-0.3,1.9-0.9,3.7-1.4,5.6c-0.7,2.1-1.2,4.3-2,6.4c-0.5,2.2-1.2,4.3-1.9,6.1h10.6c-0.2-0.9-0.5-2-1-3.2
		C37.2,48.5,36.9,47.3,36.5,46z"/>
	<path class="st0" d="M76.5,46.3c-0.5-0.5-1.1-1-1.9-1.2c-0.9-0.3-1.6-0.4-2.3-0.4c-2.3-0.1-4.5,1.1-5.6,3.3c-0.5,1-0.8,2.1-0.9,3.2
		h8.8c1.1,0,1.9,0,2.4,0c0.3,0,0.7-0.1,1-0.3v-0.4c0-0.8-0.2-1.5-0.4-2.2C77.4,47.5,77,46.8,76.5,46.3z"/>
	<path class="st0" d="M50,0C22.4,0,0,22.4,0,50s22.4,50,50,50s50-22.4,50-50S77.6,0,50,0z M53.9,72.4h-8.7c-0.3,0-0.5-0.2-0.7-0.4
		L41,61.5H25.5l-3.2,10.3c-0.1,0.4-0.4,0.7-0.8,0.7h-7.9c-0.4,0-0.5-0.2-0.4-0.8l13.4-40.2c0.1-0.4,0.2-0.9,0.4-1.3
		c0.2-0.9,0.2-1.9,0.2-2.8c0-0.2,0.1-0.4,0.3-0.4h10.8c0.3,0,0.5,0.1,0.5,0.3l15.3,44.5C54.5,72.2,54.4,72.4,53.9,72.4z M86.5,56.9
		c0,0.3-0.3,0.5-0.5,0.5c-0.2,0-0.8,0-1.4,0.1c-0.7,0.1-1.4,0.1-2.4,0.1c-1,0-2-0.2-3.1-0.2H65.8c0.2,1.3,0.5,2.7,1.3,3.8
		c0.8,1.2,1.9,2.1,3.1,2.6c1.6,0.8,3.5,1.1,5.3,1.1c1.4,0,2.9-0.2,4.4-0.4c1.3-0.2,2.5-0.5,3.7-1c0.2-0.2,0.3-0.1,0.3,0.3v6.7
		c0,0.2,0,0.3-0.1,0.5c-0.1,0.1-0.2,0.2-0.3,0.3c-1.3,0.7-2.7,1.1-4.1,1.3c-2,0.4-3.9,0.5-5.9,0.5c-3.2,0-5.9-0.5-8.1-1.5
		c-2.1-0.9-3.8-2.3-5.2-4.1c-1.3-1.7-2.3-3.6-2.8-5.7c-0.5-2.1-0.9-4.3-0.9-6.3c0-2.3,0.3-4.7,1.1-6.9c0.7-2.2,1.7-4.1,3.2-6
		c1.4-1.7,3.1-3.2,5-4.1c2-1,4.3-1.3,7-1.3c2.2-0.1,4.5,0.4,6.4,1.3c1.7,0.8,3.2,2,4.4,3.5c1.1,1.5,2,3.2,2.5,4.9
		c0.5,1.7,0.8,3.5,0.8,5.3c0,1,0,2-0.1,2.7C86.6,55.9,86.6,56.4,86.5,56.9z"/>
</g>
</svg>
