<?xml version="1.0" encoding="utf-8"?>
<!-- Generator: Adobe Illustrator 24.0.2, SVG Export Plug-In . SVG Version: 6.00 Build 0)  -->
<svg version="1.1" id="Capa_1" xmlns="http://www.w3.org/2000/svg" xmlns:xlink="http://www.w3.org/1999/xlink" x="0px" y="0px"
	 viewBox="0 0 100 100" style="enable-background:new 0 0 100 100;" xml:space="preserve">
<style type="text/css">
	.st0{fill:#20244B;}
</style>
<g>
	<path class="st0" d="M34.3,46.5c-0.4-1.3-0.8-2.6-1.2-3.9c-0.4-1.3-0.8-2.5-1.1-3.7c-0.3-1.2-0.7-2.3-1-3.3h-0.1
		c-0.3,1.9-0.9,3.6-1.4,5.5c-0.7,2.1-1.3,4.1-2,6.2c-0.5,2.2-1.2,4.1-1.9,5.9h10.8c-0.2-0.9-0.5-2-1-3.1C35,49,34.6,47.8,34.3,46.5z
		"/>
	<path class="st0" d="M50,0C22.4,0,0,22.4,0,50s22.4,50,50,50s50-22.4,50-50S77.6,0,50,0z M52,72.3h-8.8c-0.3,0-0.5-0.2-0.7-0.4
		L39,61.7H23.1l-3.2,10c-0.1,0.3-0.4,0.7-0.8,0.5h-8c-0.4,0-0.5-0.2-0.4-0.8l13.6-39.1c0.1-0.4,0.2-0.9,0.4-1.4
		c0.2-0.9,0.3-1.7,0.3-2.7c0-0.2,0.1-0.4,0.3-0.4h10.9c0.3,0,0.5,0.1,0.5,0.3l15.4,43.4C52.5,72.1,52.4,72.3,52,72.3z M86.1,71.8
		c0,0.1-0.1,0.1-0.1,0.2c0,0,0,0-0.1,0.1c-0.1,0.1-0.1,0.1-0.2,0.1h-8.2c-0.2,0-0.5-0.1-0.5-0.4V51.7c0-1.9-0.4-3.3-1.2-4.4
		c-0.8-1.1-2.5-1.6-4.4-1.6c-1,0-1.9,0.2-2.8,0.5c-0.9,0.3-1.9,0.9-2.6,1.4v24c0,0.2-0.1,0.4-0.5,0.4h-8.1c-0.2,0-0.4-0.1-0.4-0.3
		V45.7c0-1.2,0-2.2,0-3.1s-0.1-1.6-0.1-2.3c-0.1-0.7-0.2-1.1-0.2-1.5c-0.1-0.3,0.1-0.5,0.4-0.5h7.3c0.1,0,0.1,0.1,0.2,0.1
		c0.1,0,0.2,0.2,0.3,0.3c0,0.3,0.1,0.8,0.2,1.1c0.1,0.3,0.1,0.5,0.1,0.9c1.4-1.2,3.1-2.1,4.8-2.6c1.5-0.4,3.2-0.7,4.7-0.7
		c1.5,0,3.1,0.2,4.6,0.8c1.4,0.4,2.6,1.2,3.6,2.3c1.1,1.2,2,2.6,2.4,4.1c0.7,2,0.9,3.9,0.9,6v21C86.1,71.7,86.1,71.7,86.1,71.8z"/>
</g>
</svg>
