<?xml version="1.0" encoding="utf-8"?>
<!-- Generator: Adobe Illustrator 24.0.2, SVG Export Plug-In . SVG Version: 6.00 Build 0)  -->
<svg version="1.1" id="Capa_1" xmlns="http://www.w3.org/2000/svg" xmlns:xlink="http://www.w3.org/1999/xlink" x="0px" y="0px"
	 viewBox="0 0 100 100" style="enable-background:new 0 0 100 100;" xml:space="preserve">
<style type="text/css">
	.st0{fill:#2D0E0F;}
</style>
<g>
	<path class="st0" d="M40.5,48.3c-0.2-0.7-0.4-1.2-0.7-1.9c-0.2-0.7-0.4-1.2-0.7-1.9c-0.4-1.2-0.9-2.4-1.2-3.6
		c-0.1-0.4-0.3-1-0.4-1.4c-0.2-0.7-0.3-1.2-0.5-1.7h-0.1c-0.3,1.7-0.9,3.5-1.4,5.2c-0.3,0.8-0.5,1.5-0.8,2.3
		c-0.3,1.2-0.8,2.4-1.2,3.7c-0.5,2.1-1.2,3.9-1.9,5.7h10.9c-0.3-0.9-0.7-1.9-0.9-2.9C41.3,50.7,40.9,49.5,40.5,48.3z"/>
	<path class="st0" d="M50,0C22.4,0,0,22.4,0,50c0,27.6,22.4,50,50,50c27.6,0,50-22.4,50-50S77.6,0,50,0z M58.2,73h-9
		c-0.2,0-0.5-0.1-0.7-0.4l-3.5-9.7H29.1l-3.4,9.7c0,0.3-0.3,0.5-0.8,0.5h-8.1c-0.4,0-0.5-0.3-0.4-0.8l14-37.9c0-0.1,0.1-0.2,0.1-0.3
		c0.1-0.3,0.2-0.7,0.3-1c0.1-0.9,0.2-1.7,0.2-2.6c-0.1-0.2,0.1-0.4,0.3-0.4h0.1h10.9c0.3,0,0.5,0.1,0.5,0.3l15.6,41.9
		C58.7,72.8,58.6,73,58.2,73z M72.8,72.5c0,0.4-0.2,0.7-0.5,0.7h-8.4c-0.4,0-0.7-0.2-0.7-0.7V41.2c0-0.4,0.2-0.7,0.5-0.5h8.5
		c0.3,0,0.5,0.2,0.5,0.5V72.5z M71.9,35.7c-1,1-2.5,1.5-3.9,1.4c-1.4,0-2.8-0.4-3.8-1.4c-1-1-1.4-2.4-1.4-3.7
		c-0.1-1.4,0.5-2.6,1.5-3.6c1-1,2.4-1.4,3.8-1.4c1.7,0,2.9,0.4,3.9,1.4c1,1,1.4,2.3,1.4,3.6C73.5,33.3,72.9,34.7,71.9,35.7z"/>
</g>
</svg>
