<?xml version="1.0" encoding="utf-8"?>
<!-- Generator: Adobe Illustrator 24.0.2, SVG Export Plug-In . SVG Version: 6.00 Build 0)  -->
<svg version="1.1" id="Capa_1" xmlns="http://www.w3.org/2000/svg" xmlns:xlink="http://www.w3.org/1999/xlink" x="0px" y="0px"
	 viewBox="0 0 100 100" style="enable-background:new 0 0 100 100;" xml:space="preserve">
<style type="text/css">
	.st0{fill:#3F0F21;}
</style>
<g>
	<path class="st0" d="M57.1,48c-1.5,0.8-2.8,2-3.7,3.4c-1,1.5-1.4,3.5-1.4,5.9c0,1.6,0.2,3.3,0.8,4.8c0.4,1.2,1.1,2.4,2,3.3
		c0.9,0.9,1.9,1.5,3.1,1.9c1.2,0.4,2.4,0.5,3.7,0.5c0.7,0,1.3,0,1.9-0.1c0.5,0,1.1,0,1.6-0.2V47.2c-1.1-0.2-2-0.3-2.8-0.3
		C60.4,46.8,58.7,47.2,57.1,48z"/>
	<path class="st0" d="M50,0C22.4,0,0,22.4,0,50s22.4,50,50,50s50-22.4,50-50S77.6,0,50,0z M34.9,27.7v47.5c0,0.5-0.2,0.8-0.7,0.8
		h-8.6c-0.4,0-0.5-0.2-0.5-0.8V27.8c0-0.4,0.2-0.7,0.7-0.7h8.6c0.2,0,0.5,0.1,0.5,0.4V27.7z M74.5,74c-2.3,1-4.7,1.7-7.2,2.2
		c-2.2,0.4-4.5,0.7-6.8,0.7c-3.3,0-6.6-0.7-9.5-2.1c-2.8-1.3-5.1-3.6-6.7-6.3c-1.6-2.8-2.4-6.3-2.4-10.6c0-3.4,0.8-6.8,2.4-9.7
		c1.6-3.1,4.1-5.6,7-7.2c3.1-1.9,6.8-2.7,11.1-2.7c0.2,0,0.5,0,1,0c0.4,0,0.9,0,1.3,0.1V23.7c0-0.3,0.1-0.4,0.4-0.4h9
		c0.2,0,0.4,0.1,0.4,0.3v44.2c0,0.9,0,1.7,0.1,2.7c0.1,1,0.1,1.9,0.2,2.7C74.9,73.6,74.8,73.8,74.5,74z"/>
</g>
</svg>
