<?xml version="1.0" encoding="utf-8"?>
<!-- Generator: Adobe Illustrator 24.0.2, SVG Export Plug-In . SVG Version: 6.00 Build 0)  -->
<svg version="1.1" id="Capa_1" xmlns="http://www.w3.org/2000/svg" xmlns:xlink="http://www.w3.org/1999/xlink" x="0px" y="0px"
	 viewBox="0 0 100 100" style="enable-background:new 0 0 100 100;" xml:space="preserve">
<style type="text/css">
	.st0{fill:#3655A2;}
	.st1{fill:#3C61AB;}
</style>
<g>
	<path class="st0" d="M6,0l8.1,90.1l36,9.9l36.2-9.9L94.3,0H6z M79.4,84.2l-29.1,8.2V80.9h-0.1l-22.6-6.2L26,57.4h11l0.8,8.7
		l12.3,3.3l0.1,0V51.8h-0.1H25.5l-1.1-11h25.7h0.1V29.4h-0.1H23.5l-1.1-11h27.7h0.1V7.3h36L79.4,84.2z"/>
	<polygon class="st1" points="63.7,51.8 50.2,51.8 50.2,69.4 62.4,66.1 	"/>
	<polygon class="st1" points="65.7,29.4 50.2,29.4 50.2,40.8 64.7,40.8 	"/>
	<polygon class="st1" points="50.2,7.3 50.2,18.4 77.8,18.4 75.8,40.8 75.5,43.7 73,72.8 72.8,74.7 50.2,80.9 50.2,80.9 50.2,92.5 
		79.4,84.2 86.3,7.3 	"/>
</g>
</svg>
