<?xml version="1.0" encoding="utf-8"?>
<!-- Generator: Adobe Illustrator 24.0.2, SVG Export Plug-In . SVG Version: 6.00 Build 0)  -->
<svg version="1.1"
	 id="svg3476" xmlns:cc="http://creativecommons.org/ns#" xmlns:dc="http://purl.org/dc/elements/1.1/" xmlns:inkscape="http://www.inkscape.org/namespaces/inkscape" xmlns:rdf="http://www.w3.org/1999/02/22-rdf-syntax-ns#" xmlns:sodipodi="http://sodipodi.sourceforge.net/DTD/sodipodi-0.dtd" xmlns:svg="http://www.w3.org/2000/svg"
	 xmlns="http://www.w3.org/2000/svg" xmlns:xlink="http://www.w3.org/1999/xlink" x="0px" y="0px" viewBox="0 0 100 100"
	 style="enable-background:new 0 0 100 100;" xml:space="preserve">
<style type="text/css">
	.st0{fill:#264DE4;}
	.st1{fill:#2965F1;}
	.st2{fill:#EBEBEB;}
	.st3{fill:#FFFFFF;}
</style>
<g>
	
		<sodipodi:namedview  bordercolor="#666666" borderopacity="1.0" fit-margin-bottom="0" fit-margin-left="0" fit-margin-right="0" fit-margin-top="0" id="base" inkscape:current-layer="layer1" inkscape:cx="181.367" inkscape:cy="256" inkscape:document-units="px" inkscape:pageopacity="0.0" inkscape:pageshadow="2" inkscape:window-height="704" inkscape:window-maximized="1" inkscape:window-width="1366" inkscape:window-x="0" inkscape:window-y="27" inkscape:zoom="0.35" pagecolor="#ffffff" showgrid="false">
		</sodipodi:namedview>
	<g>
		<g>
			<path id="path2999" inkscape:connector-curvature="0" d="M31.7,0h10.8v4.5h-6.3v4.5h6.3v4.5H31.7V0z"/>
			<path id="path3001" inkscape:connector-curvature="0" d="M44.6,0h10.8v3.9h-6.3v0.8h6.3v8.9H44.6V9.5h6.3V8.7h-6.3V0z"/>
			<path id="path3003" inkscape:connector-curvature="0" d="M57.5,0h10.8v3.9h-6.3v0.8h6.3v8.9H57.5V9.5h6.3V8.7h-6.3V0z"/>
		</g>
		<g>
			<polygon id="polygon2989" class="st0" points="85.5,19.2 79,91.9 50,100 20.9,91.9 14.5,19.2 			"/>
			<polygon id="polygon2991" class="st1" points="73.5,87.3 79,25.2 50,25.2 50,93.8 			"/>
			<polygon id="polygon2993" class="st2" points="29.3,52.1 30.1,61.1 50,61.1 50,52.1 			"/>
			<polygon id="polygon2995" class="st2" points="50,34.1 50,34.1 27.7,34.1 28.5,43 50,43 			"/>
			<polygon id="polygon2997" class="st2" points="50,84.6 50,75.3 50,75.3 40.1,72.6 39.4,65.5 34.6,65.5 30.5,65.5 31.7,79.5 
				50,84.6 			"/>
			<polygon id="polygon3005" class="st3" points="60.9,61.1 59.9,72.6 50,75.3 50,84.6 68.2,79.5 68.3,78 70.4,54.5 70.6,52.1 
				72.2,34.1 50,34.1 50,43 62.5,43 61.7,52.1 50,52.1 50,61.1 			"/>
		</g>
	</g>
</g>
</svg>
