<?xml version="1.0" encoding="utf-8"?>
<!-- Generator: Adobe Illustrator 24.0.2, SVG Export Plug-In . SVG Version: 6.00 Build 0)  -->
<svg version="1.1" id="Capa_1" xmlns="http://www.w3.org/2000/svg" xmlns:xlink="http://www.w3.org/1999/xlink" x="0px" y="0px"
	 viewBox="0 0 100 100" style="enable-background:new 0 0 100 100;" xml:space="preserve">
<style type="text/css">
	.st0{fill:#4CB37D;}
	.st1{fill:#765FA6;}
	.st2{fill:#E95025;}
	.st3{fill:#EE7265;}
	.st4{fill:#46B7EA;}
</style>
<path class="st0" d="M33.2,100c9.2,0,16.6-7.4,16.6-16.6V66.7H33.2c-9.2,0-16.6,7.4-16.6,16.6C16.6,92.6,24.1,100,33.2,100"/>
<path class="st1" d="M16.6,50c0-9.2,7.4-16.6,16.6-16.6h16.6v33.4H33.2C24,66.7,16.6,59.2,16.6,50"/>
<path class="st2" d="M16.6,16.6C16.6,7.4,24,0,33.2,0h16.6v33.4H33.2C24,33.4,16.6,25.8,16.6,16.6"/>
<path class="st3" d="M49.8,0h16.6c9.2,0,16.6,7.4,16.6,16.7s-7.4,16.7-16.6,16.7H49.8V0z"/>
<path class="st4" d="M83.1,50.1c0,9.2-7.4,16.7-16.6,16.7s-16.6-7.4-16.6-16.7s7.4-16.7,16.6-16.7C75.6,33.4,83.1,40.8,83.1,50.1"/>
</svg>
