<?xml version="1.0" encoding="utf-8"?>
<!-- Generator: Adobe Illustrator 24.0.2, SVG Export Plug-In . SVG Version: 6.00 Build 0)  -->
<svg version="1.1" id="Capa_1" xmlns="http://www.w3.org/2000/svg" xmlns:xlink="http://www.w3.org/1999/xlink" x="0px" y="0px"
	 viewBox="0 0 1280 1108" style="enable-background:new 0 0 1280 1108;" xml:space="preserve">
<style type="text/css">
	.st0{opacity:0.333;fill:#0000FF;enable-background:new    ;}
	.st1{opacity:0.333;fill:#FF0000;enable-background:new    ;}
	.st2{opacity:0.333;fill:#FF9955;enable-background:new    ;}
	.st3{opacity:0.333;fill:#FFE680;enable-background:new    ;}
	.st4{opacity:0.333;fill:#FFFF00;enable-background:new    ;}
	.st5{opacity:0.333;fill:#00FFFF;enable-background:new    ;}
</style>
<g>
	<path class="st0" d="M639.8-0.1L533.4,184.3h213.3L640.2-0.1L639.8-0.1L639.8-0.1z"/>
	<path class="st1" d="M106.5,923.7L0,1108.1h1280l-106.5-184.4H106.5L106.5,923.7z"/>
	<path class="st2" d="M213.2,738.9L106.7,923.3h1066.6l-106.5-184.4H213.2L213.2,738.9z"/>
	<path class="st3" d="M319.8,554.2L213.3,738.6h853.3L960.2,554.2H319.8L319.8,554.2z"/>
	<path class="st4" d="M426.5,369.4L320,553.8h640L853.5,369.4L426.5,369.4L426.5,369.4z"/>
	<path class="st5" d="M533.1,184.7L426.7,369.1h426.7L746.9,184.7L533.1,184.7L533.1,184.7z"/>
	<path class="st0" d="M0.3,1108.2l212.9,0L106.6,923.5L0.1,1107.9L0.3,1108.2L0.3,1108.2z"/>
	<path class="st1" d="M1067,1108.3l212.9,0L639.9-0.3L533.4,184.1L1067,1108.3L1067,1108.3z"/>
	<path class="st2" d="M853.6,1108.2l212.9,0L533.3,184.5L426.8,368.9L853.6,1108.2L853.6,1108.2z"/>
	<path class="st3" d="M640.3,1108.3l212.9,0l-426.7-739L320.1,553.6L640.3,1108.3L640.3,1108.3z"/>
	<path class="st4" d="M427,1108.2l213,0l-320-554.3L213.5,738.4L427,1108.2L427,1108.2z"/>
	<path class="st5" d="M213.6,1108.3l212.9,0L213.2,738.8L106.8,923.2L213.6,1108.3L213.6,1108.3z"/>
</g>
</svg>
