<?xml version="1.0" encoding="utf-8"?>
<!-- Generator: Adobe Illustrator 24.0.2, SVG Export Plug-In . SVG Version: 6.00 Build 0)  -->
<svg version="1.1" id="Capa_1" xmlns="http://www.w3.org/2000/svg" xmlns:xlink="http://www.w3.org/1999/xlink" x="0px" y="0px"
	 viewBox="0 0 100 100" style="enable-background:new 0 0 100 100;" xml:space="preserve">
<path d="M72.1,99.9c-1.4-0.7-2.8-1.4-4.2-2.1c-3.3-1.5-6.5-3.2-9.8-4.7c-0.3-0.1-0.6-0.3-0.9-0.5c1.3-0.7,2.7-1.4,3.9-2
	c7-3.7,10.6-9.7,11.3-17.4c0.5-5.5,0.6-11,0.7-16.5c0.1-10,0-20,0-30c0-0.4,0-0.8,0-1.3c5.5,0,10.8,0,16.2,0c0,0.4,0.1,0.7,0.1,1
	c0,14.2,0,28.3-0.1,42.5c0,4.7-0.4,9.4-1.7,14c-1.8,6.2-5.3,11.3-11,14.7c-1.4,0.8-2.9,1.6-4.2,2.6C72.2,99.9,72.2,99.9,72.1,99.9z"
	/>
<path d="M47,24.7c0-8.3,0-16.5,0-24.7c5.4,0,10.8,0,16.2,0c0,0.3,0.1,0.7,0.1,1c0,24.5,0,49,0,73.5c0,0.8-0.2,1-1,1.2
	c-6.1,1.1-12.4,1.9-18.7,2c-5.4,0.1-10.8-0.3-16-2.1c-8.2-2.9-13.4-8.4-15.1-17c-1.4-6.9-1-13.8,2-20.3c2.5-5.2,6.3-9.1,11.6-11.5
	c6.4-3,13.1-3.6,20-2.2C46.4,24.6,46.6,24.6,47,24.7z M46.9,64c0-8.8,0-17.4,0-26.1c-2.7-0.9-5.4-1.1-8.2-0.6
	c-3.9,0.6-6.9,2.5-8.7,6.1c-1.9,4.2-2,8.6-0.8,13c1,3.8,3.5,6.3,7.3,7.5C40,64.9,43.5,64.6,46.9,64z"/>
<path d="M89.3,0.1c0,5.5,0,11,0,16.6c-5.4,0-10.8,0-16.2,0c0-5.5,0-11,0-16.6C78.4,0.1,83.8,0.1,89.3,0.1z"/>
</svg>
