<?xml version="1.0" encoding="utf-8"?>
<!-- Generator: Adobe Illustrator 24.0.2, SVG Export Plug-In . SVG Version: 6.00 Build 0)  -->
<svg version="1.1" id="Capa_1" xmlns="http://www.w3.org/2000/svg" xmlns:xlink="http://www.w3.org/1999/xlink" x="0px" y="0px"
	 viewBox="0 0 100 100" style="enable-background:new 0 0 100 100;" xml:space="preserve">
<g>
	<path d="M30.2,66.6c-0.9,2.2-1.2,4.5-1.6,6.8c-1.3,7.6,12.7,29.9,33.4,19.3c4.8-2.5,7.8-7.6,9.2-12.8c0.6-2.4,0.4-2.7-2.1-2.7
		c-5.4,0-10.8-0.1-16.2-0.1c0.7-3.7,2.4-5.1,6-5.2c4,0,8.1-0.1,12.1-0.1c1.5,0.2,3.7-0.3,5.1-0.6c14.6-3.3,20.9-16.8,14.7-30.4
		c-2.5-5.4-6.9-8.9-12.5-10.9c-0.6-0.2-1.6-1-1.9,0.6c-0.6,3.7-2.2,7-3.8,10.3C68.8,47.6,59.2,52.7,49.7,53
		C40.5,53.4,33.9,58.1,30.2,66.6z M55.7,86.8c-0.2,1.5-1.2,2.5-2.7,2.5c-1.4,0-2.6-0.8-2.6-2.5c0-1.7,1-2.5,2.4-2.8
		C54.3,84,55.8,85.5,55.7,86.8z"/>
	<path d="M53.2,4.7c-10.9-1.2-21.6,6-24.1,16.8c-0.4,1.7-0.1,2.3,1.7,2.2c5.5-0.1,11.1,0,16.6,0.1c-0.5,3.4-2.5,5.1-5.9,5.2
		c-1.7,0.1-12.5-0.3-16.1,0.1C22.1,29.6,12.7,31,8,44.7C4.3,55.3,11.6,68,22.5,71.2c1,0.3,1.4-0.1,1.5-0.9c0.4-2.6,2.6-20.3,22-22.3
		c1.1,0.2,18-1.4,23.9-12.6C75.1,25.1,67,6.2,53.2,4.7z M47.5,17.1c-1.6,0-2.9-1.3-2.9-2.9s1.3-2.9,2.9-2.9c1.6,0,2.9,1.3,2.9,2.9
		S49.1,17.1,47.5,17.1z"/>
</g>
</svg>
