<?xml version="1.0" encoding="utf-8"?>
<!-- Generator: Adobe Illustrator 24.0.2, SVG Export Plug-In . SVG Version: 6.00 Build 0)  -->
<svg version="1.1" id="Capa_1" xmlns="http://www.w3.org/2000/svg" xmlns:xlink="http://www.w3.org/1999/xlink" x="0px" y="0px"
	 viewBox="0 0 100 100" style="enable-background:new 0 0 100 100;" xml:space="preserve">
<style type="text/css">
	.st0{fill:#132035;}
	.st1{fill:#FFFFFF;}
</style>
<path class="st0" d="M8,63.6c-0.1-1.7-0.1-3.5,0.9-4.8c1.9-2.3,5.8-1.6,7.9,0.5s3.3,4.9,5.2,7.3c1.9,2.3,5.1,4.2,7.7,2.9
	c2.6-5.4-2.9-11-7.9-14.3c-5-3.3-10.8-8.2-9.1-13.9c4.8-2.3,10.2,1.4,14.1,5s8.5,7.9,13.7,6.8c-0.9-10.5-12.1-17-22.4-19.2
	c-3.1-0.7-6.8-1.5-8-4.5c-1.5-3.8,3-7.8,7.1-7.7s7.7,2.8,11.2,5.1s7.8,4.1,11.7,2.6c0.5-4.2-3.5-7.5-7.4-9.1s-8.3-2.7-10.9-6.1
	c1.4-4.1,7.5-4,11.3-1.7s7.1,5.8,11.5,6c-2.2-4.4,2.2-10.4,7.1-9.5c-0.3,1.9-0.1,4.1,1.2,5.5c2.6,2.6,7,0.7,9.8-1.8
	c2.8-2.4,5.9-5.4,9.5-4.5c3.8,1,5.1,6.2,3.4,9.7s-5.3,5.8-8.6,7.8c6.4,3.5,14.3-0.2,21.7,0.1c1,0,2.1,0.2,2.9,0.8
	c0.9,0.7,1.4,1.8,1.6,2.9c0.8,4.4-2.1,9.1-6.3,10.4c-3.6,1.2-7.6,0-11.4,0c-3.8,0-8.4,2-8.6,5.8c-0.2,4.6,5.8,6.7,10.4,6.3
	c4.6-0.4,9.8-1.7,13.4,1.2c4.1,3.4,1.8,11.4-3.5,12c-2,0.3-3.9-0.4-5.8-1c-4.9-1.5-9.7-3.1-14.6-4.6c0.3,5.7,4.1,11,9.4,13
	c5.3,2,12.9,2.2,14.2,7.7c0.7,3.1-1.5,6.4-4.5,7.7s-6.3,1.2-9.5,0.7c-3.7-0.6-7.5-1.7-10-4.3c-2.7-2.8-3.5-6.9-5.8-10.1
	c-2.3-3.1-7.8-4.7-9.8-1.3c-1.7,2.7,0.4,6.1,2.1,8.8c1.7,2.7,2.6,7-0.2,8.5c-5.3,2.9-7.8-7.2-11.6-8.6c-6.1-2.1-7.4,5.2-12.5,6.3
	C17.9,90,8.8,71.9,8,63.6z"/>
<circle class="st1" cx="49.1" cy="35.5" r="8"/>
<circle class="st1" cx="53.5" cy="57.1" r="3.9"/>
</svg>
