<?xml version="1.0" encoding="utf-8"?>
<!-- Generator: Adobe Illustrator 24.0.2, SVG Export Plug-In . SVG Version: 6.00 Build 0)  -->
<svg version="1.1" id="Capa_1" xmlns="http://www.w3.org/2000/svg" xmlns:xlink="http://www.w3.org/1999/xlink" x="0px" y="0px"
	 viewBox="0 0 100 100" style="enable-background:new 0 0 100 100;" xml:space="preserve">
<path d="M22,95.9c-4.6,0-8.9-1.2-12.8-3.5c-3.7-2.2-6.4-6.8-7.5-12.5C0.3,72.5,2,65,6.3,59.3l0.4-0.5c7.3-7.8,18.1-7.8,26.6-6
	l-0.1-40.5l13.1,0l0.1,45.1c3,1.5,5.6,3.5,8,5.2c3.1,2.3,6.3,4.6,8.3,4.5c0.7,0,1.1-0.2,1.6-0.8c2.9-3.3,3.5-12,3.3-20.3
	c-2.8,0-5.6,0-8.3-0.1c-0.8,0-1.5,0-2.2-0.1l0.3-13.1c0.7,0,1.5,0,2.3,0.1c1.8,0.1,4.3,0.1,7.1,0.1c-0.1-0.6-0.1-1.2-0.2-1.7
	c-0.1-1.2-0.2-2.3-0.3-3.3c-0.4-4.9,1.8-10.1,5.6-13.1c0.5-0.4,1-0.7,1.6-1c7.9-3.7,16.5-1.9,22.3,4.5c2.8,3.1,4.2,7.2,3.8,11.3
	c-0.4,4-2.5,7.7-5.7,10.1c-3.6,2.7-8.2,4.3-13.3,5.2c0.4,12.4-0.8,23.6-6.5,30.1c-2.8,3.2-6.6,5-10.9,5.2c-6.6,0.2-11.9-3.6-16.6-7
	c-0.1-0.1-0.3-0.2-0.4-0.3c-0.3,4.2-1.1,8.8-3.5,12.9c-2.5,4.1-8.1,7.8-14.4,9.4C26.3,95.7,24.1,95.9,22,95.9z M16.1,81.2
	c6.7,4,14.5-0.7,15.5-2.3c1.8-3,1.8-7.7,1.8-11.8l0-0.9c-6-1.7-13.1-2.4-16.8,1.2C12.7,72.9,14.7,79.9,16.1,81.2z M16.2,81.3
	L16.2,81.3L16.2,81.3z M79.9,25.3c-0.2,0.4-0.4,1-0.4,1.4c0.1,1,0.2,2,0.3,3.2c0,0.6,0.1,1.1,0.1,1.7c2.5-0.5,4.7-1.3,6.2-2.5
	c0.1-0.1,0.4-0.3,0.5-0.9c0-0.3,0-0.8-0.5-1.3C84.4,25,82.4,24.4,79.9,25.3z M79.1,25.6C79.1,25.6,79.1,25.6,79.1,25.6
	C79.1,25.6,79.1,25.6,79.1,25.6z"/>
</svg>
