<?xml version="1.0" encoding="utf-8"?>
<!-- Generator: Adobe Illustrator 24.0.2, SVG Export Plug-In . SVG Version: 6.00 Build 0)  -->
<svg version="1.1" id="Capa_1" xmlns="http://www.w3.org/2000/svg" xmlns:xlink="http://www.w3.org/1999/xlink" x="0px" y="0px"
	 viewBox="0 0 100 100" style="enable-background:new 0 0 100 100;" xml:space="preserve">
<style type="text/css">
	.st0{fill:#271C2D;}
	.st1{fill:#D8219B;}
</style>
<path class="st0" d="M97.5,28.1c-0.6-0.4-1.3-0.6-1.9-0.4l-31.8,9v-6.8c0-0.7-0.3-1.4-0.9-1.8c-0.6-0.4-1.3-0.6-1.9-0.4l-31.9,9v-24
	c0-1.2-1-2.2-2.2-2.2H3.1c-1.2,0-2.2,1-2.2,2.2v72.9c0,1.2,1,2.2,2.2,2.2h18.2h5.5H56h5.5h34.7c1.2,0,2.2-1,2.2-2.2V29.9
	C98.4,29.2,98.1,28.5,97.5,28.1z"/>
<g>
	<path class="st1" d="M27.9,60.4l15.4-8.3v2.4l-13,6.8v0.1l13,6.8v2.4l-15.4-8.3V60.4z"/>
	<path class="st1" d="M45.4,72l9.3-25.1h2.3L47.6,72H45.4z"/>
	<path class="st1" d="M74.4,62.3L59,70.6v-2.4l13.1-6.8v-0.1L59,54.5v-2.4l15.4,8.2V62.3z"/>
</g>
</svg>
