<?xml version="1.0" encoding="utf-8"?>
<!-- Generator: Adobe Illustrator 24.0.2, SVG Export Plug-In . SVG Version: 6.00 Build 0)  -->
<svg version="1.1" id="Capa_1" xmlns="http://www.w3.org/2000/svg" xmlns:xlink="http://www.w3.org/1999/xlink" x="0px" y="0px"
	 viewBox="0 0 100 100" style="enable-background:new 0 0 100 100;" xml:space="preserve">
<path d="M93,30.5c-0.5,2.2-0.8,4.5-1.5,6.6c-4.9,14.4-21.4,21.4-35.1,15c-0.8-0.4-1.2-0.3-1.8,0.3c-5.2,5.2-10.4,10.4-15.7,15.7
	c0.3,0.3,0.6,0.6,0.8,0.9c2.7,2.7,5.4,5.4,8.1,8.1c2,2,2,4.3,0,6.3c-4.4,4.4-8.8,8.8-13.2,13.2c-2,2-4.3,2-6.3,0c-3-3-5.9-5.9-9-9
	c-0.8,0.8-1.5,1.5-2.2,2.2c-2.3,2.2-5.1,2.9-8.2,1.9c-3-1-4.8-3.3-5.2-6.4c-0.3-2.3,0.4-4.4,1.9-6.2c0.6-0.7,1.3-1.4,2-2.1
	c11.9-11.9,23.8-23.8,35.7-35.7c0.6-0.6,0.7-1.1,0.3-1.9c-7.3-15.6,2.9-34.2,20-36.3c14.2-1.8,26.9,7.9,28.9,22
	c0.1,0.6,0.2,1.1,0.3,1.7C93,28.1,93,29.3,93,30.5z M77,28.7c0-5.5-4.4-9.9-9.8-9.9c-5.5,0-10,4.5-10,10c0,5.5,4.5,9.9,9.9,9.9
	C72.6,38.6,77,34.2,77,28.7z"/>
</svg>
