<?xml version="1.0" encoding="utf-8"?>
<!-- Generator: Adobe Illustrator 24.0.2, SVG Export Plug-In . SVG Version: 6.00 Build 0)  -->
<svg version="1.1" id="Capa_1" xmlns="http://www.w3.org/2000/svg" xmlns:xlink="http://www.w3.org/1999/xlink" x="0px" y="0px"
	 viewBox="0 0 88.3 100" style="enable-background:new 0 0 88.3 100;" xml:space="preserve">
<style type="text/css">
	.st0{fill:#3655A2;}
	.st1{fill:#3C61AB;}
</style>
<g>
	<path class="st0" d="M0,0l8.1,90.1l36,9.9l36.2-9.9l8-90.1H0z M73.4,84.2l-29.1,8.2V80.9h-0.1l-22.6-6.2L20,57.4h11l0.8,8.7
		l12.3,3.3h0.1V51.8h-0.1H19.5l-1.1-11h25.7h0.1V29.4h-0.1H17.5l-1.1-11h27.7h0.1V7.3h36L73.4,84.2z"/>
	<polygon class="st1" points="57.7,51.8 44.2,51.8 44.2,69.4 56.4,66.1 	"/>
	<polygon class="st1" points="59.7,29.4 44.2,29.4 44.2,40.8 58.7,40.8 	"/>
	<polygon class="st1" points="44.2,7.3 44.2,18.4 71.8,18.4 69.8,40.8 69.5,43.7 67,72.8 66.8,74.7 44.2,80.9 44.2,80.9 44.2,92.5 
		73.4,84.2 80.3,7.3 	"/>
</g>
</svg>
