<?xml version="1.0" encoding="utf-8"?>
<!-- Generator: Adobe Illustrator 24.0.2, SVG Export Plug-In . SVG Version: 6.00 Build 0)  -->
<svg version="1.1" id="Capa_1" xmlns="http://www.w3.org/2000/svg" xmlns:xlink="http://www.w3.org/1999/xlink" x="0px" y="0px"
	 viewBox="0 0 100 100" style="enable-background:new 0 0 100 100;" xml:space="preserve">
<style type="text/css">
	.st0{fill:#E44E28;}
	.st1{fill:#EC662B;}
</style>
<g>
	<polygon class="st0" points="36.4,40.8 51.1,40.8 51.1,29.4 35.5,29.4 	"/>
	<path class="st0" d="M7,0l7.9,90.1l36,9.9l36.2-9.9L95.2,0H7z M80.2,84.4l-29.1,8.1V80.9H51l-22.5-6.2l-1.6-17.4H38l0.7,8.7
		L51,69.4h0.1V51.8H26.3l-2.6-30.5l-0.3-2.9h27.7v-11h36L80.2,84.4z"/>
	<polygon class="st1" points="64.6,51.8 51.1,51.8 51.1,69.4 63.4,66.1 	"/>
	<polygon class="st1" points="51.1,7.4 51.1,18.4 78.8,18.4 78.5,21.3 78,27 77.7,29.4 51.1,29.4 51.1,40.8 76.8,40.8 76.5,43.7 
		73.9,72.8 73.8,74.7 51.1,80.9 51.1,92.5 80.2,84.4 87.1,7.4 	"/>
</g>
</svg>
