<?xml version="1.0" encoding="utf-8"?>
<!-- Generator: Adobe Illustrator 24.0.2, SVG Export Plug-In . SVG Version: 6.00 Build 0)  -->
<svg version="1.1" id="Capa_1" xmlns="http://www.w3.org/2000/svg" xmlns:xlink="http://www.w3.org/1999/xlink" x="0px" y="0px"
	 viewBox="0 0 81.4 100" style="enable-background:new 0 0 81.4 100;" xml:space="preserve">
<style type="text/css">
	.st0{fill:#F7DF1E;}
</style>
<g>
	<rect y="9.3" class="st0" width="81.4" height="81.4"/>
	<path d="M54.7,72.9c1.6,2.7,3.7,4.6,7.6,4.6c3.2,0,5.2-1.6,5.2-3.7c0-2.6-2.1-3.6-5.5-5l-1.9-0.8c-5.5-2.4-9.2-5.3-9.2-11.6
		c0-5.7,4.4-10.1,11.2-10.1c4.9,0,8.4,1.7,10.9,6.1l-5.9,3.8c-1.3-2.4-2.7-3.3-4.9-3.3s-3.7,1.4-3.7,3.3c0,2.3,1.4,3.3,4.7,4.6
		l1.9,0.8c6.5,2.8,10.2,5.6,10.2,12.1c0,6.9-5.5,10.7-12.7,10.7c-7.1,0-11.7-3.4-13.9-7.8L54.7,72.9z M27.7,73.5
		c1.2,2.1,2.3,3.9,4.9,3.9c2.5,0,4.1-1,4.1-4.8V46.6h7.7v26.2c0,7.9-4.6,11.6-11.4,11.6c-6.1,0-9.7-3.2-11.5-7L27.7,73.5z"/>
</g>
</svg>
