<?xml version="1.0" encoding="utf-8"?>
<!-- Generator: Adobe Illustrator 24.0.2, SVG Export Plug-In . SVG Version: 6.00 Build 0)  -->
<svg version="1.1" id="Capa_1" xmlns="http://www.w3.org/2000/svg" xmlns:xlink="http://www.w3.org/1999/xlink" x="0px" y="0px"
	 viewBox="0 0 100 100" style="enable-background:new 0 0 100 100;" xml:space="preserve">
<style type="text/css">
	.st0{fill:#CD689A;}
</style>
<path class="st0" d="M74,0c1.6,0.3,3.1,0.5,4.7,0.8c3.6,0.8,7.2,2.2,10.1,4.6c3.1,2.6,4.7,5.8,4.9,9.8c0.3,6.1-2,11.3-5.5,16
	c-6.1,8-14.5,12.3-24.2,14.2c-5.1,0.9-10.2,0.8-15.3-0.3c-3.5-0.8-6-2.9-7.9-5.9c-0.1-0.2-0.2-0.4-0.2-0.6c-0.1-0.5-0.4-1.1,0.2-1.6
	c0.6-0.4,0.9,0.2,1.2,0.5c3.4,3.1,7.5,4.5,12.2,4.1c5.4-0.5,10.6-1.8,15.6-4.2c6-2.9,11.2-7,14.7-12.9c1.4-2.3,2.2-4.7,2.2-7.4
	c0-3.2-1.4-5.5-4.2-7c-3.1-1.7-6.5-2.2-10-2.2c-7.8-0.1-15.2,1.8-22.3,4.8c-7.9,3.4-15.4,7.6-22,13.4c-3.3,2.9-6.2,6.2-7.8,10.5
	c-1.9,5.2-0.9,9.9,2.6,14c2.5,2.9,5.6,5.3,8.6,7.6c2.9,2.3,5.8,4.5,8.3,7.1c0.4,0.4,0.7,0.4,1.2,0.1c3.7-2,7.3-4.2,11.1-5.9
	c6.6-3.1,13.4-3.7,20.3-1.2c5,1.8,8.6,5.2,9.9,10.5c1,4.4-0.8,8.4-4.7,10.5c-0.4,0.2-0.9,0.4-1.5,0.5c-0.4,0.1-0.8,0.2-1-0.3
	c-0.2-0.4,0.2-0.6,0.5-0.8c0.8-0.5,1.7-1,2.3-1.8c2.7-3.1,2.4-7.2-0.6-10.4c-3.1-3.4-7.3-4.9-11.8-4.9c-7.4-0.1-14.2,2.3-20.3,6.3
	c-2.3,1.6-2.4,1.5-1.7,4.2c3.4,12.1-4.1,24.8-16.1,27.5c-0.8,0.2-1.7,0.2-2.4,0.4c-1.2,0-2.4,0-3.6,0c-2.2-0.2-4.4-0.4-5.8-2.4
	c-1.8-2.4-2.4-5-2.2-7.9c0.4-4.3,2.5-7.6,5.6-10.4c4.5-4.2,9.7-7.2,15.1-10c1.2-0.6,1.2-0.7,0.1-1.6c-3.5-2.6-7.2-5.1-10.7-7.7
	c-3.9-2.8-7.6-5.9-10.6-9.8c-4-5-4.9-10.6-1.8-16.8c2-4.1,4.7-7.6,7.8-10.7c4.7-4.6,10-8.3,15.6-11.7c8.3-4.9,17.1-8.5,26.5-10.4
	C62.9,0.4,64.4,0.4,66,0C68.6,0,71.3,0,74,0z M39.5,76.2c0-0.9-0.1-2.2-0.3-3.3c-0.3-1.2-0.3-1.2-1.4-0.6c-4,2.3-7.7,4.9-11,7.9
	c-2.7,2.5-4.7,5.5-4.8,9.4c0,2,0.9,3,2.9,3.2c0.8,0.1,1.6,0,2.3-0.2C34.2,90.9,39.5,83.9,39.5,76.2z"/>
</svg>
