<?xml version="1.0" encoding="utf-8"?>
<!-- Generator: Adobe Illustrator 24.0.2, SVG Export Plug-In . SVG Version: 6.00 Build 0)  -->
<svg version="1.1" id="Capa_1" xmlns="http://www.w3.org/2000/svg" xmlns:xlink="http://www.w3.org/1999/xlink" x="0px" y="0px"
	 viewBox="0 0 100 100" style="enable-background:new 0 0 100 100;" xml:space="preserve">
<g>
	<path d="M0,52.3V45l24.9-15.9c0,0,0,9.8,0,9.8c-2.1,1.3-4.1,2.5-6.2,3.8c-1.6,1-3.3,2-4.9,3c-1.2,0.7-3.5,2.2-3.2,3.8
		c0.2,1.2,3.1,2.4,4.1,3c1.5,0.9,3.1,1.9,4.6,2.8c1.9,1.1,3.7,2.3,5.6,3.4v9.8L0,52.3z"/>
	<path d="M58.9,24.6L58.9,24.6c2.9,0,5,2.9,3.9,5.7L45,77.3c-0.6,1.6-2.2,2.7-3.9,2.7h0c-2.9,0-5-2.9-3.9-5.7l17.8-47
		C55.6,25.7,57.2,24.6,58.9,24.6z"/>
	<path d="M75.1,58.5c1.9-1.1,3.7-2.3,5.6-3.4c1.6-1,3.2-1.9,4.8-2.9c1.6-1,3.6-1.6,3.8-3.7c0.1-1.7-2.2-2.5-3.4-3.2
		c-1.6-1-3.3-2-4.9-3C79,41.2,77,40,75.1,38.8V29L100,45v7.4L75.1,68.3C75.1,68.3,75.1,58.5,75.1,58.5z"/>
</g>
</svg>
