<?xml version="1.0" encoding="utf-8"?>
<!-- Generator: Adobe Illustrator 24.0.2, SVG Export Plug-In . SVG Version: 6.00 Build 0)  -->
<svg version="1.1" id="Capa_1" xmlns="http://www.w3.org/2000/svg" xmlns:xlink="http://www.w3.org/1999/xlink" x="0px" y="0px"
	 viewBox="0 0 100 100" style="enable-background:new 0 0 100 100;" xml:space="preserve">
<style type="text/css">
	.st0{fill:#4876A5;}
	.st1{fill:#FAD763;}
</style>
<path class="st0" d="M49.7,1C24.2,1,25.8,11.8,25.8,11.8v11.2h24.3v3.3H16.2c0,0-16.2-1.8-16.2,23.3c-0.1,25.2,14.1,24.3,14.1,24.3
	h8.5V62.3c0,0-0.4-13.9,14-13.9h24.1c0,0,13.5,0.2,13.5-12.8V14.1C74.2,14,76.2,1,49.7,1 M36.2,8.5c0.5,0,1.2,0.1,1.7,0.3
	c0.5,0.2,1,0.5,1.4,1c0.4,0.4,0.8,0.9,1,1.4c0.2,0.5,0.3,1.1,0.3,1.6s-0.1,1.1-0.3,1.6s-0.5,1-1,1.4c-0.4,0.4-0.9,0.8-1.4,1
	c-0.5,0.2-1.1,0.3-1.7,0.3c-0.5,0-1.2-0.1-1.7-0.3c-0.5-0.2-1-0.5-1.4-1c-0.4-0.4-0.8-0.9-1-1.4c-0.2-0.5-0.3-1.1-0.3-1.6
	s0.1-1.1,0.3-1.6c0.2-0.5,0.5-1,1-1.4c0.4-0.4,0.9-0.8,1.4-1C35.2,8.6,35.7,8.5,36.2,8.5"/>
<path class="st1" d="M50.4,98.6c25.5,0,23.9-10.8,23.9-10.8V76.7H49.9v-3.3h33.9c0,0,16.2,1.8,16.2-23.3S85.8,25.8,85.8,25.8h-8.5
	v11.6c0,0,0.4,13.9-14,13.9h-24c0,0-13.5-0.2-13.5,12.8v21.5C25.8,85.6,23.8,98.6,50.4,98.6 M63.8,91.1c-0.5,0-1.2-0.1-1.7-0.3
	c-0.5-0.2-1-0.5-1.4-1c-0.4-0.4-0.8-0.9-1-1.4s-0.3-1.1-0.3-1.6c0-0.5,0.1-1.1,0.3-1.6c0.2-0.5,0.5-1,1-1.4c0.4-0.4,0.9-0.8,1.4-1
	c0.5-0.2,1.1-0.3,1.7-0.3c0.5,0,1.2,0.1,1.7,0.3c0.5,0.2,1,0.5,1.4,1s0.8,0.9,1,1.4c0.2,0.5,0.3,1.1,0.3,1.6c0,0.5-0.1,1.1-0.3,1.6
	c-0.2,0.5-0.5,1-1,1.4s-0.9,0.8-1.4,1C64.9,91,64.3,91.1,63.8,91.1"/>
</svg>
