<?xml version="1.0" encoding="utf-8"?>
<!-- Generator: Adobe Illustrator 24.0.2, SVG Export Plug-In . SVG Version: 6.00 Build 0)  -->
<svg version="1.1" id="Capa_1" xmlns="http://www.w3.org/2000/svg" xmlns:xlink="http://www.w3.org/1999/xlink" x="0px" y="0px"
	 viewBox="0 0 100 100" style="enable-background:new 0 0 100 100;" xml:space="preserve">
<path d="M24.9,47.5c-0.4-0.3-0.8-0.4-1.2-0.7C16.5,39.6,9.3,32.4,2.1,25.3c-2.8-2.8-2.8-5.5,0-8.3c0.7-0.7,1.5-1.5,2.2-2.2
	c2.5-2.5,5.3-2.5,7.8,0c8.2,8.1,16.3,16.3,24.4,24.4c1.6,1.6,3.2,3.2,4.7,4.7c2.4,2.4,2.4,5.2,0,7.6C31.6,61.4,21.8,71.1,12,80.9
	c-2.4,2.4-5.2,2.4-7.6,0c-0.8-0.8-1.7-1.7-2.5-2.5c-2.5-2.5-2.5-5.3,0-7.9c4.5-4.6,9.2-9.2,13.8-13.8c2.6-2.6,5.4-5.4,8-8
	C24.1,48.4,24.4,48.1,24.9,47.5z"/>
<path d="M64.3,87.6c-10,0-20,0-29.9,0c-3.9,0-5.8-1.8-5.8-5.8c0-1.2,0-2.3,0-3.4c0.1-2.5,1.8-4.4,4.3-4.7c0.5-0.1,1.1-0.1,1.6-0.1
	c19.8,0,39.7,0,59.5,0c1.2,0,2.5,0.3,3.6,0.7c1.5,0.6,2.2,2.1,2.3,3.7c0.1,1.6,0.1,3.3,0,4.8c-0.2,2.8-2.2,4.6-5.1,4.6
	c-3.6,0-7.2,0-10.7,0C77.6,87.6,70.9,87.6,64.3,87.6z"/>
</svg>
