<?xml version="1.0" encoding="utf-8"?>
<!-- Generator: Adobe Illustrator 24.0.2, SVG Export Plug-In . SVG Version: 6.00 Build 0)  -->
<svg version="1.1" id="Capa_1" xmlns="http://www.w3.org/2000/svg" xmlns:xlink="http://www.w3.org/1999/xlink" x="0px" y="0px"
	 viewBox="0 0 100 100" style="enable-background:new 0 0 100 100;" xml:space="preserve">
<style type="text/css">
	.st0{fill:#132035;}
	.st1{fill:#FFFFFF;}
</style>
<path d="M0,50v50h100V0H0V50z M80.6,45.9c2.5,0.6,4.4,1.8,6.2,3.8c1,1,2.1,2.8,2.5,3.1c0,0-4.4,3.1-6.9,4.7c0,0-0.6-0.3-1-1
	c-1.2-1.8-2.5-2.8-4.6-2.8c-3.1-0.3-5,1.3-5,4.1c0,0.6,0,1.3,0.3,1.8c0.6,1.3,1.8,2.1,5.9,3.8c7.2,3.1,10.3,5,12.2,8.2
	c2.1,3.1,2.5,8.5,1.3,12.2c-1.6,4.1-5.6,6.9-10.9,7.8C79,92,75,92,73.1,91.6c-4.1-0.6-7.8-2.8-10.3-5.3c-1-1-2.8-3.8-2.5-3.8
	c0,0,0.3-0.3,1-0.6c0.6-0.3,2.1-1.3,3.8-2.1l2.8-1.6l0.6,1c1,1.3,2.8,3.1,3.8,3.8c3.1,1.6,7.5,1.6,9.7-0.6c1-0.6,1.3-1.8,1.3-3.1
	c0-1.3,0-1.6-0.6-2.5c-0.6-1.3-2.5-2.1-6.9-4.1c-5.3-2.1-7.5-3.8-9.3-5.9c-1.3-1.6-2.1-3.1-2.8-5c-0.3-1.6-0.6-5-0.3-6.2
	c1-5,4.7-8.5,10.3-9.3C74.7,45.3,78.6,45.6,80.6,45.9L80.6,45.9z M57.1,50.3v4.1H44v36.9h-9V54.4H21.8v-4.1c0-2.1,0-4.1,0-4.1
	s7.8,0,17.5,0h17.5L57.1,50.3z"/>
<path class="st0" d="M-139,56.4c-0.1-1.7-0.1-3.5,0.9-4.8c1.9-2.3,5.8-1.6,7.9,0.5c2.1,2.1,3.3,4.9,5.2,7.3c1.9,2.3,5.1,4.2,7.7,2.9
	c2.6-5.4-2.9-11-7.9-14.3c-5-3.3-10.8-8.2-9.1-13.9c4.8-2.3,10.2,1.4,14.1,5c3.9,3.6,8.5,7.9,13.7,6.8c-0.9-10.5-12.1-17-22.4-19.2
	c-3.1-0.7-6.8-1.5-8-4.5c-1.5-3.8,3-7.8,7.1-7.7c4.1,0.1,7.7,2.8,11.2,5.1s7.8,4.1,11.7,2.6c0.5-4.2-3.5-7.5-7.4-9.1
	s-8.3-2.7-10.9-6.1c1.4-4.1,7.5-4,11.3-1.7s7.1,5.8,11.5,6c-2.2-4.4,2.2-10.4,7.1-9.5c-0.3,1.9-0.1,4.1,1.2,5.5
	c2.6,2.6,7,0.7,9.8-1.8c2.8-2.4,5.9-5.4,9.5-4.5c3.8,1,5.1,6.2,3.4,9.7s-5.3,5.8-8.6,7.8c6.4,3.5,14.3-0.2,21.7,0.1
	c1,0,2.1,0.2,2.9,0.8c0.9,0.7,1.4,1.8,1.6,2.9c0.8,4.4-2.1,9.1-6.3,10.4c-3.6,1.2-7.6,0-11.4,0s-8.4,2-8.6,5.8
	c-0.2,4.6,5.8,6.7,10.4,6.3s9.8-1.7,13.4,1.2c4.1,3.4,1.8,11.4-3.5,12c-2,0.3-3.9-0.4-5.8-1c-4.9-1.5-9.7-3.1-14.6-4.6
	c0.3,5.7,4.1,11,9.4,13c5.3,2,12.9,2.2,14.2,7.7c0.7,3.1-1.5,6.4-4.5,7.7c-3,1.3-6.3,1.2-9.5,0.7c-3.7-0.6-7.5-1.7-10-4.3
	c-2.7-2.8-3.5-6.9-5.8-10.1c-2.3-3.1-7.8-4.7-9.8-1.3c-1.7,2.7,0.4,6.1,2.1,8.8c1.7,2.7,2.6,7-0.2,8.5c-5.3,2.9-7.8-7.2-11.6-8.6
	c-6.1-2.1-7.4,5.2-12.5,6.3C-129.1,82.8-138.2,64.7-139,56.4z"/>
<circle class="st1" cx="-97.9" cy="28.3" r="8"/>
<circle class="st1" cx="-93.5" cy="49.9" r="3.9"/>
</svg>
