<?xml version="1.0" encoding="utf-8"?>
<!-- Generator: Adobe Illustrator 24.0.2, SVG Export Plug-In . SVG Version: 6.00 Build 0)  -->
<svg version="1.1" id="Capa_1" xmlns="http://www.w3.org/2000/svg" xmlns:xlink="http://www.w3.org/1999/xlink" x="0px" y="0px"
	 viewBox="0 0 100 100" style="enable-background:new 0 0 100 100;" xml:space="preserve">
<path d="M45.3,27.6c0,3.7,0,7.5,0,11.2c0,1.5-0.5,2.4-1.9,3c-6,2.9-12,6-17.9,9c-0.9,0.5-1.8,0.5-2.7,0c-6-3-12.1-6.1-18.1-9.1
	C3.5,41.2,3,40.3,3,39.1c0-7.6,0-15.2,0-22.7c0-1.3,0.5-2.1,1.6-2.6c6.1-3,12.2-6.1,18.3-9.1c0.9-0.4,1.7-0.4,2.5,0
	c6.1,3.1,12.2,6.1,18.3,9.2c1,0.5,1.5,1.3,1.5,2.5C45.2,20,45.2,23.8,45.3,27.6C45.3,27.6,45.3,27.6,45.3,27.6z M7.7,19.8
	c0,0.2-0.1,0.2-0.1,0.3c0,5.8,0,11.6,0,17.4c0,0.5,0.2,0.7,0.6,0.8c3.1,1.5,6.2,3.1,9.3,4.6c1.4,0.7,2.8,1.4,4.3,2.1
	c0-0.4,0-0.7,0-0.9c0-5.2-0.1-10.4,0-15.6c0-1.3-0.4-1.9-1.5-2.5C16.1,24,12,21.9,7.7,19.8z M26.5,45c0.3-0.1,0.4-0.2,0.5-0.2
	c4.4-2.2,8.7-4.4,13.1-6.5c0.5-0.2,0.6-0.5,0.6-1c0-5.6,0-11.1,0-16.7c0-0.3,0-0.6,0-1c-1.5,0.7-2.8,1.4-4.1,2.1
	c-3.1,1.6-6.3,3.2-9.4,4.7c-0.5,0.2-0.6,0.5-0.6,1c0,5.6,0,11.2,0,16.7C26.5,44.5,26.5,44.7,26.5,45z M10.7,15.9
	c0.1,0.1,0.1,0.1,0.2,0.2c4.3,2.1,8.6,4.3,12.9,6.4c0.2,0.1,0.6,0.1,0.9,0c3-1.5,6-3,8.9-4.5c1.3-0.7,2.6-1.3,4-2
	c-0.2-0.1-0.3-0.2-0.4-0.3c-4.2-2.1-8.5-4.2-12.7-6.3c-0.2-0.1-0.6-0.1-0.8,0.1c-1.8,0.9-3.5,1.7-5.3,2.6
	C15.8,13.3,13.3,14.6,10.7,15.9z"/>
<path d="M97,74.7c0,3.9,0,7.7,0,11.6c0,1.1-0.4,1.8-1.4,2.3C89.4,91.7,83.2,94.9,77,98c-0.8,0.4-1.6,0.3-2.4-0.1
	c-4.4-2.2-8.8-4.4-13.2-6.6c-1.7-0.9-3.5-1.7-5.2-2.6c-1-0.5-1.4-1.3-1.4-2.4c0-7.7,0-15.4,0-23.1c0-1.1,0.5-1.9,1.5-2.4
	c6.1-3,12.2-6.1,18.3-9.1c1-0.5,1.8-0.5,2.8,0c5.9,3,11.9,6,17.9,8.9c1.3,0.6,1.9,1.5,1.9,3C97,67.3,97,71,97,74.7z M59.5,66.8
	c0,0.2-0.1,0.2-0.1,0.3c0,5.8,0,11.7,0,17.5c0,0.3,0.3,0.6,0.6,0.7c3.1,1.6,6.1,3.1,9.2,4.6c1.4,0.7,2.8,1.4,4.3,2.1
	c0-0.2,0-0.3,0-0.4c0-5.8,0-11.6,0-17.4c0-0.5-0.3-0.6-0.6-0.8c-2.4-1.2-4.8-2.4-7.2-3.6C63.7,68.9,61.6,67.9,59.5,66.8z M92.3,66.7
	c-1.1,0.6-2.1,1.1-3.1,1.6c-3.4,1.7-6.9,3.5-10.4,5.2c-0.5,0.2-0.7,0.5-0.7,1c0,5.7,0,11.3,0,17c0,0.2,0,0.3,0.1,0.5
	c0.1,0,0.2,0,0.3-0.1c4.4-2.2,8.8-4.4,13.3-6.6c0.4-0.2,0.5-0.5,0.5-0.9c0-4.9,0-9.8,0-14.6C92.3,68.8,92.3,67.8,92.3,66.7z
	 M89.3,63c-0.1-0.1-0.2-0.1-0.3-0.2c-4.3-2.2-8.6-4.3-12.9-6.5c-0.2-0.1-0.5,0-0.7,0.1c-4.1,2-8.3,4.1-12.4,6.2
	c-0.2,0.1-0.4,0.2-0.7,0.4c4.4,2.2,8.8,4.4,13.1,6.5c0.3,0.1,0.7,0.1,1-0.1c2.6-1.3,5.2-2.6,7.8-3.9c1.4-0.7,2.9-1.4,4.3-2.1
	C88.8,63.3,89.1,63.2,89.3,63z"/>
<path d="M73.5,27.7c-2.8,0-5.5,0-8.2,0c-2.7,0-5.5,0-8.2,0c-1.4,0-2.5-1-2.5-2.3c0-1.3,1-2.4,2.4-2.4c1.8,0,3.6,0,5.5,0
	c4.3,0,8.6,0,13,0c1.7,0,2.7,0.9,2.7,2.7c0,4.5,0,9,0,13.6c0,1.6-0.9,2.6-2.3,2.6c-1.4,0-2.3-1-2.3-2.6c0-3.5,0-7,0-10.5
	C73.5,28.4,73.5,28.1,73.5,27.7z"/>
<path d="M26.5,74.7c1.2,0,2.3,0,3.3,0c4.3,0,8.7,0,13,0c1.3,0,2.3,0.9,2.4,2.1c0.1,1.2-0.6,2.3-1.7,2.5c-0.2,0.1-0.5,0.1-0.7,0.1
	c-6.2,0-12.4,0-18.6,0c-1.5,0-2.5-0.9-2.5-2.5c0-4.6,0-9.2,0-13.8c0-1.4,1-2.5,2.3-2.5c1.4,0,2.4,1,2.4,2.5c0,3.6,0,7.2,0,10.8
	C26.5,74.1,26.5,74.4,26.5,74.7z"/>
</svg>
