<?xml version="1.0" encoding="utf-8"?>
<!-- Generator: Adobe Illustrator 24.0.2, SVG Export Plug-In . SVG Version: 6.00 Build 0)  -->
<svg version="1.1" id="Capa_1" xmlns="http://www.w3.org/2000/svg" xmlns:xlink="http://www.w3.org/1999/xlink" x="0px" y="0px"
	 viewBox="0 0 100 100" style="enable-background:new 0 0 100 100;" xml:space="preserve">
<style type="text/css">
	.st0{fill:#4958A3;}
</style>
<path class="st0" d="M42.2,40.2c2.4,2.4,4.6,4.6,7.2,7.3c-1.4,1.2-2.8,2.5-4.2,3.7c-1.3,1.2-1.6,2.3-0.2,3.6
	c3.7,3.6,7.3,7.2,10.9,10.8c1.2,1.2,2.2,1.2,3.5,0c9.8-9.8,19.6-19.5,29.4-29.2c1.4-1.4,1.3-2.6-0.1-3.9c-3.5-3.4-7-6.9-10.5-10.5
	c-1.4-1.4-2.5-1.4-3.9,0c-3.4,3.6-6.8,7.1-10.2,10.6c-2.4-2.6-4.6-4.9-6.3-6.8c3.5-3.8,7.3-8.4,11.7-12.4c4.2-3.8,10.3-3.2,14.5,0.7
	c4.3,4,8.5,8.2,12.6,12.5c4.4,4.7,4.3,11.4-0.2,15.9C86.4,52.9,76.2,63.1,65.9,73.1c-4.9,4.8-11.4,4.7-16.4,0
	c-4.1-3.9-8-7.8-11.9-11.9c-4.5-4.7-4.5-11.4,0-16.2C39.1,43.5,40.7,41.9,42.2,40.2z"/>
<path class="st0" d="M58.3,59.9c-2.4-2.5-4.5-4.7-6.9-7.2c1.1-1.1,2.2-2.4,3.4-3.5c1.3-1.2,1.4-2.3,0-3.7c-3.6-3.5-7.2-7-10.7-10.6
	c-1.3-1.3-2.3-1.4-3.6-0.1c-9.8,9.8-19.6,19.5-29.4,29.3c-1.3,1.3-1.3,2.4,0,3.7c3.6,3.5,7.2,7.1,10.7,10.7c1.4,1.4,2.5,1.3,3.9-0.1
	c3.4-3.6,6.9-7.1,10.3-10.6c2.4,2.6,4.5,4.9,6.4,7c-3.5,3.7-7.2,8.1-11.5,12c-4.3,3.9-10.5,3.6-14.8-0.3c-4.4-4.1-8.7-8.3-12.8-12.7
	C-1,69.3-1.1,62.6,3.1,58.2C13.5,47.7,24,37.3,34.6,27c4.3-4.2,10.9-4.1,15.3,0c4.4,4.1,8.6,8.3,12.8,12.7c4.2,4.5,4,11.2-0.1,15.8
	C61.1,56.8,59.8,58.3,58.3,59.9z"/>
</svg>
