<?xml version="1.0" encoding="utf-8"?>
<!-- Generator: Adobe Illustrator 24.0.2, SVG Export Plug-In . SVG Version: 6.00 Build 0)  -->
<svg version="1.1" id="Capa_1" xmlns="http://www.w3.org/2000/svg" xmlns:xlink="http://www.w3.org/1999/xlink" x="0px" y="0px"
	 viewBox="0 0 100 100" style="enable-background:new 0 0 100 100;" xml:space="preserve">
<path d="M88.9,42c-2.3-0.8-3.5-2.1-3.9-4.8c-1.2-8.2-7.6-15.2-15.3-18c-2-0.7-4-1.1-6.1-1.2c-7.4-0.5-19.8,1.2-24.9,14.7
	c-4.3-1.7-10.7,1.2-11.7,5.1c0.6,0,1.3,0,1.9,0c2.5,0,5,0,7.5,0.1c2.2,0,3.2,1.1,3.3,3.3c0,1.8,0,3.6,0,5.4c0.1,7-1.1,6.2,6.2,6.3
	c3.5,0,4,0.5,4,4.1c0,4.2,0,8.4,0,12.6c0,1.3,0.2,2.4,1.9,2.4c6.1-0.1,25.4-0.1,29-0.1c5.7,0,9.8-1.3,13.3-5.3
	C101.8,57.8,97.3,44.9,88.9,42z M64.3,22.3c-0.2-0.6-0.3-1.1-0.4-1.7C64,21.2,64.1,21.7,64.3,22.3z"/>
<path d="M47.3,56.8c0-1.1-0.5-1.8-1.7-1.8c-4.4,0-8.7,0-13.1,0c-1.4,0-2.3,0.7-2.2,2.4c0.1,2.1,0,4.1,0,6.2c0,0,0,0,0,0
	c0,2.2,0,4.4,0,6.6c0,1.3,0.5,1.8,1.8,1.8c4.4,0,8.9,0,13.3,0c1.2,0,1.8-0.5,1.8-1.8C47.3,65.8,47.3,61.3,47.3,56.8z"/>
<path d="M35.2,53.2c1.2,0,1.9-0.5,1.9-1.8c0-3.1,0-6.3,0-9.4c0-1.1-0.5-1.6-1.6-1.6c-3.1,0-6.1,0-9.2,0c-1.3,0-1.9,0.7-1.8,2.1
	c0.1,1.4,0,2.9,0,4.3c0,6.4,0,6.4,6.5,6.4C32.3,53.2,33.7,53.2,35.2,53.2z"/>
<path d="M14,55c-5.7,0.1-5-0.7-5,4.8c0,5.7-0.9,5,5,5c5.4,0,4.8,0.7,4.9-4.9C18.8,54.9,18.8,54.9,14,55z"/>
<path d="M22.4,48.5c-0.1-4.6,0.7-4.5-4.5-4.5c-5.2,0-4.5,0-4.5,4.5c-0.1,5.4,0.1,4.4,4.5,4.4C22.8,52.9,22.3,53.6,22.4,48.5z"/>
<path d="M24.6,55.3c-4.2,0-3.8-0.2-3.8,4.5c0,2.8,0.1,2.9,3.1,2.9c4.5,0,4.5,0,4.5-3.7C28.3,55.3,28.3,55.3,24.6,55.3z"/>
<path d="M11.6,49.8c0-3.8,0-3.8-3-3.8c-3.9,0-3.9,0-3.9,2.9c0,4,0,4,3.2,4C11.6,53,11.6,53,11.6,49.8z"/>
<path d="M25.7,64.6c-1.7,0-2.6,0.5-2.6,2.4c0.1,1.9,0.5,3,2.6,2.6c2.1,0.4,2.5-0.7,2.6-2.6C28.4,65,27.4,64.6,25.7,64.6z"/>
<path d="M5,55c-1.5-0.2-2.2,0.4-2.2,2c0,1.4,0.3,2.3,2,2.3c1.5,0,2.2-0.5,2.2-2.1C7,55.8,6.7,54.8,5,55z"/>
</svg>
