<?xml version="1.0" encoding="utf-8"?>
<!-- Generator: Adobe Illustrator 24.0.2, SVG Export Plug-In . SVG Version: 6.00 Build 0)  -->
<svg version="1.1" id="Capa_1" xmlns="http://www.w3.org/2000/svg" xmlns:xlink="http://www.w3.org/1999/xlink" x="0px" y="0px"
	 viewBox="0 0 100 100" style="enable-background:new 0 0 100 100;" xml:space="preserve">
<style type="text/css">
	.st0{fill:#FF0077;}
	.st1{fill:#7700FF;}
</style>
<path class="st0" d="M95.6,63.2c-0.8-4.6-2.9-8.7-5.5-12.4c-0.4-0.6-0.4-0.9,0-1.5c1.6-2.2,2.9-4.5,3.9-6.9c1.2-2.8,2-5.8,1.7-8.9
	c0-0.4,0-0.8,0-1.2c-0.5-4.7-3-8.1-7-10.6c-0.5-0.3-0.9-0.6-1.1-1.2c-1.1-3.1-4.5-4.2-7.2-2.3c-0.4,0.3-0.8,0.4-1.3,0.3
	c-3.2-0.5-6.5-0.5-9.7-0.3c-0.1-0.2-0.3-0.4-0.4-0.6c-2.2-5.5-5.2-10.4-10-14.1C56.4,1.3,53.4,0,50,0c-5.5-0.1-9.6,2.6-13,6.6
	c-0.3,0.2-1.5,1.6-1.7,2c-0.8,1.1-1.6,2.2-2.2,3.4c-0.7,1-2.5,5-2.7,5.4c-0.2,0.6-0.6,0.7-1.3,0.7c-3.5-0.2-6.9-0.1-10.3,0.5
	c-0.6,0.1-1,0-1.5-0.4c-1.4-1.2-3.1-1.5-4.8-0.8s-2.7,2.1-2.9,4c0,0.6-0.2,0.9-0.7,1.3c-4.4,3.6-6,8.3-5.2,13.9
	c0.7,4.7,2.8,8.8,5.5,12.6c0.4,0.6,0.5,1,0,1.6c-2.2,3.1-4.1,6.5-5,10.3c-1.6,6.4-0.4,12,5,16.3c0.4,0.3,0.4,0.6,0.5,1
	c0.1,1.9,1.1,3.3,2.9,4.1c1.8,0.7,3.5,0.5,4.9-0.8c0.3-0.3,0.6-0.5,1.1-0.4c3.5,0.7,7,0.8,10.5,0.6c0.7,0,1,0.2,1.3,0.8
	c1.3,3,2.7,5.8,4.7,8.4c0.6,0.9,1.3,1.8,2.1,2.6c3.3,3.7,7.3,6.3,12.5,6.4c4.8,0,8.5-2.3,11.8-5.5c3.3-3.4,5.6-7.4,7.5-11.7
	c0.3-0.7,0.6-0.9,1.4-0.9c3,0.2,6,0.1,8.9-0.3c0.5-0.1,0.8,0.1,1.2,0.3c2.8,1.9,6.1,0.9,7.3-2.3c0.2-0.6,0.5-0.9,1-1.2
	C94.1,75.1,96.7,69.5,95.6,63.2z M71.7,21.7c0.7,0,1.4,0,2.1,0l0,0c0.7,0,1.3,0,2,0c1.5,0.1,2.7,0.1,3.3,2.1c0.9,3,4.8,3.7,7.2,1.6
	c0.6-0.5,0.9-0.5,1.5-0.1c3.9,2.8,5.4,7.4,3.9,12.7c-0.8,3-2.3,5.7-4,8.3c-0.4,0.5-0.6,0.6-1,0.1c-3.6-4.2-7.7-7.8-12.2-11
	c-0.5-0.3-0.6-0.7-0.7-1.3c-0.6-4-1.6-7.8-2.8-11.6C70.7,21.7,71,21.6,71.7,21.7z M74.8,56.8c0-0.3,0-0.6,0-0.9
	c0.5-5.2,0.2-10.5-0.2-15.7c0.5-0.1,0.7,0.3,0.9,0.5c3.2,2.5,6.1,5.3,8.8,8.4c0.5,0.6,0.6,0.9,0.1,1.5c-2.9,3.3-6.1,6.3-9.8,9.2
	C74.7,58.7,74.7,57.8,74.8,56.8L74.8,56.8z M67.5,23.4c0.8,2.8,1.7,5.6,2.2,8.7c-4.7-2.9-9.4-5.4-14.6-7.6c3.8-1.2,7.4-1.9,11-2.5
	C67.3,21.8,67.1,22.9,67.5,23.4z M34.6,16.6c1-1.7,2-3.4,3-5c0.4-0.6,0.8-1.1,1.2-1.7l0,0l0,0c0.5-0.5,1-1.1,1.4-1.6
	c1.1-1,2.2-2.1,3.6-2.9c3.9-2.3,7.8-2.4,11.7,0c1.6,1,3,2.2,4.3,3.7c2.3,2.6,4,5.6,5.5,8.7c0.2,0.5,0.4,0.8-0.4,0.9
	c-5,0.7-9.8,1.9-14.6,3.6c-0.4,0.1-0.7,0.1-1.1,0c-4.9-1.7-10-3-15.2-3.7C33.9,17.8,34.5,17.3,34.6,16.6z M32.2,22.7
	c0.1-0.4,0.2-0.7,0.7-0.6c3.8,0.5,7.5,1.3,11.4,2.5c-5.1,2.2-9.9,4.6-14.6,7.7C30.3,28.8,31.1,25.7,32.2,22.7z M7.2,35.3
	c-0.4-3.6,0.7-6.7,3.4-9.2c0.4-0.4,0.8-0.5,1.4-0.2c2.8,1.5,6,0.2,6.8-2.8c0.2-0.7,0.5-0.9,1.1-1c1.9-0.3,3.8-0.4,5.7-0.5
	c0.5,0,0.9,0,1.4,0c0.2,0,0.4,0.1,0.6,0c0.8-0.1,1,0.1,0.7,1c-1.3,3.7-2.2,7.5-2.8,11.4c-0.1,0.6-0.3,1.1-0.9,1.5
	c-4.4,3.2-8.5,6.7-12,10.8c-0.3,0.4-0.6,0.7-1,0.1C9.4,43,7.6,39.5,7.2,35.3z M24.8,60c-1.3-1-2.3-1.9-3.3-2.8
	c-2.4-2.1-4.6-4.3-6.6-6.6c-0.3-0.3-0.5-0.6-0.1-1.1c2.9-3.4,6.2-6.4,9.7-9.2c0,0,0.1,0,0.3,0C24.1,46.8,24.1,53.2,24.8,60z
	 M27.8,78.3c-0.7,0-1.4,0-2.1,0c-1.9,0-3.8-0.2-5.7-0.5c-0.6-0.1-0.9-0.3-1.1-1c-0.9-3-4-4.4-6.8-2.8c-0.6,0.3-0.9,0.2-1.4-0.2
	c-3.5-3.2-4.1-7.2-3-11.6c0.8-3.2,2.3-6,4.1-8.7c0.3-0.5,0.5-0.5,0.9,0c3.6,4.2,7.8,7.8,12.3,11c0.4,0.3,0.6,0.7,0.7,1.2
	c0.6,4,1.6,7.9,2.8,11.7C28.6,78.2,28.5,78.4,27.8,78.3z M32.2,77.3c-1-3-1.9-6.1-2.5-9.5c4.7,2.9,9.4,5.4,14.6,7.6
	c-3.9,1.2-7.5,1.9-11.3,2.4C32.5,78,32.3,77.8,32.2,77.3z M65.3,82.1c-1.9,4.1-4.2,7.9-7.6,10.9c-2.7,2.4-5.7,3.8-9.5,3.3
	c-1.3-0.2-2.6-0.6-3.8-1.3c-5.3-3.1-8.1-8.1-10.7-13.5c5.4-0.8,10.4-2,15.4-3.8c0.4-0.1,0.8-0.1,1.1,0.1c4.7,1.6,9.5,2.9,14.5,3.6
	C65.2,81.4,65.6,81.4,65.3,82.1z M67.1,77.4c-0.2,0.5-0.5,0.5-0.9,0.5c-3.7-0.5-7.3-1.3-11.2-2.4c5.2-2.2,9.9-4.7,14.6-7.6
	C69.1,71.2,68.2,74.4,67.1,77.4z M69.8,63.5c-2.7,1.8-5.5,3.4-8.3,5c-1,0.5-2.1,1.1-3.1,1.6c-0.2,0.1-0.5,0.2-0.7,0.3
	c-1,0.5-2,0.9-2.9,1.4c-1.4,0.6-2.8,1.1-4.2,1.7c-0.5,0.2-1,0.2-1.6,0c-6.8-2.6-13.2-5.9-19.3-9.9c-1-0.6-0.8-1.5-1.1-2.3
	c0-0.2,0-0.3,0-0.5C28,56,27.8,51.3,28,46.6c0.1-2.9,0.4-5.9,0.7-8.8c0.1-0.5,0.2-0.8,0.7-1.1c6.2-4.1,12.7-7.5,19.7-10.2
	c0.5-0.2,0.9-0.1,1.3,0c6.9,2.6,13.4,6,19.6,10.1c0.5,0.3,0.6,0.7,0.7,1.2c0.7,5.4,1.1,11.6,0,24C70.6,62.7,70.3,63.1,69.8,63.5z
	 M87.8,74.7c-0.5,0.4-0.9,0.5-1.5,0c-2.8-2.4-6.9-1-7.7,2.6c-0.1,0.5-0.2,0.8-0.8,0.9c-2.1,0.2-4.2,0.3-6.3,0.2
	c-0.6,0-0.8-0.1-0.6-0.7c1.3-3.9,2.2-8,2.9-12.1c0.1-0.4,0.3-0.7,0.6-0.9c4.5-3.2,8.6-6.9,12.3-11c0.2-0.3,0.4-0.7,0.8-0.1
	c2.5,3.8,4.5,7.8,4.7,12.2C92.2,69.6,90.7,72.5,87.8,74.7z"/>
<path class="st1" d="M49.8,44c-3.8,0-7.4-0.6-10.5-2.9c-1-0.7-1-1.4-0.5-2.3c0.5-0.9,1.3-1.5,2.2-1.9c3.2-1.6,6.6-1.9,10.1-1.8
	c2.6,0.1,5.1,0.5,7.5,1.8c0.8,0.4,1.6,1,2.1,1.8c0.6,1,0.4,1.7-0.5,2.4C57,43.5,53.4,44,49.8,44z"/>
<path class="st1" d="M38.5,45.1c7.4,3.4,14.8,3.4,22.4,0c0,1.8,0,3.6,0,5.4c0,0.6-0.5,1.1-1,1.5c-3.6,2.4-7.6,2.8-11.8,2.6
	c-3-0.2-5.9-0.7-8.4-2.5c-0.7-0.5-1.1-1.1-1.1-2C38.6,48.3,38.5,46.7,38.5,45.1z"/>
<path class="st1" d="M60.9,55.6c0,1.6,0.1,3.1,0,4.7c-0.1,1.1-1,1.8-1.9,2.4c-2,1.3-4.3,1.8-6.6,2c-3.4,0.3-6.9,0.2-10.2-1.1
	c-0.8-0.3-1.6-0.7-2.3-1.2c-1-0.7-1.6-1.6-1.5-3c0.1-1.2,0-2.5,0-3.8C45.9,58.9,53.4,59,60.9,55.6z"/>
</svg>
