<?xml version="1.0" encoding="utf-8"?>
<!-- Generator: Adobe Illustrator 24.0.2, SVG Export Plug-In . SVG Version: 6.00 Build 0)  -->
<svg version="1.1" id="Capa_1" xmlns="http://www.w3.org/2000/svg" xmlns:xlink="http://www.w3.org/1999/xlink" x="0px" y="0px"
	 viewBox="0 0 100 100" style="enable-background:new 0 0 100 100;" xml:space="preserve">
<style type="text/css">
	.st0{fill:#B7CE38;}
	.st1{fill:#7EBA28;}
	.st2{fill:#2E86C8;}
	.st3{fill:#1F71B8;}
</style>
<path class="st0" d="M76.4,16.4c4.6-1.7,7.4-3.9,7.4-6.3C83.7,4.4,68.7,0,50.1,0S16.5,4.6,16.5,10.1c0,2.4,2.7,4.6,7.4,6.3
	c6.2-2.3,15.6-3.8,26.2-3.8C60.7,12.6,70.2,14.1,76.4,16.4"/>
<path class="st1" d="M76.4,16.4c-6.2-2.3-15.6-3.8-26.2-3.8S30,14.1,23.9,16.4c6.2,2.3,15.6,3.8,26.2,3.8S70.2,18.7,76.4,16.4"/>
<g>
	<path class="st2" d="M50,24.8v15.3c2.7-0.1,5.4-0.3,7.9,0.9c5.1,2.4,7.2,6.6,7.4,11.9c0.2,5.9-2,11-8,13.7c2.2,2,4.2,3.9,6.2,5.9
		c0.4,0.4,1.2,0.5,1.1,1.4c-2.3,0-4.7,0-7,0c-1.6-1.3-2.8-2.8-4.1-4.4c-0.9-1.2-2-1.8-3.4-2v2.9v29.6c23.3,0,42.2-6.6,42.2-14.9
		V10.1C92.1,18.2,73.2,24.8,50,24.8z M85.5,67.1H70c-0.1-0.1-0.2-0.2-0.2-0.2c0-8.8,0-17.7,0.1-26.5c0.1,0,0.3,0,0.4-0.1h0.1
		l0.2,0.1h4.7h0.1h0.1c0.1,0.1,0.2,0.2,0.3,0.3v21.1c0.3,0.7,0.9,0.3,1.4,0.3c2.4,0,4.8,0.1,7.2,0c1,0,1.3,0.3,1.2,1.2
		C85.5,64.6,85.5,65.9,85.5,67.1z"/>
	<path class="st2" d="M57.7,59.5c2.1-3.5,2-7.3,0.3-10.8c-1.5-3.2-4.8-4.3-8-2.9v16.1C52.8,63.1,56.1,62.3,57.7,59.5z"/>
</g>
<g>
	<path class="st3" d="M49.7,67.4c-6.2-1.3-10.1-6.1-10.3-12.4c-0.2-5,1.1-9.3,5.3-12.6c1.4-1.1,2.9-1.6,4.7-2.1
		c0.1-0.1,0.2-0.1,0.3-0.2c0.1,0,0.2,0,0.3,0V24.8c-23.3,0-42.2-6.6-42.2-14.8v75.1C7.8,93.3,26.7,100,50,100V70.3v-2.9
		C49.9,67.4,49.8,67.4,49.7,67.4z M36.7,60.3c-0.2,3-1.8,5.1-4.6,6.3c-1.2,0.5-2.4,0.8-3.6,0.9c-2.8,0.3-5.4,0.1-8.1-1
		c-0.7-0.2-1-0.5-0.9-1.3c0-1.5,0-3.1,0-4.9c2,1.4,3.8,2.4,6,2.6c1.1,0.1,2.1,0.1,3-0.3c2-0.8,2.5-2.9,1-4.3
		c-0.8-0.8-1.7-1.3-2.7-1.7c-1.5-0.8-3.1-1.5-4.4-2.6c-2.3-1.8-3.4-4.2-2.9-7.2c0.4-3,2.3-5,5.1-6c3.4-1.2,6.8-0.9,10.3,0
		c0.5,0.1,0.8,0.3,0.8,1c0,1.5,0,3,0,4.8c-2.2-1.2-4.3-2-6.6-1.7c-1.4,0.1-2.7,0.5-3.1,2.1c-0.4,1.5,0.4,2.6,1.6,3.4
		c2.1,1.3,4.2,2.1,6.2,3.5C35.9,55.3,36.9,57.5,36.7,60.3z"/>
	<path class="st3" d="M45.8,55.7c0.4,2.6,1.2,4.9,3.9,6c0.1,0.1,0.2,0.1,0.3,0.1V45.8c-0.2,0.1-0.4,0.2-0.7,0.3
		C46.4,47.8,45,51.6,45.8,55.7z"/>
</g>
</svg>
