<?xml version="1.0" encoding="utf-8"?>
<!-- Generator: Adobe Illustrator 24.0.2, SVG Export Plug-In . SVG Version: 6.00 Build 0)  -->
<svg version="1.1" id="Capa_1" xmlns="http://www.w3.org/2000/svg" xmlns:xlink="http://www.w3.org/1999/xlink" x="0px" y="0px"
	 viewBox="0 0 100 100" style="enable-background:new 0 0 100 100;" xml:space="preserve">
<style type="text/css">
	.st0{fill:#E77D0F;}
	.st1{fill:#275887;}
</style>
<path class="st0" d="M56.7,10.4c10.6,8.2,21.5,16.4,32.1,24.8c5.6,4.5,9.5,10.4,10.6,17.5c1.2,7.9,0.1,10.7,0,11.3
	c-1,5.1-3.3,9.7-6.7,13.6c-8.6,9.7-19.6,13.5-32.3,12.1c-18.3-2-31.1-17.4-29.7-31.5c-0.7,0.1-1.1,0.7-1.6,1.1
	c-5.7,4.6-11.3,9.3-17,13.9c-1.3,1-2.6,1.9-4.3,2.4c-2.6,0.7-5.3,0-6.7-1.9c-1.5-2.2-1.2-4.5,0-6.7c0.8-1.4,2-2.4,3.3-3.5
	c11-8.5,22-16.8,33-25.3c0.5-0.4,1-0.9,1.6-1.4c-0.4-0.1-0.5-0.2-0.6-0.2c-5.9,0-11.7,0-17.6,0c-1,0-2,0-3-0.2
	c-3.6-0.9-4.7-4.3-2.2-7c1.7-1.9,3.9-2.6,6.4-2.6c12.2,0,24.3,0,36.6,0c0.7,0,1.4,0.3,2.1-0.3c-0.6-0.5-1.1-1-1.7-1.4
	c-3.5-2.9-7-5.7-10.5-8.6c-2.4-2-1.8-4.4,0.6-6.3C51.4,8.1,55.1,9.3,56.7,10.4z M63.9,36.8c-1.7-0.1-4.7,0.5-7.5,1.7
	C42.6,44.2,39.8,60.9,51,70.2c8.5,6.9,21.5,6.5,29.4-1c7.8-7.3,7.8-19,0.1-26.4C76.3,38.7,71.1,36.8,63.9,36.8z"/>
<path class="st1" d="M65.2,43.1c4.2,0,7.6,1.3,10.5,4.2c4.6,4.7,4.5,11.6-0.2,16.3c-5.4,5.4-14.7,5.4-20,0
	c-3.3-3.4-4.5-7.3-2.9-11.9c1.8-5.1,5.8-7.5,10.9-8.4C64.3,43.1,64.9,43.2,65.2,43.1z"/>
</svg>
