<?xml version="1.0" encoding="utf-8"?>
<!-- Generator: Adobe Illustrator 24.0.2, SVG Export Plug-In . SVG Version: 6.00 Build 0)  -->
<svg version="1.1" id="Capa_1" xmlns="http://www.w3.org/2000/svg" xmlns:xlink="http://www.w3.org/1999/xlink" x="0px" y="0px"
	 viewBox="0 0 100 100" style="enable-background:new 0 0 100 100;" xml:space="preserve">
<style type="text/css">
	.st0{fill:#4958A3;}
	.st1{fill:#656B9D;}
	.st2{fill:#F3F4F7;}
</style>
<path class="st0" d="M70,9.7c0,0.2-0.1,0.5-0.3,0.8c0,0.1-0.1,0.3-0.2,0.4c-0.2,0.5-0.6,1.2-1.3,1.9C68.2,12.9,68.1,13,68,13
	c-4.5,8-17.6,11.8-25.7,16.2c-9.2,5-14.4,24.1-2.1,33.1c12.5,9,28.4,4.6,34.2-13c5.2-15.9,10.3-18,11.2-18.3c0.2-0.4,0.4-0.7,0.7-1
	c0.3-0.4,0.6-0.7,1-1c0,0,0.1,0,0.1-0.1c0.1-0.1,0.3-0.2,0.4-0.3C83.2,15.7,72.6,10.8,70,9.7z"/>
<path class="st1" d="M66.4,76.2C57,78.4,47.1,76.6,38.9,72c-3.1-1.8-5.8-3.9-8.3-6.5C24.3,58.9,20.4,50.1,19.8,41
	c-0.2-3.7,0-7.5,0.7-11.1C14.5,35,9.7,42,8.1,51.7c-0.4,2.4-0.6,5.1-0.6,7.9c0,5.9,6.5,30.5,32.8,33c8,0.8,14.7-0.9,20.2-4.2
	c6.2-3.7,11-9.3,14.4-15.3C72.2,74.3,69.3,75.4,66.4,76.2z"/>
<path class="st2" d="M96,30.7c0,0-0.9-2-3.1-2.7c-1.2-0.4-2.9-0.3-5.1,0.7c0,0,0,0,0,0c-0.1,0.1-0.3,0.2-0.4,0.3
	c0.1-0.1,0.3-0.2,0.4-0.3c0.6-0.3,1.4-0.5,2.2-0.4c0,0-0.6,0.2-1.4,0.9c-0.6,0.5-1.2,1.1-1.7,2.1c-0.3,0.4-0.5,0.9-0.7,1.5
	c-1.2,3.6-2.2,9-3.9,18.1c-1,5.6-2.4,13.2-6.6,20.9C73,76.6,69.3,81.5,63.8,86c-0.6,0.5-1.3,1-2,1.5c-14.1,9.6-35,4.8-43.4-4.4
	C9.6,73.5,8.6,66,8.6,66s-1.9-7.2-0.2-15.9c0.7-3.6,2.1-7.5,4.6-11.1c0.2-0.3,0.4-0.6,0.6-0.9c1.8-2.8,4-5.2,6.5-7.3
	c0.5-0.4,0.9-0.8,1.4-1.2c7.1-5.9,15.1-8.9,20.8-10.4c6.6-1.8,18-3.3,24.2-6.7c1-0.5,1.8-1.1,2.5-1.8c0.1-0.1,0.1-0.1,0.2-0.2
	c0.2-0.2,0.4-0.4,0.6-0.7c0,0,0,0.2-0.1,0.6c0.2-0.4,0.2-0.6,0.3-0.8c0-0.2,0-0.3,0-0.3s0.9-1.7,0.3-3.5C70,4.9,69.4,4,68.1,3.1
	c-3.8-2.5-36.8-10.3-56.9,15C6.1,24.6,2.4,32.3,0.9,40.4c-1.4,7.4-1.1,15.2,0.9,22.5C3.7,70.1,7.2,77,12,82.7
	c5.6,6.4,13,11.5,21,14.3c2.3,0.9,4.6,1.5,7,2c9.1,1.9,18.7,1.2,27.4-1.9c1.5-0.5,3.1-1.2,4.5-2c6.7-3.3,12.4-8.1,16.9-13.9
	c1.1-1.4,2.2-2.9,3.2-4.5C99.2,65.3,103.5,49.2,96,30.7z"/>
</svg>
