<?xml version="1.0" encoding="utf-8"?>
<!-- Generator: Adobe Illustrator 24.0.2, SVG Export Plug-In . SVG Version: 6.00 Build 0)  -->
<svg version="1.1" id="Capa_1" xmlns="http://www.w3.org/2000/svg" xmlns:xlink="http://www.w3.org/1999/xlink" x="0px" y="0px"
	 viewBox="0 0 1280 640" style="enable-background:new 0 0 1280 640;" xml:space="preserve">
<style type="text/css">
	.st0{fill:url(#SVGID_1_);}
	.st1{fill:#E3DEDB;}
	.st2{fill:url(#SVGID_2_);}
	.st3{fill:#FF9191;}
	.st4{fill:#FFC700;}
	.st5{fill:#FFDA00;}
	.st6{fill:#FF8A00;}
	.st7{fill:#FFA100;}
</style>
<g transform="rotate(225 241.59 79.103)">
	<g>
		
			<linearGradient id="SVGID_1_" gradientUnits="userSpaceOnUse" x1="-60.3703" y1="-46.1298" x2="-59.6737" y2="-46.1298" gradientTransform="matrix(-457.8816 0 0 450.9464 -13316.9521 34581.043)">
			<stop  offset="0" style="stop-color:#FF9191"/>
			<stop  offset="1" style="stop-color:#B55858"/>
		</linearGradient>
		<path class="st0" d="M244.8-259.4c-60.5-59.4-126.6-91-147.3-70.6c-1.4,1.4-2.6,2.9-3.6,4.7L-37.8-195.9l19.9,19.5l77.3,76
			L84.2-76l97.2,95.5l136-133.6c-0.1-0.2-0.1-0.5-0.2-0.8l-0.2-0.2c0,0,0.1-0.1,0.2-0.2C336.9-136.3,304.7-200.5,244.8-259.4
			L244.8-259.4z"/>
		<path class="st1" d="M-2.3-230.8l-123.1,121L-139.5-96l19.9,19.5L79.7,119.4L217-15.5L107.4-123.2l-89.7-88.2L-2.3-230.8
			L-2.3-230.8z"/>
		<path d="M172.4,28.3L-46.8-187.1l-9.9,9.8l-5,4.9L157.5,43l5-4.9L172.4,28.3L172.4,28.3z"/>
		<path d="M197.3,3.9L-22-211.5l-9.9,9.8l-5,4.9L182.4,18.6l5-4.9C187.3,13.7,197.3,3.9,197.3,3.9z"/>
		<path d="M147.6,52.7L-71.7-162.7l-9.9,9.8l-5,4.9L132.7,67.4l5-4.9L147.6,52.7L147.6,52.7z"/>
		
			<linearGradient id="SVGID_2_" gradientUnits="userSpaceOnUse" x1="186.243" y1="-235.2635" x2="186.5412" y2="-235.2635" gradientTransform="matrix(-1066.2059 0 0 1046.5549 -148388.9531 -93715.5703)">
			<stop  offset="0" style="stop-color:#FFFFFF"/>
			<stop  offset="1" style="stop-color:#FFDD7C"/>
		</linearGradient>
		<path class="st2" d="M-107.4-127.6l-471.2,462.9l-89.1,302.9l27.9-7.9l280.4-79.6L111.9,87.8L69.3,46L54.4,31.4l-39.7-39l-5-4.9
			L-5.2-27.2l-5-4.9l-39.7-39l-14.9-14.6L-87.5-108L-107.4-127.6L-107.4-127.6z"/>
		<path d="M-546.6,603.9l-43.1-42.3l-43.1-42.3l-35,119L-546.6,603.9L-546.6,603.9z"/>
		<path class="st3" d="M317.3-114.9c0.1,0.2,0.1,0.5,0.2,0.8l0.3-0.3L317.3-114.9L317.3-114.9z"/>
		<path class="st4" d="M-107.4-127.6l-471.2,462.9l106.3,3.2l3.3,104.5l106.3,3.2l3.3,104.5L111.9,87.8L57,34L2.2-19.9l-54.8-53.8
			L-107.4-127.6L-107.4-127.6z"/>
		<path class="st5" d="M-107.4-127.6l-471.2,462.9l106.3,3.2L-52.5-73.7L-107.4-127.6L-107.4-127.6z"/>
		<path class="st6" d="M-362.6,446.3l3.3,104.5L111.8,87.8L57,34L-362.6,446.3L-362.6,446.3z"/>
		<path class="st7" d="M-469,443.1l106.3,3.2L57,34L2.2-19.9L-469,443.1L-469,443.1z"/>
	</g>
</g>
</svg>
