<?xml version="1.0" encoding="utf-8"?>
<!-- Generator: Adobe Illustrator 24.0.2, SVG Export Plug-In . SVG Version: 6.00 Build 0)  -->
<svg version="1.1"
	 id="Capa_1" image-rendering="optimizeQuality" text-rendering="geometricPrecision" shape-rendering="geometricPrecision"
	 xmlns="http://www.w3.org/2000/svg" xmlns:xlink="http://www.w3.org/1999/xlink" x="0px" y="0px" viewBox="0 0 460.8 415.2"
	 style="enable-background:new 0 0 460.8 415.2;" xml:space="preserve">
<style type="text/css">
	.st0{fill-rule:evenodd;clip-rule:evenodd;fill:#FBD9CA;stroke:#FBD9CA;stroke-width:0.3105;stroke-miterlimit:10;}
	.st1{fill-rule:evenodd;clip-rule:evenodd;fill:#F6B096;stroke:#F6B096;stroke-width:0.3105;stroke-miterlimit:10;}
	.st2{fill-rule:evenodd;clip-rule:evenodd;fill:#FF9966;stroke:#FF9966;stroke-width:0.3105;stroke-miterlimit:10;}
	.st3{fill-rule:evenodd;clip-rule:evenodd;fill:#FF7070;stroke:#FF7070;stroke-width:0.3105;stroke-miterlimit:10;}
	.st4{fill-rule:evenodd;clip-rule:evenodd;fill:#EA556F;stroke:#EA556F;stroke-width:0.3105;stroke-miterlimit:10;}
	.st5{fill-rule:evenodd;clip-rule:evenodd;fill:#C22134;stroke:#C22134;stroke-width:0.3105;stroke-miterlimit:10;}
	.st6{fill-rule:evenodd;clip-rule:evenodd;fill:#E63737;stroke:#E63737;stroke-width:0.3105;stroke-miterlimit:10;}
	.st7{fill-rule:evenodd;clip-rule:evenodd;fill:#FFCCCC;stroke:#FFCCCC;stroke-width:0.3105;stroke-miterlimit:10;}
	.st8{fill-rule:evenodd;clip-rule:evenodd;fill:#FF9999;stroke:#FF9999;stroke-width:0.3105;stroke-miterlimit:10;}
	.st9{fill-rule:evenodd;clip-rule:evenodd;fill:#F08365;stroke:#F08365;stroke-width:0.3105;stroke-miterlimit:10;}
	.st10{fill-rule:evenodd;clip-rule:evenodd;fill:#7A0000;stroke:#7A0000;stroke-width:0.3105;stroke-miterlimit:10;}
	.st11{fill-rule:evenodd;clip-rule:evenodd;fill:#E51A4B;stroke:#E51A4B;stroke-width:0.3105;stroke-miterlimit:10;}
	.st12{fill-rule:evenodd;clip-rule:evenodd;fill:#FC5353;stroke:#FC5353;stroke-width:0.3105;stroke-miterlimit:10;}
</style>
<g>
	<polygon class="st0" points="80,0 0,109.6 107.4,118 	"/>
	<polygon class="st1" points="80,0 230,118 107.4,118 	"/>
	<polygon class="st2" points="0,109.6 0,238.2 105.3,240.2 107.4,118 	"/>
	<polygon class="st3" points="0,238.2 229.7,415.2 105.3,240.2 	"/>
	<polygon class="st4" points="230,118 107.4,118 105.3,240.2 	"/>
	<polygon class="st5" points="230,118 105.3,240.2 231.7,240.2 	"/>
	<polygon class="st6" points="105.3,240.2 231.7,240.2 229.7,415.2 	"/>
	<polygon class="st7" points="380.7,0 460.8,109.6 353.3,118 	"/>
	<polygon class="st8" points="380.7,0 230.8,118 353.3,118 	"/>
	<polygon class="st9" points="460.8,109.6 460.8,238.2 355.4,240.2 353.3,118 	"/>
	<polygon class="st10" points="460.8,238.2 231.1,415.2 355.4,240.2 	"/>
	<polygon class="st1" points="230.8,118 353.3,118 355.4,240.2 	"/>
	<polygon class="st11" points="230.8,118 355.4,240.2 229,240.2 	"/>
	<polygon class="st12" points="355.4,240.2 229,240.2 231.1,415.2 	"/>
</g>
</svg>
