<?xml version="1.0" encoding="utf-8"?>
<!-- Generator: Adobe Illustrator 24.0.2, SVG Export Plug-In . SVG Version: 6.00 Build 0)  -->
<svg version="1.1" id="Capa_1" xmlns="http://www.w3.org/2000/svg" xmlns:xlink="http://www.w3.org/1999/xlink" x="0px" y="0px"
	 viewBox="0 0 100 100" style="enable-background:new 0 0 100 100;" xml:space="preserve">
<style type="text/css">
	.st0{fill:#E44D26;}
	.st1{fill:#F16529;}
	.st2{fill:#EBEBEB;}
	.st3{fill:#FFFFFF;}
</style>
<title>HTML5 Logo</title>
<g>
	<g>
		<path d="M20.9,0h4.5v4.5h4.2V0h4.5v13.6h-4.5V9.1h-4.1v4.5h-4.6 M40.1,4.5h-4V0h12.6v4.5h-4v9.1h-4.5 M50.6,0h4.7l2.9,4.8L61.2,0
			h4.7v13.6h-4.5V6.9l-3.2,4.9l-3.2-4.9v6.7h-4.4 M68.2,0h4.5v9.1h6.4v4.5H68.2"/>
	</g>
	<g>
		<path class="st0" d="M20.9,91.9l-6.5-72.7h71l-6.5,72.7L49.9,100"/>
		<path class="st1" d="M50,93.8V25.2h29l-5.5,62"/>
		<path class="st2" d="M27.7,34.1H50V43H37.4l0.8,9.1H50V61H30.1 M30.5,65.5h8.9l0.6,7.1l9.9,2.7v9.3l-18.2-5.1"/>
		<path class="st3" d="M72.2,34.1H50V43h21.5 M70.6,52.1H50v8.9h11l-1,11.6L50,75.3v9.3l18.2-5.1"/>
	</g>
</g>
</svg>
