<?xml version="1.0" encoding="utf-8"?>
<!-- Generator: Adobe Illustrator 24.0.2, SVG Export Plug-In . SVG Version: 6.00 Build 0)  -->
<svg version="1.1" id="Capa_1" xmlns="http://www.w3.org/2000/svg" xmlns:xlink="http://www.w3.org/1999/xlink" x="0px" y="0px"
	 viewBox="0 0 88.2 100" style="enable-background:new 0 0 88.2 100;" xml:space="preserve">
<style type="text/css">
	.st0{fill:#E44E28;}
	.st1{fill:#EC662B;}
</style>
<g>
	<polygon class="st0" points="29.4,40.8 44.1,40.8 44.1,29.4 28.5,29.4 	"/>
	<path class="st0" d="M0,0l7.9,90.1l36,9.9l36.2-9.9L88.2,0H0z M73.2,84.4l-29.1,8.1V80.9H44l-22.5-6.2l-1.6-17.4H31l0.7,8.7
		L44,69.4h0.1V51.8H19.3l-2.6-30.5l-0.3-2.9h27.7v-11h36L73.2,84.4z"/>
	<polygon class="st1" points="57.6,51.8 44.1,51.8 44.1,69.4 56.4,66.1 	"/>
	<polygon class="st1" points="44.1,7.4 44.1,18.4 71.8,18.4 71.5,21.3 71,27 70.7,29.4 44.1,29.4 44.1,40.8 69.8,40.8 69.5,43.7 
		66.9,72.8 66.8,74.7 44.1,80.9 44.1,92.5 73.2,84.4 80.1,7.4 	"/>
</g>
</svg>
