<?xml version="1.0" encoding="utf-8"?>
<!-- Generator: Adobe Illustrator 24.0.2, SVG Export Plug-In . SVG Version: 6.00 Build 0)  -->
<svg version="1.1" id="a264dbb6-bf50-445d-8443-42136802e1f3"
	 xmlns="http://www.w3.org/2000/svg" xmlns:xlink="http://www.w3.org/1999/xlink" x="0px" y="0px" viewBox="0 0 880 200"
	 style="enable-background:new 0 0 880 200;" xml:space="preserve">
<style type="text/css">
	.st0{fill:#C1213D;}
	.st1{font-family:'ArialMT';}
	.st2{font-size:41.0861px;}
	.st3{fill:#FFFFFF;}
</style>
<title>_</title>
<text transform="matrix(1 0 0 1 44.0254 168.549)" class="st0 st1 st2">brands</text>
<g>
	<path class="st0" d="M688.2,95.6c0-2.4,0-4.8-0.1-7.2c-0.1-1.7,0.7-2.4,2.4-2.3c4.5,0.1,9-0.1,13.5,0c2.2,0,3.1-0.7,3.1-3
		c-0.2-4.3,0-8.6-0.1-12.9c-0.1-2,0.7-2.5,2.6-2.5c6.7,0,6.7-0.1,6.7,6.6c0,18.3,0,36.7,0,55c0,3.2,0,3.2-3.3,3.2
		c-7.4,0-14.8-0.1-22.2,0c-2,0-2.7-0.6-2.6-2.5c0.2-2.1,0.1-4.3,0.1-6.5l-0.1,0.1c1-0.1,2-0.2,3-0.2c4.4,0,8.8-0.1,13.2,0
		c1.9,0,2.7-0.7,2.7-2.6c-0.1-7.6-0.1-15.3,0-22.9c0-1.8-0.7-2.3-2.4-2.3C699.1,95.5,693.7,95.5,688.2,95.6L688.2,95.6z"/>
	<path class="st0" d="M735.2,122.9c-2.5,0-5,0-7.5,0c-1.7,0-2.4-0.7-2.4-2.4c0-7.6,0.1-15.3,0-22.9c0-1.8,0.8-2.6,2.5-2.5
		s3.5,0.2,5.2-0.1c0.7-0.1,1.6-1.1,1.7-1.7c0.2-1.8,0.1-3.6,0.1-5.5c0-1.4,0.5-2.1,2.1-2.1c4.8,0,9.6,0,14.5,0
		c1.5,0,2.1,0.8,2.1,2.1c0,2.4,0.1,4.8,0.1,7.2c-4,0-8,0-12,0c-7.3,0-7.3,0-6.8,7.3c0.1,1.5,0.7,2,2.2,2c4.7-0.1,9.5-0.1,14.2,0
		c1.6,0,2.2-0.7,2.2-2.2c0-2.4,0-4.8,0.1-7.2c2.3,0,4.6,0.1,7,0.1c1.8,0,2.5,0.7,2.5,2.5c-0.1,4.4-0.1,8.8,0,13.2
		c0.1,2.2-0.6,2.9-2.8,2.9c-7.5-0.1-14.9,0.1-22.4-0.1c-2.4,0-3.1,0.8-2.9,3C735.1,118.6,735.1,120.8,735.2,122.9L735.2,122.9z"/>
	<path class="st0" d="M660.3,95c2.3,0,4.7,0.1,7,0.1c1.5,0,2.1,0.6,2.1,2.1c0,11,0,22,0,33.1c0,1.5-0.6,2-2.1,2
		c-7.9,0-15.8-0.1-23.7,0c-1.8,0-2.3-0.8-2.3-2.4c0.1-2.3,0-4.6,0-7l-0.1,0.1c4.2,0,8.3-0.1,12.5-0.1c7.5-0.1,6.2,0.9,6.4-6.6
		c0.1-2.3-0.8-2.8-2.9-2.8c-5.3,0.1-10.7,0-16-0.1l0.1,0.1c0-2.2,0.1-4.3-0.1-6.5c-0.2-2.2,0.7-2.7,2.7-2.6
		c4.4,0.1,8.8-0.1,13.2,0.1c2.1,0.1,3-0.6,2.9-2.8C660,99.4,660.3,97.1,660.3,95L660.3,95z"/>
	<path class="st0" d="M510.3,100c0-10,0.1-19.9,0-29.9c0-2,0.6-2.5,2.6-2.5c6.8,0,6.8-0.1,6.8,6.8c0,18.3,0,36.5,0,54.8
		c0,3.2,0,3.2-3.3,3.2c-6,0-6,0-6-6C510.3,117.6,510.3,108.8,510.3,100z"/>
	<path class="st0" d="M444.9,122.9c-2.4,0-4.8-0.1-7.2,0c-1.5,0-2.3-0.4-2.3-2.1c0-7.9,0-15.7,0-23.6c0-1.7,0.8-2.1,2.3-2.1
		c2.4,0,4.8,0,7.2,0l-0.1-0.1c0,2.4,0,4.8,0,7.2c0,1.6,0.7,2.2,2.3,2.2c4.7-0.1,9.5-0.1,14.2,0c1.7,0,2.2-0.6,2.2-2.2
		c-0.1-2.4-0.1-4.8-0.1-7.2l-0.1,0.1c2.5,0,5,0,7.5,0c1.4,0,2.1,0.6,2.1,2.1c0,4.8,0,9.6,0,14.4c0,2-1.3,1.9-2.7,1.9
		c-7.4,0-14.8,0.1-22.2-0.1c-2.5,0-3.5,0.7-3.3,3.3C444.9,118.8,444.8,120.9,444.9,122.9L444.9,122.9z"/>
	<path class="st0" d="M781.9,113.7c0,5.3,0,10.6,0,15.9c0,1.9-0.6,2.7-2.6,2.7c-8.1-0.2-6.9,1-6.9-6.8c-0.1-9,0-18.1,0-27.1
		c0-3.1,0.2-3.3,3.2-3.3c6.3-0.1,6.3-0.1,6.3-6.3c0-2.3,0.7-3.2,3.1-3.1c4.2,0.2,8.5,0.2,12.7,0c2.2-0.1,2.9,0.8,2.9,2.9
		c-0.1,7.7,0.8,6.4-6.5,6.5c-3.2,0-6.5,0.1-9.7,0c-1.8-0.1-2.5,0.6-2.5,2.4C782,102.9,781.9,108.3,781.9,113.7z"/>
	<path class="st0" d="M323,122.9c-2.3,0-4.7-0.1-7,0c-1.6,0-2.4-0.5-2.4-2.3c0.1-10.9,0-21.7,0-32.6c0-1.5,0.5-2.3,2.2-2.3
		c1.7,0.1,3.3,0.1,5,0c1.6-0.1,2.3,0.6,2.3,2.2C323,99.6,322.9,111.3,323,122.9C322.9,123,323,122.9,323,122.9z"/>
	<path class="st0" d="M369.9,95c0,11.5,0,23.1,0.1,34.6c0,1.9-0.6,2.7-2.6,2.7c-8.2-0.2-6.8,1.1-6.8-6.6c-0.1-9.2,0-18.4-0.1-27.6
		c0-2.3,0.7-3.2,3-3C365.6,95.2,367.8,95.1,369.9,95L369.9,95z"/>
	<path class="st0" d="M341.4,122.9c0.1-3.2,0.2-6.5,0.2-9.7c0-8.3,0-16.6,0-24.9c0-1.9,0.6-2.7,2.6-2.7c8.1,0.2,6.9-1.1,6.9,6.8
		c0.1,9,0,18.1,0,27.1c0,3-0.2,3.2-3.3,3.2C345.7,122.9,343.5,122.9,341.4,122.9L341.4,122.9z"/>
	<path class="st0" d="M538.2,94.9c0.1,6.5,0.1,12.9,0.2,19.4c0,5.1,0,10.3,0,15.4c0,1.8-0.5,2.5-2.4,2.5c-8.1-0.2-6.7,1.2-6.8-6.6
		c-0.1-8.2-0.1-16.4,0-24.6c0-6.8-1-5.9,5.9-6C536.1,95.1,537.2,95,538.2,94.9C538.3,95,538.2,94.9,538.2,94.9z"/>
	<path class="st0" d="M557.3,95c2.2,0,4.5,0.1,6.7,0c1.6,0,2.4,0.5,2.4,2.3c0,10.9,0,21.7,0,32.6c0,1.7-0.6,2.4-2.3,2.3
		c-8.3-0.2-6.8,1.3-6.9-6.7C557.2,115.4,557.3,105.2,557.3,95C557.4,95,557.3,95,557.3,95z"/>
	<path class="st0" d="M276.5,122.9c-2.5,0-5-0.1-7.5,0c-1.4,0-2.1-0.6-2.1-2.1c0-7.9,0-15.7,0-23.6c0-1.5,0.7-2.1,2.1-2.1
		c2.5,0,5,0,7.5,0l-0.1-0.1C276.5,104.3,276.5,113.6,276.5,122.9L276.5,122.9z"/>
	<path class="st0" d="M294.9,95.1c2.5,0,5,0.1,7.5,0c1.5,0,2.1,0.6,2,2.1c0,7.9,0,15.7,0,23.6c0,1.5-0.6,2.1-2,2.1c-2.5,0-5,0-7.5,0
		l0.1,0.1C295,113.6,295,104.3,294.9,95.1L294.9,95.1z"/>
	<path class="st0" d="M407.4,122.9c-2.4,0-4.8-0.1-7.2-0.1c-1.5,0-2.1-0.6-2.1-2.1c0-7.9,0-15.8,0-23.6c0-1.5,0.7-2.1,2.1-2.1
		c2.4,0,4.8,0,7.2,0l-0.1-0.1C407.4,104.3,407.4,113.6,407.4,122.9C407.3,123,407.4,122.9,407.4,122.9z"/>
	<path class="st0" d="M688.2,123.4c-2.4-0.1-4.8-0.2-7.2-0.2c-1.5,0-2.1-0.6-2.1-2.1c0-7.9,0-15.9,0-23.8c0-1.3,0.5-2,1.9-2
		c2.5,0.1,5,0.1,7.4,0.2l-0.1-0.1C688.2,104.8,688.2,114.1,688.2,123.4L688.2,123.4z"/>
	<path class="st0" d="M538.3,95c0-2.3,0.1-4.6,0.1-6.9c0-1.6,0.5-2.4,2.2-2.4c4.8,0.1,9.6,0.1,14.4,0c1.6,0,2.3,0.6,2.2,2.2
		c0,2.4,0,4.8,0.1,7.2l0.1-0.1C551,95,544.6,95,538.3,95C538.2,94.9,538.3,95,538.3,95z"/>
	<path class="st0" d="M239.1,95.5c-2.5,0-5-0.1-7.5-0.1c-1.5,0-2.1-0.5-2.1-2c0-4.9,0-9.8,0-14.7c0-1.5,0.6-2.1,2.1-2
		c2.5,0.1,5,0,7.5,0l-0.1-0.1C239,82.9,239,89.2,239.1,95.5L239.1,95.5z"/>
	<path class="st0" d="M585.3,104.4c-2.5,0-5-0.1-7.5,0c-1.5,0-2.1-0.6-2.1-2.1c0-4.8,0-9.6,0-14.4c0-1.5,0.6-2.3,2.2-2.3
		c8.7,0.2,7-1.2,7.2,6.6C585.3,96.4,585.2,100.4,585.3,104.4C585.3,104.5,585.3,104.4,585.3,104.4z"/>
	<path class="st0" d="M819.1,95c0-2.4,0.1-4.8,0.1-7.2c0-1.4,0.5-2.1,2.1-2.1c4.9,0,9.8,0,14.7,0c1.5,0,2.1,0.6,2.1,2.1
		c-0.1,8.7,1.3,7.2-6.8,7.3C827.2,95.1,823.1,95,819.1,95L819.1,95z"/>
	<path class="st0" d="M660.3,94.9c-5.7,0-11.5,0.1-17.2,0.1c-1.4,0-1.8-0.7-1.9-2c-0.5-7.3-0.6-7.3,6.8-7.3c3.2,0,6.5,0,9.7,0
		c1.7,0,2.4,0.7,2.4,2.4C660.1,90.4,660.2,92.7,660.3,94.9C660.3,95,660.3,94.9,660.3,94.9z"/>
	<path class="st0" d="M407.4,95c0-2.4,0-4.8,0-7.2c0-1.4,0.4-2.2,2-2.2c4.9,0,9.8,0,14.7,0c1.4,0,2.1,0.6,2.1,2.1
		c-0.1,8.6,1.1,7.2-6.6,7.3C415.5,95.1,411.4,95,407.4,95L407.4,95z"/>
	<path class="st0" d="M407.3,123c5.6,0,11.1-0.1,16.7-0.1c1.6,0,2.2,0.8,2.2,2.3c-0.1,8.4,1,6.9-6.6,7c-3.2,0.1-6.3-0.1-9.5,0
		c-2,0.1-2.9-0.5-2.8-2.7C407.5,127.4,407.4,125.1,407.3,123C407.4,122.9,407.3,123,407.3,123z"/>
	<path class="st0" d="M444.9,95.1c0-2.3,0-4.6-0.1-6.9c-0.1-1.8,0.8-2.5,2.6-2.4c4.6,0.1,9.3,0.1,13.9,0c1.6,0,2.3,0.6,2.2,2.2
		c-0.1,2.4-0.1,4.8-0.2,7.2l0.1-0.1C457.2,95,451,95,444.9,95.1L444.9,95.1z"/>
	<path class="st0" d="M828.5,122.9c0,2.3,0,4.6,0.1,6.9c0,1.6-0.5,2.4-2.3,2.4c-4.7-0.1-9.5-0.1-14.2,0c-1.7,0-2.2-0.7-2.2-2.2
		c0.1-8.6-1.2-7,6.7-7.1C820.6,122.8,824.6,122.9,828.5,122.9C828.6,122.9,828.5,122.9,828.5,122.9z"/>
	<path class="st0" d="M369.9,95c0-2.3,0-4.6,0-7c0-1.6,0.5-2.4,2.3-2.4c4.7,0.1,9.5,0.1,14.2,0c1.5,0,2.1,0.5,2.1,2
		c-0.1,9,1.2,7.2-6.7,7.4C377.8,95.1,373.9,95,369.9,95L369.9,95z"/>
	<path class="st0" d="M276.5,95.1c0-2.5-0.1-5-0.1-7.4c0-1.3,0.5-1.9,1.9-1.9c4.9,0,9.8,0,14.7,0c1.5,0,2.1,0.8,2,2.2
		c0,2.4-0.1,4.8-0.1,7.2l0.1-0.1C288.8,95,282.7,95,276.5,95.1L276.5,95.1z"/>
	<path class="st0" d="M444.8,123c5.5,0,11,0,16.4-0.1c1.6,0,2.3,0.6,2.2,2.2c-0.1,1.7-0.1,3.3,0,5c0.1,1.8-0.8,2.3-2.4,2.2
		c-4.6-0.1-9.1-0.1-13.7,0c-1.8,0-2.6-0.6-2.6-2.4C444.9,127.5,444.9,125.2,444.8,123C444.9,122.9,444.8,123,444.8,123z"/>
	<path class="st0" d="M294.9,122.9c0,2.4,0.1,4.8,0.1,7.2c0,1.4-0.5,2.2-2.1,2.2c-4.9,0-9.8,0-14.7,0c-1.4,0-2-0.6-1.9-1.9
		c0.1-2.5,0.1-5,0.1-7.4l-0.1,0.1C282.7,123,288.8,123,294.9,122.9L294.9,122.9z"/>
	<path class="st0" d="M613.3,104.5c0,5.1-0.1,10.3,0,15.4c0,2.1-0.5,3.1-2.8,2.9c-2.2-0.1-4.5,0-6.7,0l0.1,0.1
		c0-5.3,0.1-10.5,0-15.8c0-2.2,0.7-3,2.9-2.8C608.9,104.6,611.1,104.5,613.3,104.5L613.3,104.5z"/>
	<path class="st0" d="M341.4,122.9c0.1,2.5,0.3,5.1,0.2,7.6c0,0.6-1.2,1.6-1.8,1.6c-4.9,0.1-9.8,0.1-14.6,0.1c-1.5,0-2-0.8-2-2.2
		c0-2.4,0-4.8-0.1-7.2l-0.1,0.1C329.1,123,335.3,122.9,341.4,122.9L341.4,122.9z"/>
	<path class="st0" d="M735.2,122.9c5.3,0,10.7,0,16-0.1c1.7,0,2.4,0.6,2.4,2.3c-0.1,8.6,0.9,6.9-6.6,7c-3.2,0.1-6.5,0-9.7,0
		c-1.6,0-2.3-0.6-2.2-2.2C735.1,127.6,735.2,125.3,735.2,122.9L735.2,122.9z"/>
	<path class="st0" d="M248.6,123.5c-0.1,2.2-0.3,4.5-0.3,6.7c0,1.4-0.4,2.2-2,2.2c-5.1,0-10.2,0-15.2-0.1c-0.6,0-1.5-1-1.6-1.6
		c-0.9-7.5-0.8-7.6,6.7-7.5C240.4,123.3,244.6,123.5,248.6,123.5C248.7,123.6,248.6,123.5,248.6,123.5z"/>
	<path class="st0" d="M248.6,104.4c2.3,0,4.6,0.1,6.9,0.1c1.5,0,2.1,0.6,2,2c0,4.9,0,9.7,0,14.6c0,1.5-0.6,2.1-2.1,2.1
		c-2.3,0-4.6,0.2-6.9,0.3l0.1,0.1c-0.1-3.5-0.3-7.1-0.3-10.6C248.4,110.1,248.6,107.2,248.6,104.4
		C248.7,104.4,248.6,104.4,248.6,104.4z"/>
	<path class="st0" d="M613.4,104.6c0-5.6-0.1-11.2-0.1-16.9c0-1.4,0.5-2.1,2-2.1c8.6,0.2,7.1-1.2,7.2,6.6c0.1,3.3,0,6.6,0,9.9
		c0,1.6-0.6,2.2-2.2,2.2C617.9,104.4,615.6,104.5,613.4,104.6C613.3,104.5,613.4,104.6,613.4,104.6z"/>
	<path class="st0" d="M239.1,76.6c-0.1-2.4-0.3-4.8-0.2-7.2c0-0.6,1.1-1.7,1.7-1.7c5.1-0.1,10.2-0.1,15.2,0c0.6,0,1.5,0.9,1.6,1.5
		c0.2,1.9,0.2,3.8,0,5.7c-0.1,0.6-1.1,1.7-1.7,1.7C250.2,76.7,244.6,76.6,239.1,76.6C239,76.6,239.1,76.6,239.1,76.6z"/>
	<path class="st0" d="M594.2,122.9c-2.3,0-4.6-0.1-7-0.1c-1.2,0-2.1-0.3-2.1-1.8c0.1-5.5,0.1-11.1,0.2-16.6l-0.1,0.1
		c2.4,0,4.8-0.2,7.2,0c0.7,0,1.8,1,1.8,1.6C594.4,111.7,594.2,117.4,594.2,122.9C594.2,123,594.2,122.9,594.2,122.9z"/>
	<path class="st0" d="M828.6,113.5c2.5,0,5,0.1,7.5,0.1c1.4,0,2,0.6,1.9,1.9c-0.2,8.9,1.3,7.2-6.7,7.4c-0.9,0-1.8,0-2.7,0l0.1,0.1
		C828.6,119.8,828.6,116.6,828.6,113.5L828.6,113.5z"/>
	<path class="st0" d="M603.7,122.9c0,2.4,0.1,4.8,0.1,7.2c0,1.6-0.7,2.3-2.3,2.2s-3.3-0.1-5,0c-1.8,0.1-2.3-0.8-2.3-2.4
		c0-2.3-0.1-4.6-0.1-6.9l-0.1,0.1C597.4,123,600.6,123,603.7,122.9C603.8,123,603.7,122.9,603.7,122.9z"/>
	<path class="st0" d="M641.3,122.9c-2.4,0-4.8-0.1-7.2,0c-1.5,0-2-0.6-2.1-2.1c-0.5-7.2-0.5-7.2,6.6-7.2c0.9,0,1.8,0,2.7-0.1
		l-0.1-0.1C641.2,116.6,641.2,119.8,641.3,122.9L641.3,122.9z"/>
	<path class="st0" d="M828.7,113.4c-2.4,0-4.8,0-7.2,0.2c-1.7,0.1-2.4-0.5-2.3-2.3c0.1-2.2-0.1-4.4-0.2-6.7l-0.1,0.1
		c2.6-0.1,5.3-0.3,7.9-0.2c0.6,0,1.6,1.1,1.7,1.8C828.7,108.7,828.6,111.1,828.7,113.4C828.6,113.5,828.7,113.4,828.7,113.4z"/>
	<path class="st0" d="M819,94.9c0,3.2-0.1,6.5-0.1,9.7l0.1-0.1c-2.1-0.1-4.3-0.3-6.4-0.2c-1.9,0.1-2.7-0.5-2.6-2.5
		c0.2-8.2-1.1-6.7,6.7-6.9C817.4,95.1,818.3,95,819,94.9C819.1,95,819,94.9,819,94.9z"/>
	<path class="st0" d="M239,95.5c2.4-0.1,4.8-0.1,7.2-0.2c1.6-0.1,2.2,0.6,2.2,2.2c0,2.3,0.1,4.6,0.2,6.9l0.1-0.1
		c-2.6,0.1-5.3,0.2-7.9,0.1c-0.7,0-1.8-1-1.8-1.6C238.8,100.4,239,97.9,239,95.5C239.1,95.5,239,95.5,239,95.5z"/>
</g>
<polygon class="st0" points="179.8,130.4 31.6,130.4 31.6,50.3 179.8,50.3 214,89.4 "/>
<rect x="60.7" y="84.3" class="st3" width="19.9" height="19.4"/>
<rect x="129.7" y="84.3" class="st3" width="19.9" height="19.4"/>
<rect x="22.4" y="124.4" class="st0" width="19.9" height="19.4"/>
<rect x="5.7" y="140.8" class="st0" width="19.9" height="19.4"/>
<rect x="175" y="126.6" class="st0" width="19.9" height="19.4"/>
<rect x="190.1" y="143.4" class="st0" width="19.9" height="19.4"/>
</svg>
