<?xml version="1.0" encoding="utf-8"?>
<!-- Generator: Adobe Illustrator 24.0.2, SVG Export Plug-In . SVG Version: 6.00 Build 0)  -->
<svg version="1.1" id="a264dbb6-bf50-445d-8443-42136802e1f3"
	 xmlns="http://www.w3.org/2000/svg" xmlns:xlink="http://www.w3.org/1999/xlink" x="0px" y="0px" viewBox="0 0 928.1 200"
	 style="enable-background:new 0 0 928.1 200;" xml:space="preserve">
<style type="text/css">
	.st0{fill:#7700FF;}
	.st1{fill:#FF7700;}
	.st2{fill:#00FF77;}
	.st3{fill:#FF0077;}
</style>
<title>_</title>
<path class="st0" d="M768.2,95.6c0-2.4,0-4.8-0.1-7.2c-0.1-1.7,0.7-2.4,2.4-2.3c4.5,0.1,9-0.1,13.5,0c2.2,0,3.1-0.7,3.1-3
	c-0.2-4.3,0-8.6-0.1-12.9c-0.1-2,0.7-2.5,2.6-2.5c6.7,0,6.7-0.1,6.7,6.6c0,18.3,0,36.7,0,55c0,3.2,0,3.2-3.3,3.2
	c-7.4,0-14.8-0.1-22.2,0c-2,0-2.7-0.6-2.6-2.5c0.2-2.1,0.1-4.3,0.1-6.5l-0.1,0.1c1-0.1,2-0.2,3-0.2c4.4,0,8.8-0.1,13.2,0
	c1.9,0,2.7-0.7,2.7-2.6c-0.1-7.6-0.1-15.3,0-22.9c0-1.8-0.7-2.3-2.4-2.3C779.1,95.5,773.7,95.5,768.2,95.6L768.2,95.6z"/>
<path class="st1" d="M815.2,122.9c-2.5,0-5,0-7.5,0c-1.7,0-2.4-0.7-2.4-2.4c0-7.6,0.1-15.3,0-22.9c0-1.8,0.8-2.6,2.5-2.5
	s3.5,0.2,5.2-0.1c0.7-0.1,1.6-1.1,1.7-1.7c0.2-1.8,0.1-3.6,0.1-5.5c0-1.4,0.5-2.1,2.1-2.1c4.8,0,9.6,0,14.5,0c1.5,0,2.1,0.8,2.1,2.1
	c0,2.4,0.1,4.8,0.1,7.2c-4,0-8,0-12,0c-7.3,0-7.3,0-6.8,7.3c0.1,1.5,0.7,2,2.2,2c4.7-0.1,9.5-0.1,14.2,0c1.6,0,2.2-0.7,2.2-2.2
	c0-2.4,0-4.8,0.1-7.2c2.3,0,4.6,0.1,7,0.1c1.8,0,2.5,0.7,2.5,2.5c-0.1,4.4-0.1,8.8,0,13.2c0.1,2.2-0.6,2.9-2.8,2.9
	c-7.5-0.1-14.9,0.1-22.4-0.1c-2.4,0-3.1,0.8-2.9,3C815.1,118.6,815.1,120.8,815.2,122.9L815.2,122.9z"/>
<path class="st2" d="M740.3,95c2.3,0,4.7,0.1,7,0.1c1.5,0,2.1,0.6,2.1,2.1c0,11,0,22,0,33.1c0,1.5-0.6,2-2.1,2
	c-7.9,0-15.8-0.1-23.7,0c-1.8,0-2.3-0.8-2.3-2.4c0.1-2.3,0-4.6,0-7l-0.1,0.1c4.2,0,8.3-0.1,12.5-0.1c7.5-0.1,6.2,0.9,6.4-6.6
	c0.1-2.3-0.8-2.8-2.9-2.8c-5.3,0.1-10.7,0-16-0.1l0.1,0.1c0-2.2,0.1-4.3-0.1-6.5c-0.2-2.2,0.7-2.7,2.7-2.6c4.4,0.1,8.8-0.1,13.2,0.1
	c2.1,0.1,3-0.6,2.9-2.8C740,99.4,740.3,97.1,740.3,95L740.3,95z"/>
<path class="st1" d="M590.3,100c0-10,0.1-19.9,0-29.9c0-2,0.6-2.5,2.6-2.5c6.8,0,6.8-0.1,6.8,6.8c0,18.3,0,36.5,0,54.8
	c0,3.2,0,3.2-3.3,3.2c-6,0-6,0-6-6C590.3,117.6,590.3,108.8,590.3,100z"/>
<path class="st3" d="M502.9,122.9c-2.4,0-4.8-0.1-7.2,0c-1.5,0-2.3-0.4-2.3-2.1c0-7.9,0-15.7,0-23.6c0-1.7,0.8-2.1,2.3-2.1
	c2.4,0,4.8,0,7.2,0l-0.1-0.1c0,2.4,0,4.8,0,7.2c0,1.6,0.7,2.2,2.3,2.2c4.7-0.1,9.5-0.1,14.2,0c1.7,0,2.2-0.6,2.2-2.2
	c-0.1-2.4-0.1-4.8-0.1-7.2l-0.1,0.1c2.5,0,5,0,7.5,0c1.4,0,2.1,0.6,2.1,2.1c0,4.8,0,9.6,0,14.4c0,2-1.3,1.9-2.7,1.9
	c-7.4,0-14.8,0.1-22.2-0.1c-2.5,0-3.5,0.7-3.3,3.3C502.9,118.8,502.8,120.9,502.9,122.9L502.9,122.9z"/>
<path class="st2" d="M861.9,113.7c0,5.3,0,10.6,0,15.9c0,1.9-0.6,2.7-2.6,2.7c-8.1-0.2-6.9,1-6.9-6.8c-0.1-9,0-18.1,0-27.1
	c0-3.1,0.2-3.3,3.2-3.3c6.3-0.1,6.3-0.1,6.3-6.3c0-2.3,0.7-3.2,3.1-3.1c4.2,0.2,8.5,0.2,12.7,0c2.2-0.1,2.9,0.8,2.9,2.9
	c-0.1,7.7,0.8,6.4-6.5,6.5c-3.2,0-6.5,0.1-9.7,0c-1.8-0.1-2.5,0.6-2.5,2.4C862,102.9,861.9,108.3,861.9,113.7z"/>
<path class="st0" d="M381,122.9c-2.3,0-4.7-0.1-7,0c-1.6,0-2.4-0.5-2.4-2.3c0.1-10.9,0-21.7,0-32.6c0-1.5,0.5-2.3,2.2-2.3
	c1.7,0.1,3.3,0.1,5,0c1.6-0.1,2.3,0.6,2.3,2.2C381,99.6,380.9,111.3,381,122.9C380.9,123,381,122.9,381,122.9z"/>
<path class="st1" d="M427.9,95c0,11.5,0,23.1,0.1,34.6c0,1.9-0.6,2.7-2.6,2.7c-8.2-0.2-6.8,1.1-6.8-6.6c-0.1-9.2,0-18.4-0.1-27.6
	c0-2.3,0.7-3.2,3-3C423.6,95.2,425.8,95.1,427.9,95L427.9,95z"/>
<path class="st0" d="M399.4,122.9c0.1-3.2,0.2-6.5,0.2-9.7c0-8.3,0-16.6,0-24.9c0-1.9,0.6-2.7,2.6-2.7c8.1,0.2,6.9-1.1,6.9,6.8
	c0.1,9,0,18.1,0,27.1c0,3-0.2,3.2-3.3,3.2C403.7,122.9,401.5,122.9,399.4,122.9L399.4,122.9z"/>
<path class="st2" d="M618.2,94.9c0.1,6.5,0.1,12.9,0.2,19.4c0,5.1,0,10.3,0,15.4c0,1.8-0.5,2.5-2.4,2.5c-8.1-0.2-6.7,1.2-6.8-6.6
	c-0.1-8.2-0.1-16.4,0-24.6c0-6.8-1-5.9,5.9-6C616.1,95.1,617.2,95,618.2,94.9C618.3,95,618.2,94.9,618.2,94.9z"/>
<path class="st2" d="M637.3,95c2.2,0,4.5,0.1,6.7,0c1.6,0,2.4,0.5,2.4,2.3c0,10.9,0,21.7,0,32.6c0,1.7-0.6,2.4-2.3,2.3
	c-8.3-0.2-6.8,1.3-6.9-6.7C637.2,115.4,637.3,105.2,637.3,95C637.4,95,637.3,95,637.3,95z"/>
<path class="st2" d="M334.5,122.9c-2.5,0-5-0.1-7.5,0c-1.4,0-2.1-0.6-2.1-2.1c0-7.9,0-15.7,0-23.6c0-1.5,0.7-2.1,2.1-2.1
	c2.5,0,5,0,7.5,0l-0.1-0.1C334.5,104.3,334.5,113.6,334.5,122.9L334.5,122.9z"/>
<path class="st2" d="M352.9,95.1c2.5,0,5,0.1,7.5,0c1.5,0,2.1,0.6,2,2.1c0,7.9,0,15.7,0,23.6c0,1.5-0.6,2.1-2,2.1c-2.5,0-5,0-7.5,0
	l0.1,0.1C353,113.6,353,104.3,352.9,95.1L352.9,95.1z"/>
<path class="st2" d="M465.4,122.9c-2.4,0-4.8-0.1-7.2-0.1c-1.5,0-2.1-0.6-2.1-2.1c0-7.9,0-15.8,0-23.6c0-1.5,0.7-2.1,2.1-2.1
	c2.4,0,4.8,0,7.2,0l-0.1-0.1C465.4,104.3,465.4,113.6,465.4,122.9C465.3,123,465.4,122.9,465.4,122.9z"/>
<path class="st0" d="M768.2,123.4c-2.4-0.1-4.8-0.2-7.2-0.2c-1.5,0-2.1-0.6-2.1-2.1c0-7.9,0-15.9,0-23.8c0-1.3,0.5-2,1.9-2
	c2.5,0.1,5,0.1,7.4,0.2l-0.1-0.1C768.2,104.8,768.2,114.1,768.2,123.4L768.2,123.4z"/>
<path class="st2" d="M618.3,95c0-2.3,0.1-4.6,0.1-6.9c0-1.6,0.5-2.4,2.2-2.4c4.8,0.1,9.6,0.1,14.4,0c1.6,0,2.3,0.6,2.2,2.2
	c0,2.4,0,4.8,0.1,7.2l0.1-0.1C631,95,624.6,95,618.3,95C618.2,94.9,618.3,95,618.3,95z"/>
<path class="st3" d="M297.1,95.5c-2.5,0-5-0.1-7.5-0.1c-1.5,0-2.1-0.5-2.1-2c0-4.9,0-9.8,0-14.7c0-1.5,0.6-2.1,2.1-2
	c2.5,0.1,5,0,7.5,0l-0.1-0.1C297,82.9,297,89.2,297.1,95.5L297.1,95.5z"/>
<path class="st3" d="M665.3,104.4c-2.5,0-5-0.1-7.5,0c-1.5,0-2.1-0.6-2.1-2.1c0-4.8,0-9.6,0-14.4c0-1.5,0.6-2.3,2.2-2.3
	c8.7,0.2,7-1.2,7.2,6.6C665.3,96.4,665.2,100.4,665.3,104.4C665.3,104.5,665.3,104.4,665.3,104.4z"/>
<path class="st2" d="M740.3,94.9c-5.7,0-11.5,0.1-17.2,0.1c-1.4,0-1.8-0.7-1.9-2c-0.5-7.3-0.6-7.3,6.8-7.3c3.2,0,6.5,0,9.7,0
	c1.7,0,2.4,0.7,2.4,2.4C740.1,90.4,740.2,92.7,740.3,94.9C740.3,95,740.3,94.9,740.3,94.9z"/>
<path class="st2" d="M465.4,95c0-2.4,0-4.8,0-7.2c0-1.4,0.4-2.2,2-2.2c4.9,0,9.8,0,14.7,0c1.4,0,2.1,0.6,2.1,2.1
	c-0.1,8.6,1.1,7.2-6.6,7.3C473.5,95.1,469.4,95,465.4,95L465.4,95z"/>
<path class="st2" d="M465.3,123c5.6,0,11.1-0.1,16.7-0.1c1.6,0,2.2,0.8,2.2,2.3c-0.1,8.4,1,6.9-6.6,7c-3.2,0.1-6.3-0.1-9.5,0
	c-2,0.1-2.9-0.5-2.8-2.7C465.5,127.4,465.4,125.1,465.3,123C465.4,122.9,465.3,123,465.3,123z"/>
<path class="st3" d="M502.9,95.1c0-2.3,0-4.6-0.1-6.9c-0.1-1.8,0.8-2.5,2.6-2.4c4.6,0.1,9.3,0.1,13.9,0c1.6,0,2.3,0.6,2.2,2.2
	c-0.1,2.4-0.1,4.8-0.2,7.2l0.1-0.1C515.2,95,509,95,502.9,95.1L502.9,95.1z"/>
<path class="st1" d="M427.9,95c0-2.3,0-4.6,0-7c0-1.6,0.5-2.4,2.3-2.4c4.7,0.1,9.5,0.1,14.2,0c1.5,0,2.1,0.5,2.1,2
	c-0.1,9,1.2,7.2-6.7,7.4C435.8,95.1,431.9,95,427.9,95L427.9,95z"/>
<path class="st2" d="M334.5,95.1c0-2.5-0.1-5-0.1-7.4c0-1.3,0.5-1.9,1.9-1.9c4.9,0,9.8,0,14.7,0c1.5,0,2.1,0.8,2,2.2
	c0,2.4-0.1,4.8-0.1,7.2l0.1-0.1C346.8,95,340.7,95,334.5,95.1L334.5,95.1z"/>
<path class="st3" d="M502.8,123c5.5,0,11,0,16.4-0.1c1.6,0,2.3,0.6,2.2,2.2c-0.1,1.7-0.1,3.3,0,5c0.1,1.8-0.8,2.3-2.4,2.2
	c-4.6-0.1-9.1-0.1-13.7,0c-1.8,0-2.6-0.6-2.6-2.4C502.9,127.5,502.9,125.2,502.8,123C502.9,122.9,502.8,123,502.8,123z"/>
<path class="st2" d="M352.9,122.9c0,2.4,0.1,4.8,0.1,7.2c0,1.4-0.5,2.2-2.1,2.2c-4.9,0-9.8,0-14.7,0c-1.4,0-2-0.6-1.9-1.9
	c0.1-2.5,0.1-5,0.1-7.4l-0.1,0.1C340.7,123,346.8,123,352.9,122.9L352.9,122.9z"/>
<path class="st3" d="M693.3,104.5c0,5.1-0.1,10.3,0,15.4c0,2.1-0.5,3.1-2.8,2.9c-2.2-0.1-4.5,0-6.7,0l0.1,0.1c0-5.3,0.1-10.5,0-15.8
	c0-2.2,0.7-3,2.9-2.8C688.9,104.6,691.1,104.5,693.3,104.5L693.3,104.5z"/>
<path class="st0" d="M399.4,122.9c0.1,2.5,0.3,5.1,0.2,7.6c0,0.6-1.2,1.6-1.8,1.6c-4.9,0.1-9.8,0.1-14.6,0.1c-1.5,0-2-0.8-2-2.2
	c0-2.4,0-4.8-0.1-7.2l-0.1,0.1C387.1,123,393.3,122.9,399.4,122.9L399.4,122.9z"/>
<path class="st1" d="M815.2,122.9c5.3,0,10.7,0,16-0.1c1.7,0,2.4,0.6,2.4,2.3c-0.1,8.6,0.9,6.9-6.6,7c-3.2,0.1-6.5,0-9.7,0
	c-1.6,0-2.3-0.6-2.2-2.2C815.1,127.6,815.2,125.3,815.2,122.9L815.2,122.9z"/>
<path class="st3" d="M306.6,123.5c-0.1,2.2-0.3,4.5-0.3,6.7c0,1.4-0.4,2.2-2,2.2c-5.1,0-10.2,0-15.2-0.1c-0.6,0-1.5-1-1.6-1.6
	c-0.9-7.5-0.8-7.6,6.7-7.5C298.4,123.3,302.6,123.5,306.6,123.5C306.7,123.6,306.6,123.5,306.6,123.5z"/>
<path class="st3" d="M306.6,104.4c2.3,0,4.6,0.1,6.9,0.1c1.5,0,2.1,0.6,2,2c0,4.9,0,9.7,0,14.6c0,1.5-0.6,2.1-2.1,2.1
	c-2.3,0-4.6,0.2-6.9,0.3l0.1,0.1c-0.1-3.5-0.3-7.1-0.3-10.6C306.4,110.1,306.6,107.2,306.6,104.4
	C306.7,104.4,306.6,104.4,306.6,104.4z"/>
<path class="st3" d="M693.4,104.6c0-5.6-0.1-11.2-0.1-16.9c0-1.4,0.5-2.1,2-2.1c8.6,0.2,7.1-1.2,7.2,6.6c0.1,3.3,0,6.6,0,9.9
	c0,1.6-0.6,2.2-2.2,2.2C697.9,104.4,695.6,104.5,693.4,104.6C693.3,104.5,693.4,104.6,693.4,104.6z"/>
<path class="st3" d="M297.1,76.6c-0.1-2.4-0.3-4.8-0.2-7.2c0-0.6,1.1-1.7,1.7-1.7c5.1-0.1,10.2-0.1,15.2,0c0.6,0,1.5,0.9,1.6,1.5
	c0.2,1.9,0.2,3.8,0,5.7c-0.1,0.6-1.1,1.7-1.7,1.7C308.2,76.7,302.6,76.6,297.1,76.6C297,76.6,297.1,76.6,297.1,76.6z"/>
<path class="st3" d="M674.2,122.9c-2.3,0-4.6-0.1-7-0.1c-1.2,0-2.1-0.3-2.1-1.8c0.1-5.5,0.1-11.1,0.2-16.6l-0.1,0.1
	c2.4,0,4.8-0.2,7.2,0c0.7,0,1.8,1,1.8,1.6C674.4,111.7,674.2,117.4,674.2,122.9C674.2,123,674.2,122.9,674.2,122.9z"/>
<path class="st3" d="M683.7,122.9c0,2.4,0.1,4.8,0.1,7.2c0,1.6-0.7,2.3-2.3,2.2s-3.3-0.1-5,0c-1.8,0.1-2.3-0.8-2.3-2.4
	c0-2.3-0.1-4.6-0.1-6.9l-0.1,0.1C677.4,123,680.6,123,683.7,122.9C683.8,123,683.7,122.9,683.7,122.9z"/>
<path class="st2" d="M721.3,122.9c-2.4,0-4.8-0.1-7.2,0c-1.5,0-2-0.6-2.1-2.1c-0.5-7.2-0.5-7.2,6.6-7.2c0.9,0,1.8,0,2.7-0.1
	l-0.1-0.1C721.2,116.6,721.2,119.8,721.3,122.9L721.3,122.9z"/>
<g>
	<path class="st3" d="M899.1,95c0-2.4,0.1-4.8,0.1-7.2c0-1.4,0.5-2.1,2.1-2.1c4.9,0,9.8,0,14.7,0c1.5,0,2.1,0.6,2.1,2.1
		c-0.1,8.7,1.3,7.2-6.8,7.3C907.2,95.1,903.1,95,899.1,95L899.1,95z"/>
	<path class="st3" d="M908.5,122.9c0,2.3,0,4.6,0.1,6.9c0,1.6-0.5,2.4-2.3,2.4c-4.7-0.1-9.5-0.1-14.2,0c-1.7,0-2.2-0.7-2.2-2.2
		c0.1-8.6-1.2-7,6.7-7.1C900.6,122.8,904.6,122.9,908.5,122.9C908.6,122.9,908.5,122.9,908.5,122.9z"/>
	<path class="st3" d="M908.6,113.5c2.5,0,5,0.1,7.5,0.1c1.4,0,2,0.6,1.9,1.9c-0.2,8.9,1.3,7.2-6.7,7.4c-0.9,0-1.8,0-2.7,0l0.1,0.1
		C908.6,119.8,908.6,116.6,908.6,113.5L908.6,113.5z"/>
	<path class="st3" d="M908.7,113.4c-2.4,0-4.8,0-7.2,0.2c-1.7,0.1-2.4-0.5-2.3-2.3c0.1-2.2-0.1-4.4-0.2-6.7l-0.1,0.1
		c2.6-0.1,5.3-0.3,7.9-0.2c0.6,0,1.6,1.1,1.7,1.8C908.7,108.7,908.6,111.1,908.7,113.4C908.6,113.5,908.7,113.4,908.7,113.4z"/>
	<path class="st3" d="M899,94.9c0,3.2-0.1,6.5-0.1,9.7l0.1-0.1c-2.1-0.1-4.3-0.3-6.4-0.2c-1.9,0.1-2.7-0.5-2.6-2.5
		c0.2-8.2-1.1-6.7,6.7-6.9C897.4,95.1,898.3,95,899,94.9C899.1,95,899,94.9,899,94.9z"/>
</g>
<g>
	<path class="st0" d="M549.8,95c0-2.4,0.1-4.8,0.1-7.2c0-1.4,0.5-2.1,2.1-2.1c4.9,0,9.8,0,14.7,0c1.5,0,2.1,0.6,2.1,2.1
		c-0.1,8.7,1.3,7.2-6.8,7.3C557.9,95.1,553.8,95,549.8,95L549.8,95z"/>
	<path class="st0" d="M559.2,122.9c0,2.3,0,4.6,0.1,6.9c0,1.6-0.5,2.4-2.3,2.4c-4.7-0.1-9.5-0.1-14.2,0c-1.7,0-2.2-0.7-2.2-2.2
		c0.1-8.6-1.2-7,6.7-7.1C551.3,122.8,555.3,122.9,559.2,122.9C559.3,122.9,559.2,122.9,559.2,122.9z"/>
	<path class="st0" d="M559.3,113.5c2.5,0,5,0.1,7.5,0.1c1.4,0,2,0.6,1.9,1.9c-0.2,8.9,1.3,7.2-6.7,7.4c-0.9,0-1.8,0-2.7,0l0.1,0.1
		C559.3,119.8,559.3,116.6,559.3,113.5L559.3,113.5z"/>
	<path class="st0" d="M559.4,113.4c-2.4,0-4.8,0-7.2,0.2c-1.7,0.1-2.4-0.5-2.3-2.3c0.1-2.2-0.1-4.4-0.2-6.7l-0.1,0.1
		c2.6-0.1,5.3-0.3,7.9-0.2c0.6,0,1.6,1.1,1.7,1.8C559.4,108.7,559.3,111.1,559.4,113.4C559.3,113.5,559.4,113.4,559.4,113.4z"/>
	<path class="st0" d="M549.7,94.9c0,3.2-0.1,6.5-0.1,9.7l0.1-0.1c-2.1-0.1-4.3-0.3-6.4-0.2c-1.9,0.1-2.7-0.5-2.6-2.5
		c0.2-8.2-1.1-6.7,6.7-6.9C548.1,95.1,549,95,549.7,94.9C549.8,95,549.7,94.9,549.7,94.9z"/>
</g>
<path class="st3" d="M297,95.5c2.4-0.1,4.8-0.1,7.2-0.2c1.6-0.1,2.2,0.6,2.2,2.2c0,2.3,0.1,4.6,0.2,6.9l0.1-0.1
	c-2.6,0.1-5.3,0.2-7.9,0.1c-0.7,0-1.8-1-1.8-1.6C296.8,100.4,297,97.9,297,95.5C297.1,95.5,297,95.5,297,95.5z"/>
<path class="st1" d="M134.9,163.2v-11.3h-9.4v-36.8h-6.6v-8h-15.2V103H76.5V91.3H32.6V103v4.2v2.8v5.1v2.4v36h-9v11H12.5v13h13.3
	v-11h11.2v-10h84.6v8.3h10.1v11.3H145v-13H134.9z M61,136.9H47.7v-13H61V136.9z M107.1,136.9H93.8v-13h13.3V136.9z"/>
<path class="st3" d="M172.3,63.8h-8l20.7-24.9l-22.9-26.1H63.1v49.5H57v11H45.8v13h13.3v-11h11.2v-9H159v10.4h10.1V88h13.3V75h-10.1
	V63.8z M95.9,48.5H82.6v-13h13.3V48.5z M142,48.5h-13.3v-13H142V48.5z"/>
<path class="st2" d="M258.2,177.8v-11.2h-10.8v-7h10v-42.8h-10v-10.7h-15v-8.6h-37.2v8.6H181v10.7h-16.4v42.8H181v6.6h-10.4v11
	h-11.2v13h13.3v-11h11.2V169h11.4v10h37.2v-10h12.5v10.6H255v11.2h13.3v-13H258.2z M193.2,145.9h-13.3v-13h13.3V145.9z M239.2,145.9
	h-13.3v-13h13.3V145.9z"/>
</svg>
