<?xml version="1.0" encoding="utf-8"?>
<!-- Generator: Adobe Illustrator 24.0.2, SVG Export Plug-In . SVG Version: 6.00 Build 0)  -->
<svg version="1.1" id="a264dbb6-bf50-445d-8443-42136802e1f3"
	 xmlns="http://www.w3.org/2000/svg" xmlns:xlink="http://www.w3.org/1999/xlink" x="0px" y="0px" viewBox="0 0 720 144"
	 style="enable-background:new 0 0 720 144;" xml:space="preserve">
<style type="text/css">
	.st0{fill:#FF7700;}
	.st1{fill:#FF0077;}
	.st2{fill:#00FF77;}
	.st3{fill:#7700FF;}
</style>
<title>_</title>
<path class="st0" d="M72,117h-9l9-9V90l-9-9H45h-9l-9-9H9v9v18v9l9,9H9v9H0v9h9v-9h9v-9h45v9h9v9h8.9l0.1-9h-9V117z M27,108h-9v-9h9
	V108z M63,108h-9v-9h9V108z M36,99"/>
<path class="st1" d="M99,36h-9l9-9v-9l-9-9H36v27h-9v9h-9v9h9v-9h9v-9h54v9h9v9h9v-9h-9V36z M54,27h-9v-9h9V27z M81,27h-9v-9h9V27z"
	/>
<path class="st2" d="M135,108v-9h-9l9-9V72l-9-9v-9h-9v9H99v-9h-9v9l-9,9v18l9,9h-9v9h-9v9h9v-9h9v-9l9,9h18l9-9v9H135v9h9v-9H135z
	 M99,90h-9v-9h9V90z M126,90h-9v-9h9V90z"/>
<rect x="153" y="90" class="st1" width="18" height="9"/>
<rect x="198" y="90" class="st2" width="18" height="9"/>
<rect x="162" y="36" class="st1" width="18" height="9"/>
<rect x="198" y="54" class="st2" width="18" height="9"/>
<rect x="171" y="72" class="st1" width="9" height="18"/>
<rect x="189" y="63" class="st2" width="9" height="27"/>
<rect x="216" y="63" class="st2" width="9" height="27"/>
<rect x="432" y="54" class="st2" width="18" height="9"/>
<rect x="423" y="63" class="st2" width="9" height="36"/>
<rect x="450" y="63" class="st2" width="9" height="36"/>
<rect x="243" y="90" class="st3" width="18" height="9"/>
<rect x="234" y="54" class="st3" width="9" height="36"/>
<rect x="261" y="54" class="st3" width="9" height="36"/>
<rect x="288" y="54" class="st0" width="18" height="9"/>
<rect x="279" y="63" class="st0" width="9" height="36"/>
<rect x="324" y="90" class="st2" width="18" height="9"/>
<rect x="324" y="54" class="st2" width="18" height="9"/>
<rect x="315" y="63" class="st2" width="9" height="27"/>
<rect x="360" y="90" class="st1" width="18" height="9"/>
<rect x="360" y="54" class="st1" width="18" height="9"/>
<rect x="360" y="72" class="st1" width="18" height="9"/>
<rect x="351" y="63" class="st1" width="9" height="27"/>
<rect x="378" y="63" class="st1" width="9" height="18"/>
<rect x="621" y="90" class="st0" width="18" height="9"/>
<rect x="621" y="54" class="st0" width="18" height="9"/>
<rect x="621" y="72" class="st0" width="18" height="9"/>
<rect x="612" y="63" class="st0" width="9" height="27"/>
<rect x="639" y="63" class="st0" width="9" height="18"/>
<rect x="531" y="54" transform="matrix(-1 -1.224647e-16 1.224647e-16 -1 1080 117)" class="st2" width="18" height="9"/>
<rect x="531" y="90" transform="matrix(-1 -1.224647e-16 1.224647e-16 -1 1080 189)" class="st2" width="18" height="9"/>
<rect x="531" y="72" transform="matrix(-1 -1.224647e-16 1.224647e-16 -1 1080 153)" class="st2" width="18" height="9"/>
<rect x="549" y="63" transform="matrix(-1 -1.224647e-16 1.224647e-16 -1 1107 162)" class="st2" width="9" height="36"/>
<rect x="522" y="81" transform="matrix(-1 -1.224647e-16 1.224647e-16 -1 1053 171)" class="st2" width="9" height="9"/>
<rect x="576" y="54" transform="matrix(-1 -1.224647e-16 1.224647e-16 -1 1170 117)" class="st3" width="18" height="9"/>
<rect x="576" y="90" transform="matrix(-1 -1.224647e-16 1.224647e-16 -1 1170 189)" class="st3" width="18" height="9"/>
<rect x="594" y="36" transform="matrix(-1 -1.224647e-16 1.224647e-16 -1 1197 135)" class="st3" width="9" height="63"/>
<rect x="567" y="63" transform="matrix(-1 -1.224647e-16 1.224647e-16 -1 1143 153)" class="st3" width="9" height="27"/>
<rect x="405" y="36" class="st3" width="9" height="63"/>
<rect x="468" y="54" class="st1" width="9" height="18"/>
<rect x="477" y="72" class="st1" width="9" height="18"/>
<rect x="486" y="90" class="st1" width="9" height="9"/>
<rect x="495" y="72" class="st1" width="9" height="18"/>
<rect x="504" y="54" class="st1" width="9" height="18"/>
<rect x="153" y="45" class="st1" width="9" height="18"/>
<rect x="162" y="63" class="st1" width="9" height="9"/>
<rect x="666" y="54" class="st2" width="18" height="9"/>
<rect x="657" y="63" class="st2" width="9" height="36"/>
<rect x="693" y="90" class="st1" width="18" height="9"/>
<rect x="702" y="54" class="st1" width="18" height="9"/>
<rect x="693" y="63" class="st1" width="9" height="9"/>
<rect x="702" y="72" class="st1" width="9" height="9"/>
<rect x="711" y="81" class="st1" width="9" height="9"/>
</svg>
