<?xml version="1.0" encoding="utf-8"?>
<!-- Generator: Adobe Illustrator 24.0.2, SVG Export Plug-In . SVG Version: 6.00 Build 0)  -->
<svg version="1.1" id="Capa_1" xmlns="http://www.w3.org/2000/svg" xmlns:xlink="http://www.w3.org/1999/xlink" x="0px" y="0px"
	 viewBox="0 0 100 100" style="enable-background:new 0 0 100 100;" xml:space="preserve">
<style type="text/css">
	.st0{fill:#040404;}
</style>
<g>
	<path class="st0" d="M55.1,29.4c0.1-0.1,0.2-0.2,0.3-0.3c-3.8-4.9-7.5-9.9-11.3-14.8c-1.6-2.1-3.6-3.9-6-5.1
		c-4.1-2-8.1-0.7-10.4,3.3c-1.3,2.3-1.6,4.8-1.6,7.5c0,13-0.1,25.9,0,38.9c0,1.6-0.4,1.8-1.9,1.5C12.5,58.4,2.9,69,6.2,80.2
		c2.2,7.5,9.6,12.4,17.2,11.4c8-1.1,13.9-7.7,13.9-15.8c0-17.8,0-35.6-0.1-53.4c0-0.7,0-1.3,0-2c0-1,0.3-1.2,1.2-0.7
		c1.4,0.8,2.9,1.7,4.3,2.5C46.8,24.6,51,27,55.1,29.4z"/>
	<path class="st0" d="M88.2,35.6c-12.1-6.9-24.1-14-36.3-20.9c-1.4-0.8-2.7-2.1-4.6-2.1c5,6.6,10,13.2,15,19.8
		c0.8,1,1.4,2.1,2.5,2.8c3.2,1.8,6.4,3.7,9.6,5.6c2.8,1.6,5.5,3.2,8.4,4.9c-0.3,0.3-0.4,0.5-0.6,0.5c-13.5,7.8-27,15.6-40.6,23.3
		c-0.8,0.5-1.2,0.8-1.2,1.9c0.1,2.8,0,5.7,0,8.5c0,3.4,0,3.4,2.9,1.7C58.4,73.1,73.2,64.5,88,56c4-2.3,6.4-5.5,6.5-10.2
		C94.5,41.1,92.2,37.9,88.2,35.6z"/>
</g>
</svg>
