<?xml version="1.0" encoding="utf-8"?>
<!-- Generator: Adobe Illustrator 24.0.2, SVG Export Plug-In . SVG Version: 6.00 Build 0)  -->
<svg version="1.1" id="Capa_1" xmlns="http://www.w3.org/2000/svg" xmlns:xlink="http://www.w3.org/1999/xlink" x="0px" y="0px"
	 viewBox="0 0 128 128" style="enable-background:new 0 0 128 128;" xml:space="preserve">
<style type="text/css">
	.st0{fill:#FC6675;}
	.st1{fill:#FE9DAB;}
</style>
<path class="st0" d="M36.7,31c0.2,0,0.4,0,0.6,0c0.6,0.1,1.2,0.1,1.8,0c0.2,0,0.4,0,0.6,0c0.6,0.1,1.2,0.1,1.8,0c0.2,0,0.4,0,0.6,0
	c0.6,0.1,1.2,0.1,1.8,0c0.2,0,0.4,0,0.6,0c0.6,0.1,1.2,0.1,1.8,0c0.2,0,0.4,0,0.6,0c0.6,0.1,1.2,0.1,1.8,0c0.2,0,0.4,0,0.6,0
	c0.6,0.1,1.2,0.1,1.8,0c0.2,0,0.4,0,0.7,0c0.1,0.1,0.1,0.1,0.2,0.1c0.1,0,0.2,0,0.3,0.1c0,0.1-0.1,0.2-0.2,0.2
	c-0.2,0.2-0.5,0.4-0.6,0.6c-0.9,1.4-1.6,3-2.1,4.6c-0.3,1-0.6,2-0.9,3c-0.3,1-0.6,2-0.8,3c-0.5,1.8-0.9,3.6-1.3,5.4
	c-0.3,1.3-0.6,2.5-0.8,3.8c-0.2,0.9-0.4,1.9-0.6,2.8c-0.3,1.6-0.6,3.2-1,4.8c-0.2,1.3-0.5,2.5-0.7,3.8c-0.2,1.3-0.5,2.6-0.7,3.9
	c-0.1,0.5-0.3,1-0.2,1.5c0,0.1,0,0.2,0,0.3c-0.3,0.7-0.4,1.5-0.5,2.3c-0.3,1.5-0.6,3.1-0.9,4.6c-0.1,0.3-0.2,0.6-0.1,1
	c0,0,0,0.1,0,0.1c-0.3,0.5-0.4,1-0.4,1.6c0,0,0,0.1,0,0.1c-0.1,0-0.1,0.1-0.1,0.2c-0.1,0.8-0.4,1.6-0.5,2.4
	c-0.3,1.5-0.7,2.9-1.1,4.3c-0.1,0.3-0.3,0.6-0.2,1c0,0,0,0.1,0,0.1c-0.1,0-0.1,0.1-0.1,0.2c-0.2,0.8-0.5,1.5-0.7,2.2
	c-0.4,1.1-0.8,2.3-1.3,3.3c-0.2,0.5-0.6,0.8-0.7,1.3c0,0,0,0,0,0.1c-0.3,0.1-0.5,0.3-0.6,0.6c0,0,0,0,0,0c-0.7,0.6-1.5,0.4-2.2,0.4
	c-5.4,0-10.8,0-16.3,0c-0.1,0-0.3,0.1-0.4-0.1c0-0.1,0.1-0.2,0.2-0.3c0.6-0.5,1-1.1,1.3-1.8c0.6-1.3,1.2-2.6,1.6-3.9
	c0.3-0.9,0.6-1.8,0.8-2.7c0.4-1.5,0.8-2.9,1.2-4.4c0.2-0.8,0.4-1.5,0.5-2.3c0.2-1,0.5-2.1,0.7-3.1c0.2-0.9,0.4-1.8,0.6-2.7
	c0.2-1.1,0.5-2.2,0.7-3.3c0.2-1.1,0.4-2.1,0.6-3.2c0.1-0.6,0.2-1.2,0.3-1.8c0.1-0.5,0.3-0.9,0.2-1.4c0,0,0-0.1,0-0.1
	c0.2-0.6,0.4-1.2,0.4-1.9c0-0.2,0.1-0.3,0.1-0.5c0.1,0,0.1-0.1,0-0.2c0-0.1,0-0.1,0-0.2c0.1-0.1,0.1-0.2,0.1-0.3
	c0.2-1.3,0.5-2.5,0.7-3.7c0.3-1.6,0.6-3.1,0.9-4.7c0.4-1.8,0.8-3.6,1.2-5.4c0.4-1.7,0.8-3.4,1.2-5.1c0.7-2.7,1.4-5.4,2.6-7.9
	c0.4-0.8,0.8-1.7,1.5-2.3c0.4-0.4,0.8-0.6,1.3-0.6C35.3,31.1,36,31.1,36.7,31z"/>
<path class="st0" d="M64.3,62c0.6-3,1.1-6,1.7-8.9c0.6-2.8,1.2-5.6,1.8-8.4c0.5-2.2,1-4.3,1.7-6.4c0.6-2,1.3-4,2.4-5.8
	c0.2-0.3,0.4-0.5,0.6-0.8c0.5-0.4,0.9-0.7,1.6-0.7c1.4,0,2.8,0.1,4.2,0c0.1,0.1,0.3,0.1,0.4,0.1c4.1,0,8.2,0,12.3,0
	c0.1,0,0.3-0.1,0.3,0.1c0.1,0.1-0.1,0.2-0.2,0.3c-0.5,0.5-1,1-1.3,1.7c-0.7,1.3-1.2,2.6-1.7,4c-0.5,1.5-1,3.1-1.4,4.7
	c-0.5,1.8-0.9,3.5-1.3,5.3c-0.4,1.6-0.7,3.2-1,4.8c-0.2,1.1-0.4,2.2-0.6,3.3c-0.3,1.3-0.5,2.5-0.8,3.8c-0.4,1.9-0.7,3.8-1,5.7
	c0,0.2-0.2,0.4,0,0.5c0,0,0,0.1,0,0.1c-0.3,0.6-0.4,1.3-0.4,2c0,0,0,0.1,0,0.1c-0.1,0-0.1,0.1-0.1,0.2c-0.2,1.1-0.4,2.2-0.7,3.3
	c-0.3,1.6-0.6,3.2-0.9,4.7c-0.3,1.2-0.5,2.4-0.8,3.6c-0.3,1.2-0.5,2.4-0.8,3.6c-0.6,2.3-1.2,4.6-2,6.9c-0.4,1.2-0.9,2.4-1.5,3.5
	c-0.1,0.3-0.4,0.5-0.5,0.8c-0.1,0.1-0.1,0.1-0.2,0.2c-0.2,0.1-0.4,0.3-0.5,0.5c0,0,0,0-0.1,0c-0.3,0.1-0.6,0.2-0.9,0.2
	c-5.5,0-10.9,0-16.4,0c-0.3,0-0.6,0-0.9,0c-0.1,0-0.2,0-0.2-0.1c0-0.1,0.1-0.2,0.1-0.2c0.5-0.4,0.8-1,1.1-1.5
	c0.7-1.2,1.1-2.5,1.6-3.8c0.5-1.4,0.9-2.7,1.3-4.1c0.4-1.6,0.8-3.2,1.2-4.8c0.4-1.7,0.8-3.4,1.1-5.1c0.3-1.2,0.5-2.4,0.8-3.7
	c0.3-1.4,0.5-2.7,0.8-4.1c0.2-0.9,0.4-1.9,0.6-2.8c0-0.1,0-0.3,0.1-0.4c0.1,0,0.1-0.1,0-0.2c0-0.1,0-0.2,0-0.3c0.1,0,0.1-0.1,0-0.2
	c0.1-0.3,0.1-0.7,0.2-1c0.1,0,0.1-0.1,0-0.2c0-0.1,0-0.2,0.1-0.3C64.3,62.1,64.4,62.1,64.3,62z"/>
<path class="st1" d="M82.2,65.2c-0.1-0.2,0-0.4,0-0.5c0.3-1.9,0.6-3.8,1-5.7c0.3-1.3,0.5-2.5,0.8-3.8c0.3-1.1,0.4-2.2,0.6-3.3
	c0.4-1.6,0.7-3.2,1-4.8c0.4-1.8,0.8-3.5,1.3-5.3c0.4-1.6,0.9-3.1,1.4-4.7c0.5-1.4,1-2.7,1.7-4c0.3-0.6,0.8-1.2,1.3-1.7
	c0.1-0.1,0.2-0.1,0.2-0.3c-0.1-0.1-0.2-0.1-0.3-0.1c-4.1,0-8.2,0-12.3,0c-0.1,0-0.3,0.1-0.4-0.1c0.1-0.1,0.3-0.1,0.4-0.1
	c4.1,0,8.3,0,12.4,0c0.6,0,1.1,0,1.7,0.1c0.2,0,0.3,0.1,0.4,0.1c0.9,0.6,1.5,1.3,2,2.2c0.8,1.5,1.3,3,1.8,4.6c0.6,2,1.2,4.1,1.7,6.1
	c0.6,2.3,1.1,4.7,1.6,7.1c0.3,1.3,0.5,2.7,0.8,4c0.3,1.1,0.4,2.3,0.6,3.4c0.2,1.2,0.5,2.4,0.7,3.6c0.3,1.9,0.7,3.7,1,5.6
	c0,0.4,0,0.8,0.4,1.1c-0.1,0.3-0.3,0.5-0.4,0.8c-0.4,1-0.7,2-1,3.1c-0.6,2-1,4.1-1.4,6.1c-0.2,1-0.4,2-0.6,3c-0.2,1.5-0.6,2.9-1,4.3
	c-0.4,1.4-0.8,2.7-1.3,4c-0.8,1.8-1.7,3.5-3.5,4.5c0,0,0,0,0,0.1c0.1,0.1,0.3,0,0.5,0c3.5,0,7,0,10.6,0c2.3,0,4.6,0,6.9,0
	c-0.1,0.2-0.3,0.1-0.4,0.1c-1.4,0-2.8,0-4.1,0c-4.2,0.1-8.5,0.1-12.7,0c-0.5,0-1-0.1-1.5-0.2c-0.7-0.1-1.1-0.7-1.5-1.2
	c-1-1.3-1.6-2.9-2.1-4.4c-0.7-2.1-1.3-4.2-1.8-6.4c-0.5-1.9-0.9-3.8-1.3-5.7c-0.3-1.3-0.6-2.6-0.8-3.9c-0.2-0.8-0.3-1.5-0.4-2.3
	c-0.2-1.1-0.5-2.2-0.7-3.4c-0.3-1.4-0.5-2.9-0.8-4.3c-0.3-1.4-0.5-2.8-0.8-4.2c0,0,0-0.1-0.1-0.1c-0.1,0.1-0.1,0.2-0.1,0.3
	c-0.2,1-0.3,2-0.5,2.9c-0.2,0.9-0.3,1.7-0.4,2.6C82.3,64.9,82.3,65.1,82.2,65.2z"/>
<path class="st1" d="M63.8,64.7c-0.2,0.9-0.4,1.9-0.6,2.8c-0.3,1.4-0.5,2.7-0.8,4.1c-0.2,1.2-0.5,2.4-0.8,3.7
	c-0.4,1.7-0.7,3.4-1.1,5.1c-0.4,1.6-0.8,3.2-1.2,4.8c-0.4,1.4-0.8,2.8-1.3,4.1c-0.4,1.3-0.9,2.6-1.6,3.8c-0.3,0.6-0.6,1.1-1.1,1.5
	c-0.1,0.1-0.2,0.1-0.1,0.2c0,0.1,0.2,0.1,0.2,0.1c0.3,0,0.6,0,0.9,0c5.5,0,10.9,0,16.4,0c0.3,0,0.6-0.1,0.9-0.2
	C73.6,95,73.3,95,73,95c-2.2,0-4.3,0-6.5,0c-3.3,0-6.7,0-10,0c-0.5,0-1,0-1.5,0c-0.9,0-1.4-0.5-1.9-1.1c-0.7-1-1.2-2.1-1.7-3.2
	c-0.5-1.3-0.9-2.6-1.3-3.9c-0.4-1.4-0.8-2.8-1.1-4.2c-0.4-1.7-0.8-3.5-1.2-5.2c-0.2-1-0.5-2-0.6-3c-0.4-1.9-0.8-3.9-1.1-5.8
	c-0.2-1.4-0.6-2.8-0.8-4.2c-0.3-1.7-0.7-3.5-1-5.2c0-0.1-0.1-0.2-0.2-0.3c-0.1,0.5-0.2,1-0.3,1.6c-0.3,1.7-0.6,3.3-0.9,5
	c-0.2,0.9-0.3,1.9-0.5,2.8c0,0.1,0,0.3-0.2,0.3c0-0.5,0.1-1,0.2-1.5c0.2-1.3,0.5-2.6,0.7-3.9c0.2-1.3,0.5-2.5,0.7-3.8
	c0.3-1.6,0.6-3.2,1-4.8c0.2-0.9,0.5-1.9,0.6-2.8c0.2-1.3,0.5-2.5,0.8-3.8c0.4-1.8,0.8-3.6,1.3-5.4c0.3-1,0.5-2,0.8-3
	c0.3-1,0.6-2,0.9-3c0.5-1.6,1.2-3.2,2.1-4.6c0.2-0.2,0.4-0.4,0.6-0.6c0.1-0.1,0.2-0.1,0.2-0.2c0-0.1-0.2,0-0.3-0.1
	c-0.1,0-0.2,0-0.2-0.1c0.1-0.1,0.3-0.1,0.4-0.1c0.4,0.1,0.8,0.1,1.2,0c0.3,0,0.5,0.1,0.8,0.2c1,0.6,1.6,1.5,2.1,2.5
	c0.5,1.1,1,2.2,1.4,3.4c0.5,1.6,1,3.2,1.4,4.8c0.5,1.8,0.9,3.6,1.3,5.4c0.3,1.4,0.7,2.7,0.9,4.1c0.4,2.3,0.9,4.5,1.3,6.8
	c0.4,2.1,0.8,4.2,1.1,6.3C63.6,64.6,63.6,64.7,63.8,64.7z"/>
<path class="st0" d="M112.6,94.9c-2.3,0-4.6,0-6.9,0c-3.5,0-7,0-10.6,0c-0.2,0-0.3,0-0.5,0c0,0,0-0.1,0-0.1c1.8-1,2.7-2.7,3.5-4.5
	c0.6-1.3,1-2.7,1.3-4c0.4-1.4,0.7-2.9,1-4.3c0.1-1,0.4-2,0.6-3c0.3-2.1,0.8-4.1,1.4-6.1c0.3-1,0.6-2.1,1-3.1
	c0.1-0.3,0.3-0.5,0.4-0.8c0.3-0.4,0.5-0.9,0.8-1.3c0.2-0.1,0.4-0.3,0.4-0.5c0,0,0.1-0.1,0.1-0.1c0.1,0,0.2-0.1,0.2-0.2c0,0,0,0,0,0
	c0.2,0,0.3-0.1,0.3-0.3c0,0,0,0,0.1,0c0.1,0,0.2-0.1,0.3-0.1c0.9-0.6,1.9-1,3-1c5.4,0,10.9,0,16.3,0c0.1,0,0.3,0,0.4,0
	c0.2,0,0.4,0,0.5,0c0,0.2-0.1,0.2-0.3,0.3c-0.3,0.1-0.7,0.3-1,0.4c-0.4,0.2-0.9,0.3-1.2,0.7c0,0,0,0-0.1,0c-0.7,0.3-1.3,0.8-1.7,1.4
	c0,0-0.1,0.1-0.1,0.1c-0.3,0.1-0.5,0.3-0.6,0.6c0,0,0,0,0,0.1c-0.3,0.2-0.6,0.6-0.7,1c0,0,0,0,0,0.1c-0.1,0-0.2,0.1-0.2,0.3
	c-0.8,1.5-1.4,3.1-1.8,4.8c-0.3,1.1-0.5,2.3-0.7,3.4c-0.2,1.1-0.3,2.2-0.5,3.3c-0.1,0.7-0.2,1.3-0.1,2c0,0.1,0,0.2,0,0.3
	c-0.1,0-0.1,0.1-0.1,0.2c-0.1,1.1-0.3,2.2-0.5,3.3c0,0.1-0.1,0.3,0,0.4c0,0,0,0.1,0,0.1c-0.2,0.2-0.2,0.5-0.3,0.8
	c-0.2,0.8-0.5,1.6-0.9,2.4c-0.2,0.4-0.4,0.9-0.6,1.4c0,0,0,0,0,0c-0.2,0-0.2,0.2-0.2,0.3c0,0,0,0,0,0.1c-0.3,0.2-0.5,0.5-0.6,0.8
	c0,0,0,0,0,0c-0.2,0-0.3,0.1-0.3,0.3c0,0,0,0,0,0c-0.2,0.2-0.5,0.3-0.7,0.6C112.7,94.8,112.7,94.9,112.6,94.9z"/>
<path class="st1" d="M24.4,63.9c0.1,0.5-0.1,0.9-0.2,1.4c-0.1,0.6-0.2,1.2-0.3,1.8c-0.2,1.1-0.4,2.1-0.6,3.2
	c-0.2,1.1-0.5,2.2-0.7,3.3c-0.2,0.9-0.4,1.8-0.6,2.7c-0.2,1.1-0.5,2.1-0.7,3.1c-0.2,0.8-0.4,1.5-0.5,2.3c-0.3,1.5-0.8,2.9-1.2,4.4
	c-0.2,0.9-0.5,1.8-0.8,2.7c-0.4,1.3-1,2.6-1.6,3.9C17,93.4,16.5,94,16,94.5c-0.1,0.1-0.3,0.2-0.2,0.3c0.1,0.1,0.2,0.1,0.4,0.1
	c5.4,0,10.8,0,16.3,0c0.8,0,1.6,0.2,2.2-0.4c-0.2,0.4-0.5,0.6-0.8,0.6c-0.5,0-1.1,0.1-1.6,0.1c-4.1,0-8.3,0-12.4,0
	c-1.3,0-2.7-0.1-4-0.1c-0.9,0-1.4-0.6-1.9-1.2c-0.9-1.2-1.3-2.6-1.8-4.1c-0.4-1.4-0.7-2.8-1-4.3c-0.3-1.2-0.4-2.5-0.6-3.7
	c-0.2-1.2-0.5-2.3-0.8-3.5c-0.5-2-1.1-3.9-1.9-5.8C7,70.6,6,68.8,4.5,67.3c-0.8-0.8-1.8-1.4-2.9-1.7c-0.1,0-0.2,0-0.2-0.1
	c0-0.1,0.2-0.1,0.2-0.1c0.1,0,0.3,0,0.4,0c5.6,0,11.2,0,16.8,0c1.7,0,3.1,0.6,4.3,1.8c0.1,0.1,0.2,0.4,0.4,0.3
	c0.2-0.1,0.2-0.3,0.2-0.5c0.1-0.9,0.3-1.8,0.4-2.7C24.3,64.1,24.3,64,24.4,63.9z"/>
<path class="st1" d="M74.5,93.9c0-0.3,0.3-0.5,0.5-0.8c0.6-1.1,1.1-2.3,1.5-3.5c0.8-2.2,1.4-4.5,2-6.9c0.3-1.2,0.5-2.4,0.8-3.6
	c0.3-1.2,0.5-2.4,0.8-3.6c0.4-1.6,0.6-3.2,0.9-4.7c0.2-1.1,0.4-2.2,0.7-3.3c0-0.1,0-0.1,0.1-0.2c0,0.5-0.1,1-0.2,1.5
	c-0.3,1.6-0.6,3.3-0.9,4.9c-0.3,1.2-0.5,2.4-0.8,3.5c-0.3,1.2-0.5,2.4-0.8,3.6c-0.5,2.2-1.1,4.4-1.7,6.5c-0.4,1.3-0.9,2.7-1.4,4
	c-0.3,0.8-0.8,1.6-1.3,2.4C74.6,93.9,74.5,93.9,74.5,93.9z"/>
<path class="st1" d="M125.7,65.3c-0.1,0.1-0.3,0-0.4,0c-5.4,0-10.9,0-16.3,0c-1.1,0-2.1,0.3-3,1c-0.1,0.1-0.1,0.1-0.3,0.1
	c0.2-0.4,0.6-0.5,0.9-0.7c0.7-0.4,1.5-0.6,2.3-0.6c5.4,0,10.9,0,16.3,0C125.4,65.3,125.6,65.2,125.7,65.3z"/>
<path class="st1" d="M117.2,83.8c0-0.7,0.1-1.4,0.1-2c0.1-1.1,0.2-2.2,0.5-3.3c0.2-1.1,0.4-2.3,0.7-3.4c0.4-1.7,1-3.3,1.8-4.8
	c0.1-0.1,0.1-0.2,0.2-0.3c0,0.2-0.2,0.3-0.2,0.5c-0.8,1.5-1.3,3-1.7,4.6c-0.4,1.8-0.7,3.6-1,5.5c-0.1,1-0.2,1.9-0.3,2.9
	C117.3,83.6,117.3,83.7,117.2,83.8z"/>
<path class="st1" d="M40.5,76.8c-0.1-0.3,0.1-0.6,0.1-1c0.3-1.5,0.6-3.1,0.9-4.6c0.2-0.8,0.2-1.6,0.5-2.3c0.1,0.4-0.1,0.8-0.2,1.2
	c-0.3,1.6-0.6,3.1-0.9,4.7c-0.1,0.6-0.2,1.1-0.4,1.7C40.6,76.6,40.6,76.7,40.5,76.8z"/>
<path class="st1" d="M38.1,86.6c-0.1-0.4,0.1-0.7,0.2-1c0.3-1.4,0.8-2.9,1.1-4.3c0.2-0.8,0.4-1.6,0.5-2.4c0-0.1,0.1-0.2,0.1-0.2
	c0.1,0.5-0.1,0.9-0.2,1.3c-0.4,2-0.9,4-1.5,5.9C38.4,86.1,38.3,86.4,38.1,86.6z"/>
<path class="st1" d="M35.2,93.8c0.2-0.5,0.5-0.9,0.7-1.3c0.5-1.1,0.9-2.2,1.3-3.3c0.2-0.7,0.5-1.5,0.7-2.2c0-0.1,0.1-0.2,0.1-0.2
	c0.1,0.2-0.1,0.4-0.1,0.6c-0.5,1.8-1.1,3.5-2,5.2C35.8,93,35.6,93.5,35.2,93.8z"/>
<path class="st1" d="M114.7,92.6c0.2-0.5,0.4-0.9,0.6-1.4c0.4-0.8,0.7-1.6,0.9-2.4c0.1-0.3,0.1-0.6,0.3-0.8c0.1,0.4-0.1,0.7-0.2,1
	c-0.4,1.1-0.8,2.3-1.4,3.3C114.8,92.5,114.8,92.6,114.7,92.6z"/>
<path class="st1" d="M116.5,87.9c-0.1-0.1,0-0.3,0-0.4c0.3-1.1,0.4-2.2,0.5-3.3c0-0.1,0-0.1,0.1-0.2c0.1,0.3,0,0.5,0,0.8
	c-0.1,0.9-0.3,1.8-0.5,2.7C116.7,87.7,116.7,87.8,116.5,87.9z"/>
<path class="st1" d="M123.8,66.8c0.3-0.4,0.8-0.5,1.2-0.7c0.3-0.2,0.7-0.3,1-0.4c0.1-0.1,0.3-0.1,0.3-0.3c0.1-0.1,0.2-0.1,0.3,0
	c0,0.1-0.1,0.1-0.1,0.2C125.5,65.9,124.7,66.3,123.8,66.8C123.8,66.8,123.8,66.8,123.8,66.8z"/>
<path class="st1" d="M122,68.2c0.5-0.6,1-1.1,1.7-1.4C123.2,67.3,122.6,67.7,122,68.2z"/>
<path class="st1" d="M24.8,61.9c0,0.7-0.1,1.3-0.4,1.9C24.4,63.2,24.6,62.5,24.8,61.9z"/>
<path class="st1" d="M81.8,67.3c0-0.7,0.1-1.3,0.4-2C82.1,66,82,66.6,81.8,67.3z"/>
<path class="st1" d="M36.7,31c-0.7,0.1-1.4,0.1-2.1,0c0.2-0.1,0.4-0.1,0.5-0.1C35.6,31,36.2,30.9,36.7,31z"/>
<path class="st1" d="M46.2,31c-0.6,0.1-1.2,0.1-1.8,0C45,30.9,45.6,30.9,46.2,31z"/>
<path class="st1" d="M39.1,31c-0.6,0.1-1.2,0.1-1.8,0C37.9,30.9,38.5,30.9,39.1,31z"/>
<path class="st1" d="M41.4,31c-0.6,0.1-1.2,0.1-1.8,0C40.2,30.9,40.8,30.9,41.4,31z"/>
<path class="st1" d="M43.8,31c-0.6,0.1-1.2,0.1-1.8,0C42.6,30.9,43.2,30.9,43.8,31z"/>
<path class="st1" d="M51,31c-0.6,0.1-1.2,0.1-1.8,0C49.8,30.9,50.4,30.9,51,31z"/>
<path class="st1" d="M48.6,31c-0.6,0.1-1.2,0.1-1.8,0C47.4,30.9,48,30.9,48.6,31z"/>
<path class="st1" d="M40.1,78.5c0-0.6,0.1-1.1,0.4-1.6C40.5,77.4,40.4,78,40.1,78.5z"/>
<path class="st1" d="M120.6,69.9c0.1-0.4,0.4-0.7,0.7-1C121.1,69.3,120.9,69.6,120.6,69.9z"/>
<path class="st1" d="M113.7,93.9c0.2-0.3,0.4-0.6,0.6-0.8C114.3,93.4,114.1,93.7,113.7,93.9z"/>
<path class="st1" d="M112.8,94.8c0.1-0.3,0.4-0.4,0.7-0.6C113.3,94.6,113,94.7,112.8,94.8z"/>
<path class="st1" d="M121.3,68.9c0.1-0.3,0.3-0.5,0.6-0.6C121.8,68.6,121.6,68.7,121.3,68.9z"/>
<path class="st1" d="M34.6,94.5c0.1-0.3,0.3-0.5,0.6-0.6C35.1,94.1,34.9,94.3,34.6,94.5z"/>
<path class="st1" d="M73.8,94.7c0.1-0.2,0.3-0.4,0.5-0.5C74.2,94.4,74.1,94.6,73.8,94.7z"/>
<path class="st1" d="M105.1,67.1c0,0.3-0.2,0.4-0.4,0.5C104.7,67.4,104.9,67.3,105.1,67.1z"/>
<path class="st1" d="M105.7,66.5c0,0.2-0.1,0.3-0.3,0.3C105.4,66.6,105.5,66.5,105.7,66.5z"/>
<path class="st1" d="M113.5,94.2c0-0.2,0.1-0.3,0.3-0.3C113.7,94,113.6,94.1,113.5,94.2z"/>
<path class="st1" d="M114.4,93c0-0.1,0-0.3,0.2-0.3C114.6,92.8,114.6,92.9,114.4,93z"/>
<path class="st1" d="M105.4,66.8c0,0.1-0.1,0.2-0.2,0.2C105.2,66.9,105.3,66.8,105.4,66.8z"/>
<path class="st1" d="M25,60.8c0,0.1,0,0.2-0.1,0.3C24.9,61,24.9,60.9,25,60.8z"/>
<path class="st1" d="M63.9,64.1c0.1,0.1,0,0.1,0,0.2C63.8,64.2,63.8,64.2,63.9,64.1z"/>
<path class="st1" d="M64.2,62.5c0.1,0.1,0,0.1,0,0.2C64.1,62.6,64.1,62.5,64.2,62.5z"/>
<path class="st1" d="M64.3,62c0.1,0.1,0.1,0.1,0,0.1C64.2,62.1,64.2,62.1,64.3,62z"/>
<path class="st1" d="M64,63.7c0.1,0.1,0,0.1,0,0.2C63.9,63.8,63.9,63.7,64,63.7z"/>
<path class="st1" d="M24.9,61.3c0.1,0.1,0,0.1,0,0.2C24.9,61.4,24.9,61.3,24.9,61.3z"/>
</svg>
