<svg width="129" height="128" viewBox="0 0 129 128" fill="none" xmlns="http://www.w3.org/2000/svg">
<path d="M65 70.5004C65.1 74.6004 67.6 76.3004 70.7 76.3004C72.9 76.3004 74.2 75.9004 75.3 75.4004L75.8 77.6004C74.7 78.1004 72.9 78.7004 70.2 78.7004C65.1 78.7004 62 75.3004 62 70.3004C62 65.3004 65 61.4004 69.8 61.4004C75.3 61.4004 76.7 66.1004 76.7 69.2004C76.7 69.8004 76.7 70.3004 76.6 70.6004H65V70.5004ZM73.8 68.3004C73.8 66.4004 73 63.4004 69.6 63.4004C66.5 63.4004 65.2 66.2004 65 68.3004H73.8ZM80.5 53.9004H83.5V78.3004H80.5V53.9004Z" fill="black"/>
<path d="M91.9998 56.9C91.9998 57.9 91.2998 58.8 90.0998 58.8C88.9998 58.8 88.2998 58 88.2998 56.9C88.2998 55.8 89.0998 55 90.1998 55C91.1998 55.1 91.9998 55.9 91.9998 56.9ZM88.5998 78.2V61.6H91.5998V78.2H88.5998Z" fill="black"/>
<path d="M97.9998 61.5996L100.4 65.1996C101.1 66.0996 101.6 66.9996 102.1 67.8996H102.2C102.7 66.8996 103.3 66.0996 103.9 65.1996L106.2 61.6996H109.5L103.8 69.6996L109.6 78.2996H106.2L103.7 74.5996C103 73.5996 102.5 72.6996 101.9 71.6996H101.8C101.3 72.6996 100.7 73.5996 99.9998 74.5996L97.5998 78.2996H94.2998L100.2 69.7996L94.5998 61.6996H97.9998V61.5996Z" fill="black"/>
<path d="M115.9 56.9C115.9 57.9 115.2 58.8 114 58.8C112.9 58.8 112.2 58 112.2 56.9C112.2 55.8 113 55 114.1 55C115.1 55.1 115.9 55.9 115.9 56.9ZM112.5 78.2V61.6H115.5V78.2H112.5Z" fill="black"/>
<path d="M120.6 66.8002L120.5 61.6002H123.1L123.2 64.9002H123.3C124.1 62.7002 125.9 61.3002 127.9 61.3002C128.2 61.3002 128.4 61.3002 128.7 61.4002V64.2002C128.4 64.1002 128.1 64.1002 127.7 64.1002C125.6 64.1002 124.1 65.7002 123.6 67.9002C123.5 68.3002 123.5 68.8002 123.5 69.3002V78.2002H120.5V66.8002H120.6ZM39.3 70.7002L40.7 69.8002C43.9 67.1002 42.8 62.1002 37.3 55.1002C37.4 58.6002 38 62.2002 38.6 66.0002C38.8 67.5002 39 69.1002 39.3 70.7002ZM8.40001 83.9002C10.2 91.7002 14.8 95.9002 20.1 97.7002C23 98.2002 25.9 98.1002 28.8 97.5002C29.3 97.3002 29.7 97.0002 30.1 96.7002C31.2 96.0002 32.2 95.1002 33.1 94.2002C29.4 92.6002 25.6 89.5002 22.1 85.9002C19.4 85.7002 16.7 85.4002 14.3 85.1002C12.1 84.9002 10.1 84.5002 8.40001 83.9002ZM7.60001 47.1002L7.50001 47.9002C6.70001 52.4002 6.70001 56.5002 7.30001 60.0002C7.90001 55.8002 8.80001 51.4002 10 47.3002C10.2 46.7002 10.3 46.0002 10.6 45.3002H10.7C11.6 42.4002 12.6 39.7002 13.8 37.1002C11.4 40.2002 9.40001 43.5002 7.60001 47.1002ZM7.20001 90.0002C9.04527 92.3266 11.3629 94.2353 14 95.6002C10.8 93.0002 8.30001 89.0002 7.20001 83.4002C5.00001 82.7002 3.30001 81.6002 2.00001 80.2002C2.90001 83.9002 4.60001 87.2002 7.20001 90.0002ZM6.90001 63.2002C5.90001 59.8002 5.50001 56.0002 5.90001 51.6002C5.30001 52.9002 4.70001 54.3002 4.10001 55.8002C1.50001 63.2002 0.300014 71.0002 1.40001 77.8002C2.60001 79.6002 4.40001 81.1002 6.90001 82.1002C6.10001 77.8002 6.00001 70.8002 6.90001 63.2002ZM8.10001 82.5002C8.10001 82.6002 8.10001 82.6002 8.10001 82.5002C9.90001 83.2002 12 83.6002 14.4 83.9002C16.4 84.2002 18.6 84.5002 20.8 84.6002C16.2 79.5002 12 73.4002 9.30001 68.4002C8.70001 67.5002 8.20001 66.5002 7.70001 65.5002C7.10001 72.5002 7.30001 78.7002 8.10001 82.5002ZM37.4 66.2002C36.8 61.9002 36.1 57.6002 36.1 53.5002C28.9 46.8002 21.8 39.6002 22.1 28.0002C21.9 28.2002 21.6 28.3002 21.5 28.5002C20.2 29.6002 19 30.8002 17.8 32.1002C15.2 35.7002 13.2 40.4002 11.6 45.5002C10.7 52.1002 17.1 65.1002 25.6 75.0002C29.7 74.8002 34 73.6002 38.2 71.3002C38 69.6002 37.7 67.9002 37.4 66.2002ZM43.1 88.8002C41.5735 88.4968 40.094 87.9924 38.7 87.3002C38 89.6002 36.8 91.8002 35.1 93.8002C35.7 94.0002 36.3 94.1002 36.9 94.2002C39.2 92.8002 41.4 90.9002 43.1 88.8002ZM23.3 27.1002C22.7 38.2002 29.1 45.3002 36 51.7002C29.9 43.6002 26.4 38.8002 26.4 25.2002C25.4 25.7002 24.4 26.4002 23.3 27.1002ZM35.3 85.4002C32.3 85.9002 29.1 86.0002 26.1 86.0002C25.3 86.0002 24.4 86.0002 23.6 85.9002C26.9 89.2002 30.4 91.9002 33.9 93.3002C35.7 91.3002 36.9 89.1002 37.7 86.7002C36.9 86.3002 36.1 85.9002 35.3 85.4002ZM34 84.5002C32.9 83.7002 31.8 82.8002 30.9 82.0002C28.868 80.1682 26.932 78.2322 25.1 76.2002C21.1 76.3002 17.3 75.3002 14.2 73.3002C13.7257 73.0238 13.2888 72.6877 12.9 72.3002C15.5 76.5002 18.9 81.0002 22.5 84.8002C26.2 85.0002 30.2 84.9002 34 84.5002ZM39.4 84.6002C39.3 85.2002 39.2 85.7002 39 86.3002C40.6 87.1002 42.2 87.7002 43.9 87.8002C45.3 85.9002 46.5 83.7002 47.1 81.4002C45.1 82.7002 42.4 83.8002 39.4 84.6002ZM14.8 72.3002C17.5 74.0002 20.7 74.9002 24.1 75.0002C17.1 66.7002 11.7 56.5002 10.6 49.3002C9.30001 54.4002 8.80001 57.5002 8.10001 62.8002V62.9002C8.70889 64.4735 9.41011 66.0095 10.2 67.5002C11.4 69.5002 12.9 71.1002 14.8 72.3002ZM38.3 72.5002C34.4 74.6002 30.4 75.8002 26.5 76.1002C28.2 77.9002 29.8 79.6002 31.5 81.1002C32.7 82.2002 34.1 83.3002 35.5 84.2002C36.5 84.0002 37.4 83.9002 38.3 83.7002C39 80.1002 38.8 76.4002 38.3 72.5002ZM39.6 83.4002C42.8 82.5002 45.6 81.3002 47.6 79.6002C48.5 75.7002 48.2 71.4002 46.3 66.8002C44.6 64.0002 43.1 61.6002 41.6 59.4002C44.3 64.4002 44.3 68.1002 41.4 70.6002L41.3 70.7002C40.7 71.1002 40 71.5002 39.4 71.9002C39.9 75.8002 40.1 79.7002 39.6 83.4002Z" fill="black"/>
</svg>
