<svg width="130" height="128" viewBox="0 0 130 128" fill="none" xmlns="http://www.w3.org/2000/svg">
<path opacity="0.998" d="M106.085 59.8398C105.146 59.8398 104.246 60.2128 103.582 60.8766C102.918 61.5405 102.545 62.4409 102.545 63.3798V64.7198C102.545 65.6587 102.918 66.5591 103.582 67.223C104.246 67.8868 105.146 68.2598 106.085 68.2598H125.465C126.404 68.2598 127.304 67.8868 127.968 67.223C128.632 66.5591 129.005 65.6587 129.005 64.7198V63.3798C129.005 62.4409 128.632 61.5405 127.968 60.8766C127.304 60.2128 126.404 59.8398 125.465 59.8398H106.085ZM4.53512 41.7998C3.59625 41.7998 2.69584 42.1728 2.03196 42.8366C1.36808 43.5005 0.995117 44.4009 0.995117 45.3398V46.6898C0.995117 47.6287 1.36808 48.5291 2.03196 49.193C2.69584 49.8568 3.59625 50.2298 4.53512 50.2298H23.9151C24.854 50.2298 25.7544 49.8568 26.4183 49.193C27.0822 48.5291 27.4551 47.6287 27.4551 46.6898V45.3398C27.4551 44.4009 27.0822 43.5005 26.4183 42.8366C25.7544 42.1728 24.854 41.7998 23.9151 41.7998H4.53512ZM4.53512 77.8698C3.59625 77.8698 2.69584 78.2428 2.03196 78.9067C1.36808 79.5705 0.995117 80.4709 0.995117 81.4098V82.7498C0.995117 83.2147 1.08668 83.675 1.26458 84.1045C1.44249 84.534 1.70324 84.9242 2.03196 85.253C2.36068 85.5817 2.75093 85.8424 3.18042 86.0203C3.60991 86.1982 4.07024 86.2898 4.53512 86.2898H23.9151C24.38 86.2898 24.8403 86.1982 25.2698 86.0203C25.6993 85.8424 26.0896 85.5817 26.4183 85.253C26.747 84.9242 27.0077 84.534 27.1856 84.1045C27.3636 83.675 27.4551 83.2147 27.4551 82.7498V81.4098C27.4551 80.4709 27.0822 79.5705 26.4183 78.9067C25.7544 78.2428 24.854 77.8698 23.9151 77.8698H4.53512Z" fill="#BEC7CC"/>
<path opacity="0.998" d="M30.7548 22.4599C26.3348 22.3699 22.6948 25.4499 22.6948 29.2799V98.7099C22.6948 103.96 29.2548 107.24 34.5048 104.62L103.995 69.8999C109.245 67.2799 109.245 60.7199 103.995 58.0999L34.5048 23.3799C33.3369 22.8046 32.0565 22.4939 30.7548 22.4699V22.4599Z" fill="#FFD500"/>
<path opacity="0.998" d="M65.5349 67.07H53.5849V79.06H47.4349V67.08H35.4849V61H47.4349V49.02H53.5849V61.01H65.5349V67.07Z" fill="#727B84"/>
</svg>
