<?xml version="1.0" encoding="utf-8"?>
<!-- Generator: Adobe Illustrator 24.0.2, SVG Export Plug-In . SVG Version: 6.00 Build 0)  -->
<svg version="1.1" id="Capa_1" xmlns="http://www.w3.org/2000/svg" xmlns:xlink="http://www.w3.org/1999/xlink" x="0px" y="0px"
	 viewBox="0 0 128 128" style="enable-background:new 0 0 128 128;" xml:space="preserve">
<style type="text/css">
	.st0{fill:#0F181F;}
	.st1{fill:#FFFFFF;}
</style>
<path class="st0" d="M128,128c-42.7,0-85.3,0-128,0C0,85.3,0,42.7,0,0c42.7,0,85.3,0,128,0C128,42.7,128,85.3,128,128z"/>
<path class="st1" d="M118.8,74.7c-0.1,6.8-5.5,12.2-12.3,12.1c-6.7-0.1-12.1-5.5-12-12.2c0.1-6.8,5.6-12.2,12.3-12.1
	C113.4,62.5,118.8,68,118.8,74.7z"/>
<path class="st1" d="M40.9,74.8c0,12,0,24,0,36.1c-8.1,0-16,0-23.9,0c0-29.9,0-59.7,0-89.6c7.9,0,15.8,0,24,0c0,3.7,0,7.5,0,11.3
	c0.1,0,0.2,0,0.3,0c0.1-0.3,0.3-0.5,0.4-0.8c2.9-6.2,7.6-9.9,14.3-11.1c5.3-0.9,10.5-0.5,15.4,1.8c5.4,2.5,9.1,6.8,11.1,12.3
	c4.5,12.4,4.7,25-0.1,37.3c-5,13.1-20.2,18.5-32.7,11.9c-3.4-1.8-6-4.4-7.7-7.9c-0.2-0.5-0.5-1-0.8-1.5C41.2,74.7,41,74.7,40.9,74.8
	z M61.1,53.2c0-2.7-0.3-5.8-1.7-8.6c-1.7-3.4-4.2-5.7-8.2-5.8c-4.1-0.1-6.9,2-8.5,5.6C40,50.5,40,56.7,42.8,62.8
	c1.6,3.4,4.3,5.2,8.1,5.3c3.8,0,6.4-1.9,8.2-5.2C60.7,60,61.1,56.8,61.1,53.2z"/>
</svg>
