<svg width="129" height="128" viewBox="0 0 129 128" fill="none" xmlns="http://www.w3.org/2000/svg">
<path d="M70.334 59.3425H103.424M75.8402 66.1912H108.927" stroke="black" stroke-width="2.74564"/>
<path fill-rule="evenodd" clip-rule="evenodd" d="M62.0022 13.6721C57.0262 13.6721 52.1862 14.2101 49.0672 15.4421C49.0642 15.4421 49.0582 15.4401 49.0552 15.4421C40.7952 18.4671 34.5652 26.6031 32.7092 36.3851V36.3911C32.7072 36.3971 32.7042 36.4021 32.7032 36.4081C31.0592 44.1621 30.6272 50.7311 29.7532 56.6711C28.8772 62.6181 27.5762 67.9211 24.2202 73.3421L25.9782 74.4191C29.5262 68.6881 30.9042 63.0381 31.7982 56.9741C32.6902 50.9101 33.1152 44.4171 34.7302 36.8101V36.7871C36.4662 27.6071 42.3272 20.0831 49.7912 17.3621L49.8032 17.3571L49.8202 17.3511C52.4212 16.3221 57.1802 15.7321 62.0022 15.7331C66.8182 15.7331 71.7572 16.3131 74.7962 17.3681H74.8082C82.2662 20.0941 88.1182 27.6141 89.8462 36.7871V36.7981L89.8522 36.8101C91.4682 44.4171 91.8912 50.9101 92.7842 56.9741C93.6782 63.0381 95.0582 68.6941 98.6092 74.4241L100.368 73.3421C97.0082 67.9211 95.7052 62.6181 94.8292 56.6711C93.9542 50.7311 93.5192 44.1631 91.8732 36.4081L91.8672 36.3911C90.0152 26.5951 83.7832 18.4471 75.5032 15.4301H75.4852C72.0272 14.2271 66.9822 13.6721 62.0022 13.6721Z" fill="black"/>
<path d="M83.258 51.5161C83.258 49.5821 81.766 48.0161 79.922 48.0161C78.078 48.0161 76.582 49.5821 76.582 51.5161C76.582 53.4491 78.078 55.0161 79.922 55.0161C81.766 55.0161 83.258 53.4491 83.258 51.5161ZM49.531 51.5161C49.531 49.5821 48.035 48.0161 46.191 48.0161C44.348 48.0161 42.855 49.5821 42.855 51.5161C42.855 53.4491 44.348 55.0161 46.191 55.0161C48.035 55.0161 49.531 53.4491 49.531 51.5161Z" fill="#E7E8E9"/>
<path d="M51.8009 48.9299L39.3979 52.2399L39.756 53.5629L52.159 50.2549L51.8009 48.9299ZM53.041 50.9199L40.57 58.0999L41.254 59.2829L53.7299 52.1089L53.041 50.9199ZM53.9539 53.3029L41.3069 65.9139L42.277 66.8809L54.924 54.2699L53.9539 53.3029ZM54.374 56.4199L47.9049 67.5779L49.0989 68.2659L55.562 57.1069L54.374 56.4199ZM75.2969 48.9299L87.6999 52.2399L87.347 53.5629L74.939 50.2549L75.2969 48.9299ZM74.0569 50.9199L86.527 58.0999L85.843 59.2829L73.3669 52.1089L74.0569 50.9199ZM73.1439 53.3029L85.791 65.9139L84.8209 66.8809L72.174 54.2699L73.1439 53.3029ZM72.7239 56.4199L79.193 67.5779L77.999 68.2659L71.536 57.1069L72.7239 56.4199Z" fill="black"/>
<path d="M63.4102 37.887C56.9632 37.887 51.6602 42.87 51.6602 49.063C51.6602 55.253 56.9632 60.239 63.4102 60.239C69.8622 60.239 75.1582 55.253 75.1582 49.063C75.1582 42.87 69.8622 37.887 63.4102 37.887ZM63.4102 39.942C68.8032 39.942 73.0962 44.038 73.0962 49.063C73.0962 54.085 68.8032 58.184 63.4102 58.184C58.0232 58.184 53.7232 54.084 53.7232 49.064C53.7232 44.038 58.0232 39.942 63.4102 39.942Z" fill="#60605B"/>
<path d="M74.6539 40.3864C74.6539 37.4746 76.966 35.1172 79.8137 35.1172C82.6643 35.1172 84.9736 37.4746 84.9736 40.3864C84.9736 43.3011 82.6643 45.6615 79.8137 45.6615C76.966 45.6615 74.6539 43.3011 74.6539 40.3864Z" fill="black" stroke="black" stroke-width="2.06017" stroke-linecap="square"/>
<path d="M80.1129 26.065C79.1751 26.0305 78.2402 26.1864 77.3644 26.5235C76.4887 26.8605 75.6904 27.3717 75.0179 28.026L74.2759 28.748L75.7189 30.215L76.4549 29.499C76.9269 29.0395 77.4871 28.6804 78.1017 28.4432C78.7163 28.206 79.3725 28.0958 80.0309 28.119C81.4449 28.189 82.7589 28.869 83.6299 29.982L84.2659 30.792L85.8909 29.528L85.2599 28.719C84.6444 27.9339 83.8672 27.2905 82.981 26.8326C82.0947 26.3746 81.1203 26.1128 80.1239 26.065H80.1179H80.1129ZM62.3209 47.262L62.0829 51.981C61.8529 52.167 61.2789 52.677 60.3399 52.994C59.7849 53.18 59.2329 53.241 58.7469 53.118C58.3339 53.012 57.9189 52.652 57.4969 52.105C57.5249 51.888 57.5349 51.795 57.5849 51.438C57.6719 50.814 57.7939 50.064 57.8499 49.841L55.8469 49.339C55.7279 49.815 55.6309 50.509 55.5409 51.154C55.4509 51.798 55.3859 52.353 55.3859 52.353L55.3389 52.72L55.5359 53.03C56.2639 54.168 57.2359 54.858 58.2339 55.113C59.2309 55.367 60.1919 55.213 60.9979 54.942C62.3799 54.477 63.1009 53.802 63.3739 53.567C63.6479 53.802 64.3639 54.477 65.7439 54.942C66.5519 55.214 67.5119 55.367 68.5099 55.112C69.5069 54.858 70.4789 54.168 71.2069 53.03L71.4089 52.72L71.3629 52.353C71.3629 52.353 71.2969 51.798 71.2069 51.153C71.1169 50.509 71.0199 49.815 70.9009 49.339L68.8989 49.841C68.9549 50.064 69.0759 50.814 69.1629 51.438C69.2129 51.796 69.2239 51.888 69.2509 52.105C68.8289 52.652 68.4139 53.012 68.0009 53.118C67.5159 53.241 66.9629 53.18 66.4089 52.994C65.4689 52.677 64.8959 52.167 64.6659 51.981L64.4269 47.261L63.3739 47.313L62.3209 47.262Z" fill="black"/>
<path d="M63.4099 42.73C62.6539 42.73 62.0319 42.958 61.5169 43.132C61.0019 43.305 60.5879 43.422 60.2719 43.422C59.7059 43.422 59.1549 43.736 58.8519 44.098C58.5509 44.46 58.4129 44.838 58.3029 45.192C58.0849 45.899 57.9729 46.609 57.8769 46.862C57.6549 47.435 57.8659 47.892 58.0409 48.19C58.2149 48.487 58.4309 48.723 58.6709 48.964C59.1539 49.447 59.7609 49.928 60.3769 50.379C61.6089 51.279 62.8669 52.043 62.8669 52.043L63.4039 52.375L63.9469 52.043C63.9469 52.043 65.2069 51.28 66.4419 50.379C67.0589 49.929 67.6649 49.447 68.1479 48.964C68.3889 48.723 68.6029 48.487 68.7779 48.19C68.9529 47.894 69.1659 47.438 68.9479 46.869C68.8509 46.617 68.7419 45.901 68.5219 45.192C68.4119 44.838 68.2689 44.46 67.9669 44.098C67.6639 43.736 67.1129 43.423 66.5469 43.423C66.2309 43.423 65.8189 43.305 65.3019 43.132C64.7859 42.958 64.1669 42.73 63.4099 42.73ZM63.4099 44.785C63.7169 44.785 64.1249 44.902 64.6419 45.075C65.1179 45.235 65.7139 45.417 66.3949 45.448C66.4169 45.482 66.4829 45.592 66.5469 45.798C66.6589 46.158 66.7699 46.706 66.9269 47.241C66.8544 47.3387 66.7741 47.4303 66.6869 47.515C66.3459 47.856 65.7929 48.302 65.2209 48.72C64.3409 49.362 63.7859 49.695 63.4099 49.93C63.0349 49.696 62.4789 49.363 61.5979 48.72C61.0279 48.302 60.4729 47.856 60.1319 47.515C60.0039 47.387 59.9489 47.31 59.8979 47.241C60.0549 46.706 60.1609 46.158 60.2719 45.798C60.3076 45.6725 60.3607 45.5526 60.4299 45.442C61.1069 45.41 61.7029 45.235 62.1769 45.076C62.6939 44.902 63.1069 44.785 63.4099 44.785Z" fill="black"/>
<path d="M51.5703 40.3864C51.5703 37.4746 49.2639 35.1172 46.4103 35.1172C43.5596 35.1172 41.2505 37.4746 41.2505 40.3864C41.2505 43.3011 43.5596 45.6615 46.4103 45.6615C49.2639 45.6615 51.5703 43.3011 51.5703 40.3864Z" fill="black" stroke="black" stroke-width="2.06017" stroke-linecap="square"/>
<path d="M47.2269 38.9061C47.2269 37.4531 46.0899 36.2771 44.6869 36.2771C43.2849 36.2771 42.1519 37.4531 42.1519 38.9071C42.1519 40.3551 43.2849 41.5311 44.6869 41.5311C46.0899 41.5311 47.2269 40.3551 47.2269 38.9061Z" fill="white"/>
<path d="M46.0989 26.0649C45.1035 26.1137 44.1303 26.3759 43.2452 26.8338C42.36 27.2917 41.5837 27.9346 40.9689 28.7189L40.3389 29.5289L41.9689 30.7909L42.5989 29.9819C43.0292 29.4319 43.5727 28.9809 44.1927 28.6595C44.8126 28.338 45.4944 28.1537 46.1919 28.1189C46.8503 28.0948 47.5068 28.2047 48.1215 28.4419C48.7362 28.6792 49.2963 29.0387 49.7679 29.4989L50.5039 30.2149L51.9469 28.7479L51.2109 28.0259C50.5381 27.3704 49.7391 26.8585 48.8624 26.5214C47.9856 26.1843 47.0495 26.0289 46.1109 26.0649H46.1049H46.0989Z" fill="black"/>
<path d="M80.6131 38.9061C80.6131 37.4531 79.4771 36.2771 78.0781 36.2771C76.6761 36.2771 75.5391 37.4531 75.5391 38.9071C75.5391 40.3551 76.6761 41.5311 78.0791 41.5311C79.4771 41.5311 80.6131 40.3551 80.6131 38.9061Z" fill="white"/>
<path d="M29.3145 73.7339H114.956" stroke="black" stroke-width="2.74564"/>
<path d="M40.7162 60.5659C37.5092 60.5659 34.4012 60.8959 32.3122 61.7159C26.8762 63.6999 22.8172 69.0089 21.6132 75.3749V75.3789C20.5532 80.3519 20.2752 84.5579 19.7192 88.3229L21.7612 88.6209C22.3362 84.7309 22.6082 80.6069 23.6382 75.7819V75.7699L23.6432 75.7569C24.7282 70.0099 28.4072 65.3239 33.0332 63.6399L33.0472 63.6359L33.0602 63.6319C34.6302 63.0119 37.6622 62.6189 40.7172 62.6199C43.7692 62.6199 46.9082 62.9979 48.7752 63.6439H48.7842C53.4092 65.3319 57.0772 70.0139 58.1622 75.7569L58.1662 75.7699V75.7779C59.1932 80.6059 59.4672 84.7349 60.0442 88.6259L62.0862 88.3229C61.5282 84.5569 61.2462 80.3529 60.1922 75.3789V75.3749C58.9872 69.0049 54.9222 63.6929 49.4762 61.7119L49.4712 61.7079L49.4632 61.7039C47.1772 60.9109 43.9312 60.5659 40.7172 60.5659H40.7162Z" fill="black"/>
<path d="M54.3159 85.0861C54.3159 83.8521 53.3629 82.8521 52.1839 82.8521C51.0039 82.8521 50.0469 83.8521 50.0469 85.0861C50.0469 86.3201 51.0039 87.3201 52.1839 87.3201C53.3639 87.3201 54.3159 86.3201 54.3159 85.0861Z" fill="#E7E8E9"/>
<path d="M32.7422 85.0861C32.7422 83.8521 31.7852 82.8521 30.6052 82.8521C29.4252 82.8521 28.4692 83.8521 28.4692 85.0861C28.4692 86.3201 29.4262 87.3201 30.6052 87.3201C31.7852 87.3201 32.7422 86.3201 32.7422 85.0861Z" fill="#E7E8E9"/>
<path d="M34.3111 83.8552L26.377 85.9678" stroke="black" stroke-width="1.37368"/>
<path d="M35.2128 85.0862L27.2329 89.6626" stroke="black" stroke-width="1.37368"/>
<path d="M35.884 86.5386L27.7954 94.5768" stroke="black" stroke-width="1.37368"/>
<path d="M36.2236 88.4365L32.0884 95.5544" stroke="black" stroke-width="1.37368"/>
<path d="M49.1069 83.8552L57.041 85.9678" stroke="black" stroke-width="1.37368"/>
<path d="M48.2052 85.0862L56.1851 89.6626" stroke="black" stroke-width="1.37368"/>
<path d="M47.5344 86.5386L55.623 94.5768" stroke="black" stroke-width="1.37368"/>
<path d="M47.1943 88.4365L51.3296 95.5544" stroke="black" stroke-width="1.37368"/>
<path d="M48.4732 83.52C48.4732 79.941 45.4062 77.043 41.6172 77.043C37.8322 77.043 34.7622 79.941 34.7622 83.52C34.7622 87.098 37.8322 90 41.6172 90C45.4072 90 48.4732 87.098 48.4732 83.52Z" fill="white"/>
<path d="M41.6151 76.0129C37.2991 76.0129 33.7251 79.3549 33.7251 83.5179C33.7251 87.6819 37.2981 91.0279 41.6151 91.0279C45.9331 91.0279 49.5051 87.6809 49.5051 83.5179C49.5051 79.3559 45.9311 76.0129 41.6151 76.0129ZM41.6151 78.0709C44.8721 78.0709 47.4371 80.5249 47.4371 83.5179C47.4371 86.5119 44.8741 88.9739 41.6151 88.9739C38.3581 88.9739 35.7931 86.5119 35.7931 83.5179C35.7931 80.5249 38.3581 78.0709 41.6151 78.0709Z" fill="#60605B"/>
<path d="M48.813 77.9841C48.813 76.1251 50.289 74.6211 52.113 74.6211C53.938 74.6211 55.414 76.1251 55.414 77.9841C55.414 79.8441 53.937 81.3481 52.114 81.3481C50.289 81.3481 48.813 79.8441 48.813 77.9841Z" fill="black"/>
<path d="M48.8109 77.9843C48.8109 76.1242 50.2863 74.6211 52.1115 74.6211C53.9346 74.6211 55.4121 76.1264 55.4121 77.9843C55.4121 79.8443 53.9346 81.3475 52.1115 81.3475C50.2863 81.3475 48.8109 79.8422 48.8109 77.9843Z" stroke="black" stroke-width="2.06038" stroke-linecap="square"/>
<path d="M52.3219 68.4739C51.6686 68.4465 51.0166 68.5536 50.4063 68.7884C49.7961 69.0232 49.2405 69.3807 48.7739 69.8389L48.0439 70.5619L49.4959 72.0189L50.2299 71.2969C50.4964 71.0424 50.8108 70.8434 51.1548 70.7114C51.4988 70.5793 51.8656 70.517 52.2339 70.5279C53.0299 70.5679 53.7679 70.9479 54.2589 71.5739L54.8959 72.3839L56.5199 71.1199L55.8869 70.3099C55.4604 69.7669 54.9221 69.322 54.3086 69.0052C53.6951 68.6885 53.0206 68.5073 52.3309 68.4739H52.3269H52.3219Z" fill="black"/>
<path d="M41.6152 82.4026L41.7868 85.7547C41.7868 85.7547 44.4831 88.156 46.0563 85.6989C46.0563 85.6989 45.8881 84.3041 45.776 83.8549" stroke="black" stroke-width="2.05968"/>
<path d="M41.5851 82.4026L41.4152 85.7547C41.4152 85.7547 38.7207 88.156 37.1475 85.6989C37.1475 85.6989 37.314 84.3041 37.4279 83.8549" stroke="black" stroke-width="2.05968"/>
<path d="M44.5431 82.3521C44.3131 81.7621 44.3131 80.5781 43.6251 80.5781C42.9341 80.5781 42.2971 80.1331 41.6171 80.1331C40.9411 80.1331 40.3051 80.5781 39.6131 80.5781C38.9221 80.5781 38.9221 81.7621 38.6951 82.3521C38.4651 82.9451 41.6171 84.8671 41.6171 84.8671C41.6171 84.8671 44.7731 82.9451 44.5431 82.3521Z" fill="#808080"/>
<path d="M41.6151 79.104C41.0501 79.104 40.6151 79.271 40.2861 79.382C39.9571 79.492 39.7341 79.55 39.6111 79.55C39.1421 79.55 38.6631 79.819 38.4171 80.112C38.2183 80.3549 38.0731 80.6371 37.9911 80.94C37.8361 81.438 37.7611 81.896 37.7291 81.981C37.5241 82.51 37.7211 82.912 37.8601 83.149C37.9991 83.385 38.1531 83.553 38.3201 83.72C38.6541 84.055 39.0571 84.367 39.4591 84.66C40.2641 85.249 41.0751 85.744 41.0751 85.744L41.6151 86.072L42.1551 85.744C42.1551 85.744 42.9701 85.249 43.7751 84.661C44.1771 84.367 44.5801 84.055 44.9141 83.721C45.0811 83.553 45.2311 83.385 45.3701 83.149C45.5091 82.913 45.7091 82.511 45.5051 81.981L45.5001 81.977C45.4701 81.9 45.3931 81.437 45.2391 80.94C45.1578 80.6388 45.014 80.358 44.8171 80.116C44.5721 79.823 44.0931 79.549 43.6231 79.549C43.5001 79.549 43.2731 79.492 42.9431 79.381C42.6131 79.271 42.1811 79.104 41.6151 79.104ZM41.6151 81.158C41.7291 81.158 41.9551 81.218 42.2851 81.33C42.5271 81.412 42.8961 81.474 43.2601 81.528C43.2671 81.544 43.2581 81.528 43.2651 81.548C43.3101 81.695 43.3961 82.002 43.4591 82.263L43.4501 82.271C43.1692 82.5346 42.8705 82.7785 42.5561 83.001C42.1021 83.333 41.9001 83.451 41.6151 83.631C41.3301 83.451 41.1311 83.333 40.6781 83.001C40.364 82.7781 40.0653 82.5342 39.7841 82.271C39.7791 82.266 39.7791 82.268 39.7751 82.263C39.8381 82 39.9191 81.691 39.9651 81.545L39.9691 81.532C40.3361 81.479 40.7061 81.412 40.9491 81.33C41.2791 81.219 41.5061 81.158 41.6151 81.158ZM43.5771 82.708C43.5791 82.715 43.5781 82.718 43.5811 82.725L43.5771 82.72C43.5751 82.712 43.5791 82.715 43.5771 82.708Z" fill="black"/>
<path d="M34.0468 77.9841C34.0468 76.1251 32.5698 74.6211 30.7468 74.6211C28.9218 74.6211 27.4448 76.1251 27.4448 77.9841C27.4448 79.8441 28.9218 81.3481 30.7458 81.3481C32.5698 81.3481 34.0458 79.8441 34.0458 77.9841H34.0468Z" fill="black"/>
<path d="M34.0449 77.9843C34.0449 76.1242 32.5675 74.6211 30.7445 74.6211C28.9192 74.6211 27.4438 76.1264 27.4438 77.9843C27.4438 79.8443 28.9192 81.3475 30.7445 81.3475C32.5675 81.3475 34.0449 79.8422 34.0449 77.9843Z" stroke="black" stroke-width="2.06038" stroke-linecap="square"/>
<path d="M31.266 77.0401C31.266 76.1131 30.539 75.3601 29.645 75.3601C28.746 75.3601 28.02 76.1131 28.02 77.0401C28.02 77.9651 28.746 78.7151 29.645 78.7151C30.539 78.7151 31.265 77.9651 31.265 77.0391L31.266 77.0401Z" fill="white"/>
<path d="M30.524 68.4739C29.8348 68.5075 29.1609 68.6888 28.5478 69.0056C27.9348 69.3223 27.3971 69.7672 26.971 70.3099L26.334 71.1199L27.963 72.3839L28.6 71.5739C28.842 71.265 29.1477 71.0117 29.4962 70.8312C29.8447 70.6507 30.228 70.5473 30.62 70.5279C30.9891 70.5163 31.3569 70.5783 31.7018 70.7104C32.0467 70.8424 32.3619 71.0418 32.629 71.2969L33.359 72.0189L34.814 70.5619L34.08 69.8389C33.6135 69.3807 33.0579 69.0232 32.4476 68.7884C31.8373 68.5536 31.1853 68.4465 30.532 68.4739H30.528H30.524Z" fill="black"/>
<path d="M52.852 77.2729C52.852 76.3479 52.125 75.5979 51.227 75.5979C50.332 75.5979 49.605 76.3479 49.605 77.2729C49.605 78.1989 50.332 78.9489 51.227 78.9489C52.125 78.9489 52.852 78.1989 52.852 77.2729Z" fill="white"/>
<path d="M92.5579 1.2456e-06L36.9269 0.167001C36.7205 0.168069 36.517 0.215362 36.3314 0.305376C36.1459 0.39539 35.983 0.525819 35.8549 0.687001L1.28994 44.134C1.16236 44.2954 1.07285 44.4832 1.02802 44.6836C0.983185 44.8841 0.984184 45.092 1.03094 45.292L13.5699 99.313C13.6167 99.5133 13.7081 99.7005 13.8374 99.8608C13.9667 100.021 14.1306 100.15 14.3169 100.239L64.5119 124.144C64.6982 124.233 64.9022 124.28 65.1089 124.28C65.3157 124.28 65.5197 124.233 65.7059 124.144L115.754 99.935C115.94 99.8454 116.103 99.7152 116.231 99.5542C116.36 99.3932 116.45 99.2055 116.496 99.005L128.723 44.913C128.768 44.7123 128.768 44.5039 128.721 44.3034C128.675 44.103 128.583 43.9155 128.454 43.755L93.6349 0.515001C93.5058 0.35408 93.342 0.224208 93.1555 0.135046C92.969 0.0458828 92.7648 -0.000276454 92.5579 1.2456e-06ZM91.9019 2.74L125.892 44.953L113.955 97.761L65.0949 121.388L16.1039 98.054L3.85994 45.317L37.6019 2.902L91.9019 2.74Z" fill="black"/>
<path d="M16.9268 83.322V86.063H68.5038V83.323L16.9268 83.322ZM41.4328 93.593V96.334H112.964V93.594L41.4328 93.593Z" fill="black"/>
<path fill-rule="evenodd" clip-rule="evenodd" d="M85.6881 63.9099C82.2611 63.9099 78.9381 64.2719 76.7211 65.1449H76.7111C70.9331 67.2579 66.6131 72.9049 65.3321 79.6849V79.6889C64.2021 84.9999 63.9061 89.4939 63.3101 93.5259L65.3521 93.8239C65.9671 89.6659 66.2521 85.2569 67.3541 80.0939L67.3591 80.0789V80.0689C68.5221 73.9029 72.4721 68.8699 77.4481 67.0609L77.4581 67.0559L77.4731 67.0509C79.1721 66.3809 82.4161 65.9689 85.6881 65.9689C88.9581 65.9689 92.3171 66.3689 94.3281 67.0659H94.3341C99.3071 68.8789 103.244 73.9059 104.412 80.0679V80.0779L104.417 80.0879C105.517 85.2519 105.804 89.6679 106.419 93.8239L108.461 93.5259C107.865 89.4959 107.567 84.9989 106.439 79.6889V79.6839C105.151 72.8959 100.824 67.2399 95.0291 65.1339L95.0251 65.1289H95.0151C92.5841 64.2849 89.1181 63.9109 85.6881 63.9109V63.9099Z" fill="black"/>
<path d="M100.23 90.055C100.23 88.735 99.2071 87.665 97.9501 87.665C96.6871 87.665 95.6641 88.735 95.6641 90.055C95.6641 91.375 96.6871 92.441 97.9491 92.441C99.2071 92.441 100.23 91.375 100.23 90.055ZM77.1641 90.055C77.1641 88.735 76.1411 87.665 74.8791 87.665C73.6171 87.665 72.5981 88.735 72.5981 90.055C72.5981 91.375 73.6181 92.441 74.8781 92.441C76.1411 92.441 77.1641 91.375 77.1641 90.055Z" fill="#E7E8E9"/>
<path d="M78.673 88.0801L70.187 90.3361L70.545 91.6621L79.028 89.4021L78.673 88.0801ZM79.468 89.4621L70.935 94.3561L71.624 95.5411L80.156 90.6461L79.468 89.4621ZM94.827 88.0831L103.313 90.3401L102.958 91.6621L94.472 89.4061L94.827 88.0831ZM94.037 89.4621L102.565 94.3561L101.876 95.5411L93.348 90.6471L94.037 89.4621Z" fill="black"/>
<path d="M86.6531 80.4331C82.0731 80.4331 78.2861 83.9731 78.2861 88.3831C78.2861 92.7931 82.0741 96.3381 86.6531 96.3381C91.2291 96.3381 95.0091 92.7921 95.0091 88.3831C95.0091 83.9731 91.2291 80.4331 86.6531 80.4331ZM86.6531 82.4861C90.1701 82.4861 92.9471 85.1431 92.9471 88.3831C92.9471 91.6221 90.1701 94.2791 86.6531 94.2791C83.1331 94.2791 80.3531 91.6221 80.3531 88.3831C80.3531 85.1431 83.1331 82.4861 86.6531 82.4861Z" fill="#60605B"/>
<path d="M94.3396 82.4623C94.3396 80.4764 95.9209 78.8684 97.869 78.8684C99.8198 78.8684 101.396 80.4764 101.396 82.4623C101.396 84.4483 99.8198 86.0589 97.869 86.0589C95.9183 86.0589 94.3396 84.4483 94.3396 82.4598V82.4623Z" fill="black" stroke="black" stroke-width="2.06052" stroke-linecap="square"/>
<path d="M98.088 72.3661C97.4015 72.3404 96.717 72.4545 96.0759 72.7015C95.4349 72.9486 94.8508 73.3233 94.359 73.8031L93.623 74.5211L95.065 75.9871L95.802 75.2691C96.0929 74.9874 96.4377 74.7674 96.8158 74.6223C97.1939 74.4773 97.5974 74.4102 98.002 74.4251C98.4322 74.4461 98.8529 74.5589 99.2359 74.7561C99.6188 74.9532 99.9551 75.2301 100.222 75.5681L100.856 76.3771L102.482 75.1071L101.847 74.2981C101.397 73.7265 100.829 73.2581 100.182 72.9248C99.5356 72.5915 98.8248 72.401 98.098 72.3661H98.093H98.088ZM85.596 87.1361L85.44 90.1901C85.238 90.3451 84.974 90.5811 84.461 90.7541C84.122 90.8681 83.811 90.8991 83.561 90.8341C83.378 90.7891 83.176 90.5711 82.971 90.3441C82.988 90.2181 82.988 90.2051 83.011 90.0451C83.069 89.6231 83.156 89.1051 83.184 88.9951L81.18 88.4931C81.088 88.8591 81.025 89.3231 80.963 89.7661C80.902 90.2091 80.853 90.5881 80.853 90.5881L80.811 90.9551L81.009 91.2621C81.543 92.0951 82.286 92.6301 83.049 92.8241C83.813 93.0181 84.533 92.9001 85.125 92.7001C86.018 92.4001 86.359 92.0541 86.643 91.8221C86.928 92.0541 87.268 92.3991 88.161 92.7001C88.753 92.9001 89.477 93.0181 90.241 92.8241C91.004 92.6301 91.747 92.0941 92.281 91.2621L92.479 90.9521L92.433 90.5881C92.433 90.5881 92.288 89.2171 92.11 88.4971L90.102 88.9911C90.145 89.1631 90.242 89.8791 90.308 90.3511C90.107 90.5711 89.909 90.7891 89.729 90.8351C89.479 90.8991 89.164 90.8681 88.825 90.7541C88.312 90.5811 88.048 90.3441 87.845 90.1901L87.693 87.1401L86.661 87.1891L85.596 87.1361Z" fill="black"/>
<path d="M86.6529 83.7351C86.0629 83.7351 85.6029 83.9051 85.2509 84.0231C84.8979 84.1421 84.6489 84.2101 84.5039 84.2101C84.0239 84.2101 83.5369 84.4851 83.2839 84.7871C83.0319 85.0891 82.9239 85.3791 82.8429 85.6421C82.6799 86.1641 82.5979 86.6541 82.5579 86.7591C82.3479 87.2951 82.5519 87.7041 82.6949 87.9481C82.8389 88.1911 83.0019 88.3681 83.1779 88.5441C83.5309 88.8971 83.9529 89.2331 84.3819 89.5461C84.9443 89.9524 85.522 90.3371 86.1139 90.6991L86.6529 91.0271L87.1909 90.6991C87.1909 90.6991 88.0609 90.1671 88.9179 89.5411C89.3469 89.2281 89.7699 88.8971 90.1219 88.5441C90.3088 88.3679 90.4713 88.1675 90.6049 87.9481C90.7479 87.7051 90.9419 87.2961 90.7369 86.7641C90.6969 86.6601 90.6199 86.1711 90.4569 85.6471C90.3769 85.3841 90.2729 85.0891 90.0209 84.7871C89.7689 84.4851 89.2779 84.2101 88.7969 84.2101C88.6489 84.2101 88.4019 84.1411 88.0499 84.0231C87.6969 83.9051 87.2399 83.7351 86.6529 83.7351ZM86.6529 85.7881C86.7879 85.7881 87.0349 85.8511 87.3889 85.9701C87.6589 86.0601 88.0569 86.1401 88.4609 86.1931C88.4739 86.2211 88.4659 86.1991 88.4809 86.2481C88.5339 86.4191 88.6209 86.7561 88.6949 87.0531C88.6759 87.0731 88.6829 87.0701 88.6589 87.0931C88.4489 87.3031 88.0769 87.6071 87.6939 87.8871C87.1889 88.2571 86.9539 88.3941 86.6529 88.5851C86.3519 88.3951 86.1129 88.2571 85.6059 87.8871C85.265 87.6447 84.9409 87.3794 84.6359 87.0931C84.6159 87.0731 84.6229 87.0761 84.6059 87.0581C84.6799 86.7581 84.7659 86.4201 84.8189 86.2481C84.8349 86.1981 84.8259 86.2211 84.8389 86.1931C85.2021 86.1505 85.5608 86.0759 85.9109 85.9701C86.2649 85.8521 86.5129 85.7881 86.6529 85.7881Z" fill="black"/>
<path d="M78.5546 82.4623C78.5546 80.4764 76.9758 78.8684 75.0251 78.8684C73.077 78.8684 71.4956 80.4764 71.4956 82.4623C71.4956 84.4483 73.077 86.0589 75.0251 86.0589C76.9758 86.0589 78.5546 84.4483 78.5546 82.4598V82.4623Z" fill="black" stroke="black" stroke-width="2.06052" stroke-linecap="square"/>
<path d="M75.5862 81.45C75.5862 80.46 74.8092 79.656 73.8522 79.656C72.8952 79.656 72.1172 80.461 72.1172 81.449C72.1172 82.441 72.8952 83.242 73.8522 83.242C74.8092 83.242 75.5862 82.442 75.5862 81.449V81.45Z" fill="white"/>
<path d="M74.7912 72.3659C74.0643 72.4007 73.3533 72.5911 72.7063 72.9244C72.0593 73.2578 71.4915 73.7261 71.0412 74.2979L70.4072 75.1079L72.0332 76.3769L72.6732 75.5669C72.9387 75.2284 73.2737 74.9508 73.6556 74.7529C74.0376 74.5551 74.4576 74.4415 74.8872 74.4199C75.2932 74.4049 75.6979 74.4725 76.077 74.6186C76.456 74.7647 76.8014 74.9863 77.0922 75.2699L77.8292 75.9869L79.2772 74.5209L78.5402 73.8029C78.0477 73.3229 77.4627 72.948 76.8208 72.701C76.1789 72.454 75.4935 72.34 74.8062 72.3659H74.7962H74.7912Z" fill="black"/>
<path d="M98.7932 81.684C98.7932 80.695 98.0162 79.894 97.0592 79.894C96.1022 79.894 95.3242 80.695 95.3242 81.684C95.3242 82.676 96.1022 83.477 97.0592 83.477C98.0162 83.477 98.7932 82.676 98.7932 81.684Z" fill="white"/>
<path d="M35.9258 100.446V103.186H69.0168V100.446H35.9258ZM55.1938 107.298V110.039H82.4438V107.299L55.1938 107.298Z" fill="black"/>
</svg>
