<svg width="129" height="129" viewBox="0 0 129 129" fill="none" xmlns="http://www.w3.org/2000/svg">
<path d="M70.334 60.3425H103.424M75.8402 67.1912H108.927" stroke="#3C6EB4" stroke-width="2.74564"/>
<path d="M99.4871 74.8821C92.5774 63.7298 94.1267 52.9709 90.8603 37.5985C89.0715 28.1063 83.0233 20.2681 75.1474 17.3981C68.6504 15.139 55.1571 15.136 49.4379 17.3981C41.5649 20.2681 35.5137 28.1063 33.7189 37.5985C30.4555 52.9709 32.0019 63.7298 25.0981 74.8821" stroke="black" stroke-width="2.06017"/>
<path d="M83.258 52.5161C83.258 50.5821 81.766 49.0161 79.922 49.0161C78.078 49.0161 76.582 50.5821 76.582 52.5161C76.582 54.4491 78.078 56.0161 79.922 56.0161C81.766 56.0161 83.258 54.4491 83.258 52.5161ZM49.531 52.5161C49.531 50.5821 48.035 49.0161 46.191 49.0161C44.348 49.0161 42.855 50.5821 42.855 52.5161C42.855 54.4491 44.348 56.0161 46.191 56.0161C48.035 56.0161 49.531 54.4491 49.531 52.5161Z" fill="#E7E8E9"/>
<path d="M51.9802 50.5911L39.5771 53.9015M53.3851 52.5149L40.913 59.6913M54.4394 54.7879L41.7921 67.3971M54.968 57.7649L48.5035 68.9213" stroke="#A7A9AC" stroke-width="1.37324"/>
<path d="M75.1177 50.5911L87.5234 53.9015M73.7127 52.5149L86.1848 59.6913M72.6584 54.7879L85.3057 67.3971M72.1298 57.7649L78.5943 68.9213" stroke="#A7A9AC" stroke-width="1.37324"/>
<path d="M74.1274 50.0652C74.1274 44.4563 69.3295 39.9143 63.4069 39.9143C57.4902 39.9143 52.6924 44.4563 52.6924 50.0652C52.6924 55.6712 57.4902 60.2131 63.4069 60.2131C69.3295 60.2131 74.1274 55.6712 74.1274 50.0652Z" fill="white" stroke="#60605B" stroke-width="2.06017" stroke-linecap="square"/>
<path d="M74.6539 41.3864C74.6539 38.4746 76.966 36.1172 79.8137 36.1172C82.6643 36.1172 84.9736 38.4746 84.9736 41.3864C84.9736 44.3011 82.6643 46.6615 79.8137 46.6615C76.966 46.6615 74.6539 44.3011 74.6539 41.3864Z" fill="black" stroke="#892CA0" stroke-width="2.06017" stroke-linecap="square"/>
<path d="M84.4438 30.3504C83.9219 29.6832 83.2614 29.1362 82.5077 28.7469C81.7539 28.3575 80.9246 28.1349 80.0766 28.0943C79.2774 28.065 78.4805 28.1978 77.7344 28.4847C76.9883 28.7716 76.3085 29.2066 75.7363 29.7633" stroke="black" stroke-width="2.06017" stroke-linecap="square"/>
<path d="M63.3958 48.3113L63.6615 53.5666C63.6615 53.5666 67.8764 57.3269 70.3384 53.4767C70.3384 53.4767 70.0728 51.2883 69.8975 50.5897M63.3508 48.3113L63.0851 53.5666C63.0851 53.5666 58.8702 57.3269 56.4082 53.4767C56.4082 53.4767 56.6738 51.2883 56.8491 50.5897" stroke="black" stroke-width="2.05986"/>
<path d="M67.9832 48.2351C67.6243 47.3052 67.6242 45.4515 66.5444 45.4515C65.4675 45.4515 64.4714 44.7571 63.4066 44.7571C62.3477 44.7571 61.3516 45.4515 60.2747 45.4515C59.1979 45.4515 59.198 47.3052 58.839 48.2351C58.4801 49.159 63.4066 52.1691 63.4066 52.1691C63.4066 52.1691 68.3422 49.159 67.9832 48.2351Z" fill="#808080" stroke="black" stroke-width="2.06017" stroke-linecap="square"/>
<path d="M51.5703 41.3864C51.5703 38.4746 49.2639 36.1172 46.4103 36.1172C43.5596 36.1172 41.2505 38.4746 41.2505 41.3864C41.2505 44.3011 43.5596 46.6615 46.4103 46.6615C49.2639 46.6615 51.5703 44.3011 51.5703 41.3864Z" fill="black" stroke="#892CA0" stroke-width="2.06017" stroke-linecap="square"/>
<path d="M47.2269 39.9061C47.2269 38.4531 46.0899 37.2771 44.6869 37.2771C43.2849 37.2771 42.1519 38.4531 42.1519 39.9071C42.1519 41.3551 43.2849 42.5311 44.6869 42.5311C46.0899 42.5311 47.2269 41.3551 47.2269 39.9061Z" fill="white"/>
<path d="M41.7861 30.3505C42.3075 29.684 42.9669 29.1375 43.7196 28.7481C44.4722 28.3588 45.3002 28.1358 46.1472 28.0944C46.947 28.0639 47.7446 28.1962 48.4914 28.4832C49.2381 28.7701 49.9184 29.2057 50.4905 29.7633" stroke="black" stroke-width="2.06017" stroke-linecap="square"/>
<path d="M80.6131 39.9061C80.6131 38.4531 79.4771 37.2771 78.0781 37.2771C76.6761 37.2771 75.5391 38.4531 75.5391 39.9071C75.5391 41.3551 76.6761 42.5311 78.0791 42.5311C79.4771 42.5311 80.6131 41.3551 80.6131 39.9061Z" fill="white"/>
<path d="M29.3145 74.7339H114.956" stroke="#3C6EB4" stroke-width="2.74564"/>
<path d="M61.0653 89.4737C60.4972 85.6417 60.2206 81.4743 59.1773 76.5671C58.0325 70.5074 54.1617 65.5078 49.1223 63.6757C44.9707 62.2349 36.3368 62.2306 32.6777 63.6757C27.6426 65.5078 23.7717 70.5074 22.6269 76.5671C21.5793 81.4721 21.3071 85.6417 20.7412 89.4737" stroke="black" stroke-width="2.06038"/>
<path d="M54.3159 86.0861C54.3159 84.8521 53.3629 83.8521 52.1839 83.8521C51.0039 83.8521 50.0469 84.8521 50.0469 86.0861C50.0469 87.3201 51.0039 88.3201 52.1839 88.3201C53.3639 88.3201 54.3159 87.3201 54.3159 86.0861Z" fill="#E7E8E9"/>
<path d="M32.7422 86.0861C32.7422 84.8521 31.7852 83.8521 30.6052 83.8521C29.4252 83.8521 28.4692 84.8521 28.4692 86.0861C28.4692 87.3201 29.4262 88.3201 30.6052 88.3201C31.7852 88.3201 32.7422 87.3201 32.7422 86.0861Z" fill="#E7E8E9"/>
<path d="M34.3111 84.8552L26.377 86.9678" stroke="#A7A9AC" stroke-width="1.37368"/>
<path d="M35.2128 86.0862L27.2329 90.6626" stroke="#A7A9AC" stroke-width="1.37368"/>
<path d="M35.884 87.5386L27.7954 95.5768" stroke="#A7A9AC" stroke-width="1.37368"/>
<path d="M36.2236 89.4365L32.0884 96.5544" stroke="#A7A9AC" stroke-width="1.37368"/>
<path d="M49.1069 84.8552L57.041 86.9678" stroke="#A7A9AC" stroke-width="1.37368"/>
<path d="M48.2052 86.0862L56.1851 90.6626" stroke="#A7A9AC" stroke-width="1.37368"/>
<path d="M47.5344 87.5386L55.623 95.5768" stroke="#A7A9AC" stroke-width="1.37368"/>
<path d="M47.1943 89.4365L51.3296 96.5544" stroke="#A7A9AC" stroke-width="1.37368"/>
<path d="M48.4732 84.52C48.4732 80.941 45.4062 78.043 41.6172 78.043C37.8322 78.043 34.7622 80.941 34.7622 84.52C34.7622 88.098 37.8322 91 41.6172 91C45.4072 91 48.4732 88.098 48.4732 84.52Z" fill="white"/>
<path d="M48.4698 84.5194C48.4698 80.9412 45.4024 78.0425 41.6158 78.0425C37.8292 78.0425 34.7598 80.9412 34.7598 84.5194C34.7598 88.0976 37.8292 91.0006 41.6158 91.0006C45.4046 91.0006 48.4698 88.0976 48.4698 84.5194Z" stroke="#60605B" stroke-width="2.06038" stroke-linecap="square"/>
<path d="M48.813 78.9841C48.813 77.1251 50.289 75.6211 52.113 75.6211C53.938 75.6211 55.414 77.1251 55.414 78.9841C55.414 80.8441 53.937 82.3481 52.114 82.3481C50.289 82.3481 48.813 80.8441 48.813 78.9841Z" fill="black"/>
<path d="M48.8109 78.9843C48.8109 77.1242 50.2863 75.6211 52.1115 75.6211C53.9346 75.6211 55.4121 77.1264 55.4121 78.9843C55.4121 80.8443 53.9346 82.3475 52.1115 82.3475C50.2863 82.3475 48.8109 80.8422 48.8109 78.9843Z" stroke="#892CA0" stroke-width="2.06038" stroke-linecap="square"/>
<path d="M55.0733 71.9417C54.7392 71.5158 54.3167 71.1667 53.8347 70.918C53.3527 70.6694 52.8225 70.5272 52.2803 70.501C51.2608 70.458 50.2282 70.8515 49.5024 71.5676" stroke="black" stroke-width="2.06038" stroke-linecap="square"/>
<path d="M41.6152 83.4026L41.7868 86.7547C41.7868 86.7547 44.4831 89.156 46.0563 86.6989C46.0563 86.6989 45.8881 85.3041 45.776 84.8549" stroke="black" stroke-width="2.05968"/>
<path d="M41.5851 83.4026L41.4152 86.7547C41.4152 86.7547 38.7207 89.156 37.1475 86.6989C37.1475 86.6989 37.314 85.3041 37.4279 84.8549" stroke="black" stroke-width="2.05968"/>
<path d="M44.5431 83.3521C44.3131 82.7621 44.3131 81.5781 43.6251 81.5781C42.9341 81.5781 42.2971 81.1331 41.6171 81.1331C40.9411 81.1331 40.3051 81.5781 39.6131 81.5781C38.9221 81.5781 38.9221 82.7621 38.6951 83.3521C38.4651 83.9451 41.6171 85.8671 41.6171 85.8671C41.6171 85.8671 44.7731 83.9451 44.5431 83.3521Z" fill="#808080"/>
<path d="M44.541 83.3517C44.3098 82.7625 44.3099 81.5777 43.623 81.5777C42.9318 81.5777 42.2945 81.1326 41.6141 81.1326C40.9402 81.1326 40.303 81.5777 39.6118 81.5777C38.9205 81.5777 38.9206 82.7604 38.6938 83.3517C38.4626 83.9453 41.6162 85.8677 41.6162 85.8677C41.6162 85.8677 44.7699 83.9453 44.541 83.3517V83.3517Z" stroke="black" stroke-width="2.06038" stroke-linecap="square"/>
<path d="M34.0468 78.9841C34.0468 77.1251 32.5698 75.6211 30.7468 75.6211C28.9218 75.6211 27.4448 77.1251 27.4448 78.9841C27.4448 80.8441 28.9218 82.3481 30.7458 82.3481C32.5698 82.3481 34.0458 80.8441 34.0458 78.9841H34.0468Z" fill="black"/>
<path d="M34.0449 78.9843C34.0449 77.1242 32.5675 75.6211 30.7445 75.6211C28.9192 75.6211 27.4438 77.1264 27.4438 78.9843C27.4438 80.8443 28.9192 82.3475 30.7445 82.3475C32.5675 82.3475 34.0449 80.8422 34.0449 78.9843Z" stroke="#892CA0" stroke-width="2.06038" stroke-linecap="square"/>
<path d="M31.266 78.0401C31.266 77.1131 30.539 76.3601 29.645 76.3601C28.746 76.3601 28.02 77.1131 28.02 78.0401C28.02 78.9651 28.746 79.7151 29.645 79.7151C30.539 79.7151 31.265 78.9651 31.265 78.0391L31.266 78.0401Z" fill="white"/>
<path d="M27.7852 71.9417C28.1191 71.5161 28.5413 71.1671 29.0229 70.9185C29.5045 70.6698 30.0342 70.5275 30.5761 70.501C31.5956 70.458 32.628 70.8515 33.3538 71.5676" stroke="black" stroke-width="2.06038" stroke-linecap="square"/>
<path d="M52.852 78.2729C52.852 77.3479 52.125 76.5979 51.227 76.5979C50.332 76.5979 49.605 77.3479 49.605 78.2729C49.605 79.1989 50.332 79.9489 51.227 79.9489C52.125 79.9489 52.852 79.1989 52.852 78.2729Z" fill="white"/>
<path d="M65.1035 123.91L14.9103 100.003L2.37109 45.9848L36.9326 2.53656L92.5619 2.37085L127.378 45.612L115.154 99.7023L65.1035 123.91Z" stroke="#892CA0" stroke-width="2.74564" stroke-linecap="round" stroke-linejoin="round"/>
<path d="M16.9287 85.6943H68.5058M41.4322 95.9635H112.964" stroke="#3C6EB4" stroke-width="2.74564"/>
<path d="M107.441 94.674C106.835 90.5778 106.541 86.1216 105.425 80.8783C104.197 74.3999 100.062 69.0556 94.675 67.0981C90.2325 65.5549 81.0071 65.5523 77.0926 67.0981C71.7086 69.0556 67.5678 74.3999 66.3454 80.8783C65.227 86.1216 64.9356 90.5778 64.3296 94.6766" stroke="black" stroke-width="2.06052"/>
<path d="M100.23 91.055C100.23 89.735 99.2071 88.665 97.9501 88.665C96.6871 88.665 95.6641 89.735 95.6641 91.055C95.6641 92.375 96.6871 93.441 97.9491 93.441C99.2071 93.441 100.23 92.375 100.23 91.055ZM77.1641 91.055C77.1641 89.735 76.1411 88.665 74.8791 88.665C73.6171 88.665 72.5981 89.735 72.5981 91.055C72.5981 92.375 73.6181 93.441 74.8781 93.441C76.1411 93.441 77.1641 92.375 77.1641 91.055Z" fill="#E7E8E9"/>
<path d="M78.8501 89.7405L70.3657 91.9991M79.811 91.0548L71.2794 95.9476" stroke="#A7A9AC" stroke-width="1.37267"/>
<path d="M94.6495 89.7434L103.136 92.0002M93.6904 91.0542L102.22 95.9487" stroke="#A7A9AC" stroke-width="1.37267"/>
<path d="M93.9785 89.3841C93.9785 85.5597 90.6986 82.4578 86.6515 82.4578C82.6018 82.4578 79.3193 85.5597 79.3193 89.3841C79.3193 93.2085 82.6018 96.3079 86.6515 96.3079C90.6986 96.3079 93.9785 93.2085 93.9785 89.3841Z" fill="white" stroke="#60605B" stroke-width="2.06052" stroke-linecap="square"/>
<path d="M94.3396 83.4623C94.3396 81.4764 95.9209 79.8684 97.869 79.8684C99.8198 79.8684 101.396 81.4764 101.396 83.4623C101.396 85.4483 99.8198 87.0589 97.869 87.0589C95.9183 87.0589 94.3396 85.4483 94.3396 83.4598V83.4623Z" fill="black" stroke="#892CA0" stroke-width="2.06052" stroke-linecap="square"/>
<path d="M101.035 75.9328C100.677 75.4776 100.226 75.1045 99.7104 74.8386C99.1951 74.5728 98.6284 74.4205 98.0487 74.3921C97.5019 74.372 96.9567 74.4631 96.4465 74.6599C95.9362 74.8566 95.4716 75.155 95.0811 75.5366" stroke="black" stroke-width="2.06052" stroke-linecap="square"/>
<path d="M86.6617 88.1892L86.8415 91.7712C86.8415 91.7712 89.7241 94.3403 91.4079 91.7116C91.4079 91.7116 91.2245 90.2203 91.1064 89.7437M86.6272 88.1892L86.4455 91.7712C86.4455 91.7712 83.5647 94.3403 81.8809 91.7116C81.8809 91.7116 82.0608 90.2203 82.1806 89.7437" stroke="black" stroke-width="2.05901"/>
<path d="M89.7749 88.1335C89.5304 87.4991 89.5305 86.2356 88.797 86.2356C88.0583 86.2356 87.3742 85.7617 86.6512 85.7617C85.9229 85.7617 85.2414 86.2356 84.5053 86.2356C83.7693 86.2356 83.7693 87.4991 83.5222 88.1335C83.2751 88.7653 86.6512 90.8212 86.6512 90.8212C86.6512 90.8212 90.022 88.7653 89.7749 88.1335Z" fill="#808080" stroke="black" stroke-width="2.06052" stroke-linecap="square"/>
<path d="M78.5546 83.4623C78.5546 81.4764 76.9758 79.8684 75.0251 79.8684C73.077 79.8684 71.4956 81.4764 71.4956 83.4623C71.4956 85.4483 73.077 87.0589 75.0251 87.0589C76.9758 87.0589 78.5546 85.4483 78.5546 83.4598V83.4623Z" fill="black" stroke="#892CA0" stroke-width="2.06052" stroke-linecap="square"/>
<path d="M75.5862 82.45C75.5862 81.46 74.8092 80.656 73.8522 80.656C72.8952 80.656 72.1172 81.461 72.1172 82.449C72.1172 83.441 72.8952 84.242 73.8522 84.242C74.8092 84.242 75.5862 83.442 75.5862 82.449V82.45Z" fill="white"/>
<path d="M71.8569 75.9328C72.2144 75.4777 72.666 75.1045 73.1812 74.8387C73.6965 74.5728 74.2631 74.4206 74.8427 74.3922C75.3904 74.3718 75.9365 74.4628 76.4477 74.6595C76.9588 74.8563 77.4242 75.1548 77.8156 75.5367" stroke="black" stroke-width="2.06052" stroke-linecap="square"/>
<path d="M98.7932 82.684C98.7932 81.695 98.0162 80.894 97.0592 80.894C96.1022 80.894 95.3242 81.695 95.3242 82.684C95.3242 83.676 96.1022 84.477 97.0592 84.477C98.0162 84.477 98.7932 83.676 98.7932 82.684Z" fill="white"/>
<path d="M35.9233 102.815H69.0154M55.1938 109.669H82.4441" stroke="#3C6EB4" stroke-width="2.74564"/>
</svg>
