<svg width="129" height="128" viewBox="0 0 129 128" fill="none" xmlns="http://www.w3.org/2000/svg">
<path d="M18.1839 86.55C12.3039 85.008 7.71387 81.57 4.30087 76.145C3.04687 74.152 3.02687 73.449 4.17587 72.043C5.04587 70.98 5.09787 70.969 7.09387 71.43C8.69487 71.8 9.28487 72.156 9.88287 73.129C11.0469 75.012 14.5899 78.187 16.7189 79.254C23.3049 82.554 31.3239 81.195 36.4889 75.906C37.6129 74.754 38.7579 73.262 39.0349 72.59C39.3159 71.922 39.6679 71.371 39.8249 71.371C39.9799 71.371 40.4339 72.09 40.8279 72.973L41.5509 74.574L43.4529 74.348C45.6759 74.086 45.6759 74.148 43.4929 77.438C40.6759 81.684 35.2769 85.383 29.9299 86.734C26.7929 87.531 21.6099 87.449 18.1839 86.551V86.55Z" fill="#6DE1FA"/>
<path d="M18.4448 70.16C15.4298 66.496 12.6018 62.797 12.1648 61.934L11.3628 60.371L17.8398 53.863H30.3198L33.5818 57.137L36.8398 60.414L35.9598 61.906C34.9028 63.7 24.5828 76.77 24.1998 76.796C24.0498 76.809 21.4648 73.82 18.4448 70.16Z" fill="#FE405F"/>
<path d="M41.4732 71.563C40.7112 69.988 40.6602 69.586 41.0512 68.043C41.2892 67.086 41.4142 64.75 41.3242 62.855C41.1842 59.977 40.9572 58.996 39.9382 56.925C37.5582 52.094 33.6252 48.75 28.7812 47.438L26.2612 46.754L27.2732 45.426C28.2732 44.113 28.2812 44.074 27.6252 42.707C27.2622 41.941 27.0592 41.223 27.1722 41.109C27.5942 40.687 31.9422 41.914 34.7342 43.242C38.7302 45.141 43.0702 49.453 45.0352 53.472C47.6212 58.766 48.2272 64.199 46.8402 69.625C46.4102 71.297 46.0162 72.703 45.9652 72.75C45.9102 72.793 45.0752 72.941 44.1022 73.082L42.3362 73.34L41.4732 71.563Z" fill="#97F0FF"/>
<path d="M2.14478 71.688C0.640779 67.734 0.612779 60.922 2.08478 56.586C5.09378 47.723 13.2498 41.344 22.3278 40.754L25.2458 40.563L26.1408 42.164L27.0348 43.77L25.9648 45.258C24.9688 46.645 24.6948 46.778 22.0348 47.191C18.0818 47.805 15.1988 49.266 12.3788 52.086C7.61678 56.848 6.25378 62.609 8.19078 69.773C8.42078 70.625 8.35078 70.683 7.41078 70.457C6.84378 70.317 5.97678 70.105 5.48378 69.988C4.77378 69.813 4.37478 70.066 3.55378 71.223L2.51978 72.676L2.14478 71.688Z" fill="#40DAF4"/>
<path d="M63.5001 64.155C64.0311 64.335 64.5471 64.714 65.0471 65.296C65.5471 65.882 66.0471 66.683 66.5471 67.702L69.0471 72.671H66.4071L64.0781 68.015C63.4731 66.796 62.8901 65.991 62.3281 65.593C61.7651 65.198 61.0001 64.999 60.0311 64.999H57.3591V72.671H54.8911V54.515H60.4371C62.5191 54.515 64.0701 54.952 65.0941 55.827C66.1141 56.694 66.6241 57.999 66.6241 59.749C66.6241 60.886 66.3591 61.835 65.8281 62.593C65.2971 63.343 64.5191 63.866 63.5001 64.155ZM57.3601 56.53V62.983H60.4371C61.6251 62.983 62.5191 62.714 63.1251 62.171C63.7261 61.621 64.0311 60.811 64.0311 59.749C64.0311 58.687 63.7261 57.886 63.1251 57.343C62.5191 56.803 61.6251 56.53 60.4371 56.53H57.3601Z" fill="black"/>
<path d="M83.082 55.108V57.499C82.2337 57.0915 81.3501 56.7622 80.442 56.515C79.6626 56.3024 78.8589 56.1921 78.051 56.187C76.707 56.187 75.668 56.448 74.941 56.967C74.223 57.48 73.863 58.214 73.863 59.171C73.863 59.976 74.102 60.585 74.583 60.999C75.07 61.405 75.988 61.734 77.333 61.984L78.817 62.28C80.649 62.636 81.997 63.257 82.863 64.14C83.738 65.015 84.176 66.187 84.176 67.655C84.176 69.417 83.586 70.757 82.41 71.671C81.23 72.577 79.504 73.031 77.224 73.031C76.357 73.031 75.442 72.929 74.474 72.734C73.4539 72.5226 72.4512 72.2351 71.474 71.874V69.343C72.462 69.898 73.434 70.319 74.396 70.608C75.3136 70.8836 76.266 71.0257 77.224 71.03C78.63 71.03 79.712 70.757 80.474 70.202C81.232 69.652 81.614 68.866 81.614 67.842C81.614 66.948 81.337 66.249 80.786 65.749C80.243 65.249 79.349 64.874 78.099 64.624L76.599 64.327C74.763 63.964 73.435 63.397 72.614 62.624C71.802 61.843 71.396 60.761 71.396 59.374C71.396 57.761 71.958 56.495 73.083 55.577C74.216 54.651 75.778 54.187 77.771 54.187C78.622 54.187 79.489 54.265 80.364 54.421C81.247 54.577 82.154 54.808 83.084 55.109L83.082 55.108Z" fill="black"/>
<path d="M90.0752 70.624V77.859H87.8252V59.046H90.0752V61.124C90.5432 60.312 91.1372 59.71 91.8552 59.312C92.5752 58.917 93.4262 58.718 94.4182 58.718C96.0752 58.718 97.4182 59.374 98.4502 60.687C99.4892 61.999 100.012 63.73 100.012 65.874C100.012 68.011 99.4892 69.741 98.4502 71.062C97.4182 72.374 96.0752 73.03 94.4182 73.03C93.4262 73.031 92.5752 72.831 91.8562 72.437C91.1372 72.042 90.5432 71.437 90.0752 70.624ZM97.6842 65.874C97.6842 64.23 97.3442 62.937 96.6682 61.999C95.9882 61.062 95.0592 60.593 93.8722 60.593C92.6922 60.593 91.7662 61.062 91.0902 61.999C90.4102 62.937 90.0752 64.229 90.0752 65.874C90.0752 67.523 90.4112 68.812 91.0902 69.749C91.7662 70.687 92.6922 71.155 93.8722 71.155C95.0592 71.155 95.9892 70.687 96.6682 69.749C97.3442 68.812 97.6842 67.523 97.6842 65.874Z" fill="black"/>
<path d="M115.365 65.296V66.39H105.068C105.17 67.933 105.635 69.108 106.458 69.921C107.291 70.726 108.451 71.124 109.943 71.124C110.795 71.124 111.623 71.023 112.428 70.812C113.267 70.5949 114.075 70.2744 114.834 69.858V71.984C114.037 72.3169 113.211 72.5731 112.365 72.749C111.521 72.937 110.665 73.03 109.802 73.03C107.635 73.031 105.916 72.401 104.647 71.141C103.374 69.871 102.741 68.156 102.741 66.001C102.741 63.774 103.339 62.001 104.538 60.688C105.745 59.375 107.37 58.718 109.413 58.718C111.245 58.718 112.694 59.313 113.757 60.5C114.825 61.679 115.365 63.276 115.365 65.296ZM113.131 64.64C113.107 63.421 112.763 62.448 112.099 61.718C111.431 60.991 110.545 60.624 109.443 60.624C108.193 60.624 107.193 60.98 106.443 61.687C105.693 62.386 105.26 63.374 105.146 64.655L113.131 64.64Z" fill="black"/>
<path d="M128.84 59.577V61.671C128.239 61.3337 127.599 61.0714 126.934 60.89C126.303 60.7141 125.651 60.6246 124.996 60.624C123.547 60.624 122.422 61.085 121.622 61.999C120.817 62.917 120.418 64.21 120.418 65.874C120.418 67.53 120.817 68.824 121.622 69.749C122.422 70.667 123.547 71.124 124.997 71.124C125.653 71.124 126.297 71.042 126.934 70.874C127.599 70.6851 128.239 70.4176 128.84 70.077V72.155C128.216 72.4477 127.561 72.6681 126.887 72.812C126.189 72.9602 125.476 73.0333 124.762 73.03C122.707 73.03 121.079 72.386 119.872 71.093C118.661 69.803 118.059 68.062 118.059 65.874C118.059 63.655 118.669 61.914 119.887 60.64C121.106 59.359 122.777 58.718 124.903 58.718C125.59 58.718 126.263 58.792 126.918 58.937C127.575 59.085 128.215 59.296 128.84 59.577Z" fill="black"/>
</svg>
