<svg width="129" height="128" viewBox="0 0 129 128" fill="none" xmlns="http://www.w3.org/2000/svg">
<path d="M23.148 78.306C24.6841 80.1936 26.3047 82.0108 28.005 83.752C22.819 85.312 19.419 88.21 17.299 90.769C13.943 94.819 12.167 100.167 12.576 104.757H3.646C5.436 100.87 12.586 89.642 23.149 78.307L23.148 78.306ZM126.597 107.192H115.74C90.83 94.193 68.96 85.027 45.728 83.025C45.777 79.792 46.352 76.132 47.459 72.053L45.319 71.477C44.183 75.669 43.587 79.462 43.519 82.857C41.098 82.695 38.662 82.617 36.202 82.617C34.121 82.617 32.222 82.808 30.49 83.143C28.232 80.889 26.308 78.735 24.675 76.693C35.389 65.534 53.038 55.438 68.398 51.64C72.723 66.016 82.007 75.866 93.274 82.493C94.1003 82.0225 94.9124 81.5272 95.709 81.008L115.365 102.168L116.225 102.095C121.593 101.633 124.644 104.545 125.451 105.451C126.046 106.11 126.401 106.715 126.597 107.192Z" fill="#D1A41A"/>
<path d="M117.008 36.412C117.407 55.94 107.444 71.482 93.4952 79.452C69.8202 67.66 65.3622 37.776 69.3972 21.747C70.5192 27.877 72.5612 31.72 76.9692 33.604C86.5832 30.854 99.8132 30.637 109.559 33.324C113.619 30.372 115.193 25.86 116.054 21.919C117.126 26.504 117.004 36.413 117.008 36.413V36.412Z" fill="#FFDC76"/>
<path d="M50.0961 58.246L57.4561 54.901L61.0671 65.603L50.0961 58.246ZM42.6041 62.126L46.8881 59.584L50.7651 66.272L42.6041 62.126ZM34.3091 67.61L38.0551 64.8L39.9281 71.492L34.3091 67.61ZM100.536 85.273L97.8591 82.73L94.3811 88.083L100.536 85.273ZM105.49 91.158L103.345 88.884L97.7271 93.164L105.49 91.158ZM96.5261 30.684L89.7021 30.818L93.8501 39.916L96.5261 30.684ZM69.3621 47.943L68.6931 44.063L75.2521 47.542L69.3621 47.943ZM70.9661 53.696L70.2971 51.155L74.3121 52.76L70.9661 53.696ZM116.191 49.55L117.131 46.606L111.778 48.88L116.191 49.55ZM114.184 55.57L114.986 53.162L110.838 54.366L114.184 55.57Z" fill="black"/>
<path d="M66.5381 63.203H79.4511V64.797H66.5381V63.203ZM66.5381 59.377H79.4511V60.971H66.5381V59.377ZM105.968 63.203H118.88V64.797H105.968V63.203ZM105.968 59.377H118.88V60.971H105.968V59.377ZM101.417 49.926H80.3741V48.49H86.9221C87.7291 45.037 87.8881 41.737 86.9161 40.064C86.5001 39.354 85.9261 39.021 85.1081 39.021C81.3641 39.021 79.8181 42.98 79.7531 43.148L79.7541 43.147L78.4111 42.643C78.4881 42.436 80.3611 37.586 85.1081 37.586C86.4331 37.586 87.4861 38.194 88.1541 39.343C89.3401 41.38 89.2011 44.905 88.3971 48.49H99.8871C101.414 44.005 104.601 41.89 109.927 41.89V43.325C104.155 43.325 102.537 45.772 101.383 48.49H107.653L107.638 49.918L101.416 49.925L101.417 49.926ZM102.361 57.011L102.371 57.01L102.361 57.011ZM102.361 57.011L102.371 57.01L102.361 57.011Z" fill="black"/>
<path d="M102.361 57.011L102.371 57.01C100.669 54.5 100.129 52.358 100.841 49.919L99.3792 49.926C98.8702 51.55 99.0742 53.996 100.329 56.096H85.7292C86.6172 54.316 87.4402 52.147 88.0422 49.926H86.5562C85.8922 52.281 84.9612 54.612 83.9122 56.458L83.5732 57.055L91.7662 62.212L87.1542 65.252L87.9442 66.45L93.0992 63.051L98.6652 66.683L99.4292 65.469L94.2692 62.277C94.2692 62.277 101.985 57.265 102.368 57.02C102.365 57.017 102.364 57.014 102.362 57.01L102.361 57.011ZM93.0822 61.345L87.0222 57.53L98.8652 57.533L93.0822 61.345Z" fill="black"/>
<path d="M119.414 34.682C119.405 32.187 118.628 21.644 117.2 18.741C113.328 20.212 106.283 24.98 104.688 29.854C97.0459 28.714 88.4309 28.848 80.8839 30.154C79.6239 24.909 73.2959 20.896 68.5219 18.634C66.5079 22.032 65.6159 29.911 65.8419 35.5L65.8159 35.518C66.7019 58.986 78.2149 73.598 93.2689 82.454C108.759 73.604 119.824 56.35 119.395 34.671L119.415 34.681L119.414 34.682ZM106.526 30.157L106.695 30.188L106.525 30.158L106.526 30.157ZM105.562 29.991C105.698 30.013 105.835 30.037 105.971 30.061L105.562 29.991ZM117.005 36.375C117.403 55.903 107.44 71.445 93.4919 79.415C69.8179 67.62 65.3579 37.739 69.3949 21.71C70.5179 27.837 72.5549 31.681 76.9689 33.566C86.5789 30.816 99.8089 30.599 109.555 33.286C113.616 30.333 115.191 25.823 116.051 21.882C117.126 26.468 117.001 36.374 117.005 36.376V36.375Z" fill="black"/>
<path d="M127.104 103.935C124.673 101.215 119.91 99.928 115.932 100.023C113.109 96.663 96.7421 79.427 96.7421 79.427L95.6081 80.856L115.368 102.129L116.225 102.055C121.594 101.595 124.645 104.507 125.454 105.41C126.046 106.073 126.404 106.677 126.598 107.152H115.738C90.8271 94.152 68.9581 84.987 45.7251 82.989C45.7751 79.756 46.3511 76.096 47.4551 72.019L45.3191 71.439C44.1841 75.631 43.5851 79.427 43.5181 82.821C41.0981 82.661 38.6611 82.577 36.2031 82.577C34.1181 82.577 32.2201 82.771 30.4891 83.107C28.2301 80.85 26.3071 78.699 24.6721 76.657C35.4621 65.416 53.2821 55.255 68.7201 51.519L68.2191 49.356C51.5941 53.366 33.3961 64.279 23.2561 74.823C18.5501 68.471 16.6831 63.259 16.1281 59.309C15.4281 54.32 16.6181 49.744 19.5721 46.074C24.1951 40.331 30.7641 39.926 37.5181 41.062C37.3871 42.129 37.5271 43.149 37.9541 43.779C39.7401 46.418 49.3411 47.345 55.0711 44.788C50.8421 38.862 42.2761 35.968 39.9031 37.128C39.1171 37.512 38.5231 38.218 38.1171 39.04C35.7821 38.622 33.4631 38.311 31.7691 38.324C25.8121 38.368 21.2581 40.449 17.8471 44.687C14.5001 48.844 13.1471 54.007 13.9351 59.617C14.6811 64.931 17.3121 70.583 21.7211 76.443C20.9891 77.229 20.2811 78.005 19.5991 78.767C8.85307 90.792 0.99707 103.687 0.99707 105.824V106.931H15.1741L14.9261 105.618C14.1261 101.386 15.7241 96.098 18.9991 92.144C21.0561 89.663 24.4611 86.83 29.8081 85.524C34.5621 90.164 40.6201 95.091 47.3621 99.845H57.8981V98.738C57.8981 97.489 57.2781 96.396 56.1541 95.66C54.4891 94.572 51.9201 94.422 49.5601 95.227C47.3101 92.721 46.0481 89.374 45.7761 85.216C68.6411 87.24 90.5121 96.474 115.188 109.366H128.766L128.944 108.476C129.198 107.209 128.507 105.511 127.098 103.935H127.104ZM17.3001 90.729C13.9461 94.777 12.1681 100.124 12.5761 104.714H3.64307C5.43807 100.831 12.5861 89.604 23.1481 78.264C24.6841 80.1526 26.3051 81.9705 28.0061 83.712C22.8201 85.271 19.4201 88.169 17.2991 90.729H17.3001Z" fill="black"/>
</svg>
