<svg width="129" height="128" viewBox="0 0 129 128" fill="none" xmlns="http://www.w3.org/2000/svg">
<path d="M57.4551 38.9L61.0671 49.6L50.0951 42.243L57.4551 38.9ZM46.8871 43.582L50.7641 50.27L42.6041 46.124L46.8871 43.582ZM38.0541 48.8L39.9271 55.49L34.3081 51.609L38.0541 48.8ZM97.8581 66.728L94.3801 72.08L100.535 69.27L97.8581 66.728ZM103.344 72.883L97.7261 77.163L105.489 75.156L103.344 72.883ZM89.7011 14.816L93.8491 23.915L96.5251 14.683L89.7011 14.816ZM68.6931 28.062L75.2511 31.541L69.3611 31.942L68.6931 28.062ZM70.2971 35.153L74.3111 36.759L70.9661 37.695L70.2971 35.153ZM117.13 30.604L111.777 32.879L116.19 33.548L117.13 30.604ZM114.985 37.16L110.837 38.365L114.183 39.568L114.985 37.16Z" fill="black"/>
<path d="M66.5381 47.202H79.4501V48.795H66.5381V47.202ZM66.5381 43.375H79.4501V44.969H66.5381V43.375ZM105.967 47.202H118.879V48.795H105.967V47.202ZM105.967 43.375H118.879V44.969H105.967V43.375ZM101.416 33.924H80.3731V32.49H86.9221C87.7281 29.037 87.8871 25.737 86.9151 24.064C86.5001 23.353 85.9261 23.021 85.1071 23.021C81.3631 23.021 79.8171 26.98 79.7521 27.148L79.7531 27.147L78.4101 26.643C78.4871 26.436 80.3601 21.586 85.1071 21.586C86.4321 21.586 87.4851 22.194 88.1531 23.343C89.3391 25.38 89.2001 28.905 88.3961 32.49H99.8861C101.413 28.005 104.6 25.89 109.926 25.89V27.325C104.154 27.325 102.536 29.772 101.382 32.49H107.652L107.637 33.917L101.415 33.925L101.416 33.924ZM102.36 41.01L102.37 41.009C100.668 38.499 100.128 36.357 100.84 33.917L99.3781 33.925C98.8691 35.549 99.0731 37.995 100.328 40.095H85.7281C86.6161 38.315 87.4391 36.145 88.0411 33.925H86.5551C85.8921 36.28 84.9601 38.611 83.9121 40.457L83.5721 41.054L91.7651 46.211L87.1531 49.251L87.9431 50.449L93.0981 47.049L98.6641 50.682L99.4281 49.467L94.2681 46.275C94.2681 46.275 101.984 41.263 102.367 41.019L102.361 41.009L102.36 41.01ZM93.0811 45.344L87.0211 41.528L98.8641 41.531L93.0811 45.344Z" fill="black"/>
<path d="M119.413 18.68C119.403 16.186 118.627 5.643 117.199 2.74C113.327 4.211 106.282 8.978 104.687 13.853C97.0451 12.712 88.4301 12.847 80.8831 14.153C79.6231 8.908 73.2951 4.894 68.5211 2.633C66.5071 6.031 65.6151 13.91 65.8421 19.499L65.8151 19.516C66.7011 42.985 78.2141 57.596 93.2691 66.453C108.757 57.603 119.823 40.349 119.394 18.67L119.413 18.68ZM106.525 14.156L106.694 14.187L106.524 14.157L106.525 14.156ZM105.561 13.99C105.697 14.011 105.834 14.036 105.97 14.059L105.561 13.989V13.99ZM117.004 20.374C117.402 39.901 107.439 55.444 93.4911 63.414C69.8171 51.617 65.3571 21.736 69.3941 5.707C70.5171 11.835 72.5551 15.679 76.9681 17.564C86.5781 14.814 99.8081 14.596 109.554 17.284C113.615 14.331 115.19 9.82 116.05 5.88C117.124 10.466 117 20.371 117.004 20.373V20.374ZM127.103 87.934C124.672 85.214 119.908 83.926 115.931 84.021C113.108 80.661 96.7411 63.425 96.7411 63.425L95.6071 64.854L115.367 86.127L116.224 86.053C121.593 85.593 124.644 88.505 125.453 89.409C126.045 90.071 126.403 90.676 126.597 91.149H115.737C90.8271 78.151 68.9571 68.985 45.7251 66.988C45.7751 63.755 46.3511 60.095 47.4551 56.017L45.3191 55.437C44.1831 59.63 43.5851 63.426 43.5181 66.819C41.0971 66.659 38.6601 66.575 36.2021 66.575C34.1181 66.575 32.2201 66.769 30.4881 67.105C28.2301 64.849 26.3061 62.698 24.6711 60.656C35.4611 49.414 53.2811 39.254 68.7201 35.518L68.2181 33.355C51.5931 37.364 33.3961 48.278 23.2551 58.82C18.5491 52.468 16.6821 47.257 16.1281 43.307C15.4281 38.318 16.6181 33.741 19.5711 30.072C24.1951 24.328 30.7641 23.924 37.5181 25.06C37.3861 26.127 37.5261 27.146 37.9541 27.777C39.7401 30.415 49.3401 31.342 55.0711 28.786C50.8411 22.86 42.2761 19.966 39.9021 21.126C39.1161 21.51 38.5231 22.215 38.1161 23.037C35.7821 22.62 33.4631 22.309 31.7681 22.322C25.8121 22.365 21.2581 24.447 17.8471 28.685C14.5001 32.842 13.1471 38.005 13.9351 43.615C14.6811 48.929 17.3121 54.58 21.7211 60.441C20.9891 61.226 20.2811 62.002 19.5991 62.764C8.85207 74.79 0.99707 87.685 0.99707 89.822V90.929H15.1741L14.9261 89.616C14.1261 85.385 15.7241 80.096 18.9991 76.143C21.0551 73.661 24.4601 70.829 29.8071 69.522C34.5621 74.162 40.6191 79.089 47.3621 83.844H57.8971V82.737C57.8971 81.487 57.2771 80.394 56.1531 79.658C54.4891 78.57 51.9191 78.42 49.5591 79.225C47.3091 76.719 46.0481 73.372 45.7751 69.215C68.6411 71.239 90.5121 80.473 115.187 93.364H128.765L128.943 92.474C129.196 91.207 128.506 89.51 127.097 87.934H127.103ZM17.2981 74.727C13.9451 78.774 12.1681 84.121 12.5751 88.711H3.64307C5.43807 84.828 12.5861 73.601 23.1481 62.261C24.6838 64.1496 26.3044 65.9675 28.0051 67.709C22.8201 69.269 19.4201 72.167 17.2981 74.727Z" fill="black"/>
<path d="M12.8628 98.562V101.772H19.6458V120.978H23.1358V101.773H29.9178V98.562H12.8628ZM110.082 100.202L109.016 103.765L106.629 104.814V106.812H108.929V115.862C108.929 117.578 109.339 118.95 110.23 119.888C111.121 120.827 112.447 121.271 114.088 121.271C114.531 121.271 115.013 121.223 115.539 121.132L115.549 121.13C116.089 121.048 116.514 120.944 116.854 120.78L117.137 120.644V117.804L116.497 117.99C116.205 118.069 115.91 118.133 115.612 118.181H115.608C115.221 118.237 114.831 118.264 114.44 118.263C113.747 118.263 113.287 118.065 112.924 117.656C112.568 117.254 112.362 116.649 112.362 115.761V106.811H117.02V103.923H112.362V100.203H110.082V100.202ZM38.7788 103.63C36.3488 103.63 34.3628 104.42 32.9568 105.994C31.5498 107.559 30.8668 109.736 30.8668 112.435C30.8668 114.185 31.1808 115.737 31.8238 117.075C32.4658 118.412 33.3958 119.462 34.5938 120.187C35.7878 120.91 37.1638 121.271 38.6768 121.271C41.1068 121.271 43.0948 120.481 44.5108 118.908H44.5128V118.906C45.9298 117.321 46.6188 115.136 46.6188 112.435C46.6188 109.8 45.9208 107.64 44.4988 106.04C43.0888 104.44 41.1358 103.63 38.7788 103.63ZM57.6028 103.63C56.4968 103.63 55.4728 103.867 54.5578 104.345L54.5558 104.347C53.9328 104.677 53.5268 105.224 53.0888 105.737L52.7608 103.923H49.8668V120.978H53.2978V112.055C53.2978 110.031 53.6578 108.641 54.2478 107.879C54.8548 107.097 55.7828 106.695 57.2058 106.695C58.2758 106.695 58.9538 106.975 59.3878 107.486H59.3898L59.3918 107.488C59.8308 107.998 60.0918 108.825 60.0918 110.033V120.978H63.5218V111.513C63.5218 109.773 63.8758 108.556 64.4898 107.818C65.1028 107.081 66.0418 106.695 67.4598 106.695C68.5198 106.695 69.1938 106.974 69.6278 107.486L69.6298 107.488C70.0688 107.997 70.3298 108.825 70.3298 110.033V120.978H73.7608V110.003C73.7608 107.879 73.2928 106.246 72.2568 105.186C71.2418 104.129 69.7288 103.63 67.8268 103.63C66.5958 103.63 65.4698 103.89 64.4838 104.42C63.7028 104.84 63.1678 105.489 62.6708 106.161C61.7258 104.519 59.9848 103.63 57.6028 103.63ZM84.8328 103.63C82.3378 103.63 80.3228 104.417 78.9228 105.996H78.9208C77.5308 107.574 76.8618 109.786 76.8618 112.552C76.8618 115.25 77.5218 117.414 78.8918 118.962L78.8938 118.964L78.8948 118.966C80.2748 120.504 82.2458 121.271 84.6728 121.271C86.3608 121.271 87.7928 120.983 88.9598 120.378L89.2298 120.24V117.037L88.5398 117.32C87.1848 117.875 85.8798 118.146 84.6138 118.146C83.1638 118.146 82.1718 117.691 81.4658 116.761C80.7658 115.826 80.3818 114.428 80.3818 112.523C80.3818 110.508 80.7828 109.065 81.4988 108.152C82.2148 107.239 83.2488 106.782 84.7738 106.782C85.2128 106.782 85.7388 106.85 86.3468 106.99H86.3508L86.3538 106.992C86.9638 107.123 87.5238 107.29 88.0318 107.494L88.5108 107.687L89.5848 104.72L89.1918 104.52C88.6918 104.263 88.0508 104.062 87.2518 103.89C86.4566 103.718 85.6454 103.631 84.8318 103.63H84.8328ZM98.5888 103.66C97.5988 103.66 96.6088 103.786 95.6218 104.04H95.6198C94.6785 104.281 93.7702 104.636 92.9148 105.097L92.5248 105.308L93.6348 108.079L94.1178 107.845C95.7608 107.047 97.2068 106.665 98.4418 106.665C99.5488 106.665 100.246 106.937 100.662 107.405L100.663 107.41L100.667 107.412C101.095 107.878 101.355 108.67 101.355 109.857V110.369L99.1148 110.441C96.4698 110.521 94.4408 110.984 93.0228 111.914C91.6038 112.844 90.8528 114.284 90.8528 116.039C90.8528 117.651 91.3508 118.986 92.3628 119.909L92.3638 119.912C93.3798 120.829 94.7728 121.272 96.4498 121.272C97.6908 121.272 98.7498 121.09 99.6258 120.701L99.6278 120.699C100.318 120.387 100.961 119.709 101.607 119.019L102.021 120.979H104.727V109.52C104.727 107.564 104.239 106.038 103.177 105.065C102.132 104.098 100.577 103.659 98.5888 103.659V103.66ZM38.7058 106.695C40.2068 106.695 41.2318 107.158 41.9558 108.097L41.9578 108.099L41.9598 108.101C42.6928 109.033 43.0988 110.462 43.0988 112.435C43.0988 114.429 42.6918 115.88 41.9558 116.832C41.2308 117.772 40.2158 118.234 38.7358 118.234C37.2558 118.234 36.2378 117.77 35.5128 116.82C34.7858 115.868 34.3858 114.42 34.3858 112.435C34.3858 110.43 34.7838 108.987 35.4968 108.068C36.2098 107.148 37.2238 106.695 38.7058 106.695ZM101.296 113.103V114.033C101.296 115.43 100.908 116.429 100.148 117.156L100.146 117.158C99.3918 117.886 98.3548 118.263 96.9328 118.263C96.0568 118.263 95.4458 118.059 95.0208 117.697C94.6118 117.342 94.4008 116.847 94.4008 116.067C94.4008 115.071 94.7238 114.461 95.4388 114.017H95.4408C96.1648 113.564 97.4918 113.25 99.3818 113.183H99.3838L101.296 113.103Z" fill="black"/>
</svg>
