<svg width="129" height="128" viewBox="0 0 129 128" fill="none" xmlns="http://www.w3.org/2000/svg">
<path d="M23.148 62.305C24.6841 64.1926 26.3047 66.0098 28.005 67.751C22.819 69.311 19.419 72.209 17.299 74.767C13.943 78.817 12.167 84.165 12.576 88.755H3.646C5.436 84.868 12.586 73.641 23.149 62.305H23.148ZM126.597 91.19H115.74C90.83 78.192 68.96 69.026 45.728 67.023C45.777 63.791 46.352 60.13 47.459 56.052L45.319 55.476C44.183 59.668 43.587 63.461 43.519 66.856C41.098 66.694 38.662 66.615 36.202 66.615C34.121 66.615 32.222 66.807 30.49 67.141C28.232 64.888 26.308 62.733 24.675 60.691C35.39 49.533 53.039 39.437 68.399 35.638C72.724 50.015 82.008 59.865 93.275 66.492C94.1013 66.0211 94.9134 65.5256 95.71 65.006L115.366 86.167L116.226 86.093C121.594 85.631 124.645 88.543 125.452 89.449C126.047 90.109 126.402 90.714 126.598 91.191L126.597 91.19Z" fill="#D1A41A"/>
<path d="M117.008 20.41C117.407 39.938 107.444 55.48 93.4952 63.451C69.8202 51.658 65.3622 21.774 69.3972 5.744C70.5192 11.874 72.5612 15.718 76.9692 17.602C86.5832 14.852 99.8132 14.635 109.559 17.322C113.619 14.369 115.193 9.858 116.054 5.917C117.126 10.502 117.004 20.411 117.008 20.411V20.41Z" fill="#FFDC76"/>
<path d="M61.0671 49.601L50.0961 42.244L57.4561 38.899L61.0671 49.601ZM50.7651 50.27L42.6041 46.124L46.8881 43.582L50.7651 50.27ZM39.9281 55.49L34.3081 51.609L38.0551 48.799L39.9281 55.49ZM94.3801 72.081L100.536 69.271L97.8591 66.728L94.3801 72.081ZM97.7271 77.163L105.49 75.156L103.345 72.883L97.7271 77.163ZM93.8501 23.914L96.5261 14.682L89.7021 14.816L93.8501 23.914ZM75.2521 31.54L69.3621 31.942L68.6931 28.062L75.2521 31.54ZM74.3121 36.759L70.9661 37.695L70.2971 35.153L74.3121 36.759ZM111.778 32.879L116.191 33.548L117.131 30.604L111.778 32.879ZM110.838 38.364L114.184 39.568L114.986 37.16L110.838 38.364Z" fill="black"/>
<path d="M66.5381 47.202H79.4511V48.795H66.5381V47.202ZM66.5381 43.375H79.4511V44.969H66.5381V43.375ZM105.968 47.202H118.88V48.795H105.968V47.202ZM105.968 43.375H118.88V44.969H105.968V43.375ZM101.417 33.924H80.3741V32.49H86.9221C87.7291 29.038 87.8881 25.738 86.9161 24.065C86.5001 23.354 85.9261 23.021 85.1081 23.021C81.3641 23.021 79.8181 26.981 79.7531 27.149L79.7541 27.148L78.4111 26.644C78.4881 26.437 80.3611 21.587 85.1081 21.587C86.4331 21.587 87.4861 22.195 88.1541 23.343C89.3401 25.381 89.2011 28.905 88.3971 32.491H99.8871C101.414 28.006 104.601 25.891 109.927 25.891V27.326C104.155 27.326 102.537 29.773 101.383 32.491H107.653L107.638 33.918L101.416 33.925L101.417 33.924ZM102.361 41.01L102.371 41.009L102.361 41.01ZM102.361 41.01L102.371 41.009L102.361 41.01Z" fill="black"/>
<path d="M102.361 41.01L102.371 41.009C100.669 38.499 100.129 36.357 100.841 33.917L99.3792 33.925C98.8702 35.549 99.0742 37.995 100.329 40.095H85.7292C86.6172 38.315 87.4402 36.145 88.0422 33.925H86.5562C85.8922 36.28 84.9612 38.611 83.9122 40.457L83.5732 41.054L91.7662 46.211L87.1542 49.251L87.9442 50.449L93.0992 47.049L98.6652 50.682L99.4292 49.467L94.2692 46.275C94.2692 46.275 101.985 41.263 102.368 41.019L102.362 41.009L102.361 41.01ZM93.0822 45.344L87.0222 41.528L98.8652 41.531L93.0822 45.344Z" fill="black"/>
<path d="M119.414 18.68C119.405 16.186 118.628 5.642 117.2 2.74C113.328 4.21 106.283 8.97799 104.688 13.853C97.0459 12.712 88.4309 12.847 80.8839 14.153C79.6239 8.908 73.2959 4.894 68.5219 2.633C66.5079 6.031 65.6159 13.91 65.8419 19.498L65.8159 19.516C66.7019 42.985 78.2149 57.596 93.2689 66.453C108.759 57.603 119.824 40.348 119.395 18.67L119.415 18.68H119.414ZM106.526 14.156L106.695 14.187L106.525 14.156H106.526ZM105.562 13.989C105.698 14.011 105.835 14.036 105.971 14.059L105.562 13.989ZM117.005 20.374C117.403 39.901 107.44 55.444 93.4919 63.414C69.8179 51.618 65.3579 21.736 69.3949 5.707C70.5179 11.835 72.5549 15.679 76.9689 17.564C86.5789 14.814 99.8089 14.596 109.555 17.284C113.616 14.331 115.191 9.82 116.051 5.879C117.126 10.465 117.001 20.371 117.005 20.373V20.374Z" fill="black"/>
<path d="M127.104 87.933C124.673 85.213 119.91 83.926 115.932 84.021C113.109 80.661 96.7421 63.426 96.7421 63.426L95.6081 64.854L115.368 86.127L116.225 86.054C121.594 85.594 124.645 88.506 125.454 89.409C126.046 90.072 126.404 90.676 126.598 91.15H115.738C90.8271 78.151 68.9581 68.985 45.7251 66.988C45.7751 63.755 46.3511 60.095 47.4551 56.017L45.3191 55.437C44.1841 59.63 43.5851 63.426 43.5181 66.819C41.0981 66.659 38.6611 66.576 36.2031 66.576C34.1181 66.576 32.2201 66.769 30.4891 67.106C28.2301 64.849 26.3071 62.698 24.6721 60.656C35.4621 49.414 53.2821 39.254 68.7201 35.518L68.2181 33.355C51.5941 37.364 33.3961 48.278 23.2561 58.82C18.5501 52.468 16.6831 47.257 16.1281 43.307C15.4281 38.317 16.6181 33.741 19.5721 30.072C24.1951 24.328 30.7641 23.924 37.5181 25.06C37.3871 26.127 37.5271 27.146 37.9541 27.777C39.7401 30.415 49.3411 31.342 55.0711 28.785C50.8421 22.859 42.2761 19.965 39.9031 21.125C39.1171 21.509 38.5231 22.215 38.1171 23.037C35.7821 22.62 33.4631 22.309 31.7691 22.321C25.8121 22.365 21.2581 24.446 17.8471 28.684C14.5001 32.842 13.1471 38.004 13.9351 43.615C14.6811 48.929 17.3121 54.58 21.7211 60.441C20.9891 61.226 20.2811 62.002 19.5991 62.764C8.85307 74.79 0.99707 87.685 0.99707 89.822V90.929H15.1741L14.9261 89.617C14.1261 85.385 15.7241 80.096 18.9991 76.143C21.0561 73.661 24.4611 70.829 29.8081 69.523C34.5621 74.163 40.6201 79.09 47.3621 83.843H57.8981V82.737C57.8981 81.487 57.2781 80.394 56.1541 79.658C54.4891 78.57 51.9201 78.42 49.5601 79.225C47.3101 76.719 46.0481 73.372 45.7761 69.215C68.6411 71.239 90.5121 80.473 115.188 93.365H128.766L128.944 92.475C129.198 91.207 128.507 89.51 127.098 87.934L127.104 87.933ZM17.3001 74.728C13.9461 78.776 12.1681 84.122 12.5761 88.713H3.64307C5.43807 84.829 12.5861 73.603 23.1481 62.263C24.6841 64.1516 26.3051 65.9695 28.0061 67.711C22.8201 69.269 19.4201 72.168 17.2991 74.728H17.3001Z" fill="black"/>
<path d="M13.1221 98.818V101.513H19.9051V120.717H22.8781V101.513H29.6611V98.818H13.1221ZM110.277 100.458L109.231 103.951L106.889 104.981V106.552H109.189V115.862C109.189 117.536 109.589 118.832 110.42 119.709C111.251 120.586 112.493 121.01 114.089 121.01C114.514 121.01 114.986 120.965 115.502 120.876H115.507C116.035 120.796 116.442 120.692 116.742 120.546L116.879 120.481V118.147L116.569 118.237C116.351 118.301 116.042 118.367 115.651 118.435H115.649C115.261 118.491 114.859 118.52 114.441 118.52C113.691 118.52 113.144 118.29 112.731 117.825C112.322 117.363 112.104 116.688 112.104 115.759V106.552H116.762V104.179H112.104V100.459H110.277V100.458ZM38.7801 103.89C36.4051 103.89 34.5061 104.65 33.1501 106.168C31.7941 107.678 31.1261 109.781 31.1261 112.438C31.1261 114.156 31.4351 115.668 32.0591 116.966C32.6821 118.263 33.5751 119.27 34.7291 119.968C35.8811 120.666 37.2041 121.014 38.6771 121.014C41.0521 121.014 42.9551 120.254 44.3211 118.737C45.6871 117.209 46.3611 115.096 46.3611 112.438C46.3611 109.848 45.6811 107.758 44.3071 106.213C42.9441 104.668 41.0801 103.89 38.7801 103.89ZM57.6031 103.89C56.5341 103.89 55.5551 104.119 54.6791 104.577H54.6781C53.9381 104.968 53.3651 105.522 52.9041 106.177L52.5461 104.183H50.1251V120.722H53.0401V112.057C53.0401 110.005 53.3951 108.561 54.0431 107.723L54.0441 107.722C54.7061 106.871 55.7331 106.439 57.2071 106.439C58.3241 106.439 59.0941 106.741 59.5871 107.321H59.5881C60.0831 107.896 60.3501 108.791 60.3501 110.035V120.721H63.2641V111.515C63.2641 109.74 63.6231 108.462 64.2931 107.655C64.9631 106.85 65.9931 106.439 67.4611 106.439C68.5681 106.439 69.3331 106.739 69.8261 107.321H69.8271C70.3211 107.896 70.5891 108.79 70.5891 110.035V120.721H73.5041V110.005C73.5041 107.92 73.0441 106.362 72.0741 105.371V105.37C71.1181 104.374 69.6841 103.89 67.8271 103.89C66.6311 103.89 65.5541 104.143 64.6081 104.651C63.7874 105.091 63.0948 105.736 62.5981 106.524C61.7411 104.796 60.0491 103.89 57.6031 103.89ZM84.8351 103.89C82.3931 103.89 80.4641 104.649 79.1161 106.168V106.169C77.7781 107.689 77.1221 109.831 77.1221 112.555C77.1221 115.211 77.7691 117.305 79.0871 118.795H79.0881C80.4161 120.275 82.3001 121.014 84.6731 121.014C86.3321 121.014 87.7231 120.732 88.8431 120.152L88.9731 120.084V117.424L88.6391 117.561C87.2581 118.127 85.9191 118.407 84.6151 118.407C83.1071 118.407 82.0171 117.914 81.2621 116.92C80.5151 115.923 80.1251 114.465 80.1251 112.526C80.1251 110.477 80.5291 108.973 81.2971 107.995C82.0651 107.017 83.1961 106.527 84.7751 106.527C85.2401 106.527 85.7851 106.597 86.4061 106.74H86.4081L86.4091 106.741C86.9959 106.864 87.5712 107.037 88.1291 107.257L88.3611 107.349L89.2651 104.849L89.0751 104.752C88.6061 104.512 87.9851 104.314 87.2001 104.145C86.423 103.976 85.6302 103.891 84.8351 103.89ZM98.5891 103.92C97.6211 103.92 96.6531 104.044 95.6871 104.293C94.7657 104.528 93.8765 104.875 93.0391 105.326L92.8501 105.429L93.7741 107.729L94.0071 107.616C95.6741 106.806 97.1541 106.409 98.4431 106.409C99.5931 106.409 100.377 106.698 100.855 107.237H100.856L100.857 107.24C101.347 107.773 101.614 108.635 101.614 109.86V110.621L99.1241 110.702C96.5061 110.782 94.5211 111.245 93.1651 112.133C91.8101 113.021 91.1111 114.356 91.1111 116.041C91.1111 117.603 91.5851 118.85 92.5381 119.721C93.4991 120.588 94.8181 121.014 96.4511 121.014C97.6661 121.014 98.6911 120.836 99.5231 120.466C100.293 120.119 101.04 119.466 101.781 118.591L102.231 120.721H104.471V109.523C104.471 107.608 103.994 106.168 103.001 105.259C102.022 104.352 100.539 103.919 98.5891 103.919V103.92ZM38.7051 106.44C40.2631 106.44 41.3871 106.938 42.1611 107.942H42.1621L42.1631 107.944C42.9461 108.939 43.3561 110.43 43.3561 112.438C43.3561 114.466 42.9461 115.977 42.1611 116.992C41.3871 117.997 40.2721 118.495 38.7341 118.495C37.1971 118.495 36.0831 117.993 35.3081 116.978C34.5331 115.963 34.1281 114.457 34.1281 112.438C34.1281 110.399 34.5291 108.896 35.2921 107.913C36.0561 106.928 37.1661 106.439 38.7051 106.439V106.44ZM101.556 112.836V114.034C101.556 115.481 101.144 116.565 100.327 117.345V117.346C99.5171 118.127 98.4041 118.524 96.9341 118.524C96.0171 118.524 95.3341 118.307 94.8521 117.894H94.8511C94.3811 117.484 94.1441 116.9 94.1441 116.07C94.1441 115.008 94.5201 114.286 95.3041 113.8C96.0991 113.303 97.4621 112.995 99.3741 112.928H99.3761L101.556 112.836Z" fill="black"/>
</svg>
