<svg width="130" height="128" viewBox="0 0 130 128" fill="none" xmlns="http://www.w3.org/2000/svg">
<path d="M83.0002 88.5C81.1002 88.5 79.3002 88.1 77.5002 87.3C73.5002 85.6 70.1002 82.3 67.2002 77.9C68.0002 76.5 68.7002 75 69.4002 73.5C72.2002 66.9 73.6002 59.6 73.7002 52.4V51.6C73.7002 48.8 73.3002 45.9 72.3002 43.3C71.2002 40.2 69.4002 37.2 66.6002 36C66.1002 35.8 65.5002 35.7 65.0002 35.7C61.4002 29 61.3002 22.7 65.0002 16.6H65.2002C69.5002 16.6 73.8002 18 77.5002 20.3C87.5002 26.7 92.5002 39 92.6002 51.2V51.6H92.7002C92.6002 64.5 89.5002 77.6 83.0002 88.5ZM60.8002 108.7C51.5002 112.5 40.6002 112.3 31.4002 108C20.8002 103.1 12.6002 93.4 7.60015 82.5C-0.999847 63.7 -1.19985 41.3 7.00015 22.3C13.1002 24.7 18.5002 20.9 18.5002 20.9C18.5002 20.9 18.5002 26.9 24.3002 29.9C18.4002 43.8 18.5002 60.4 24.5002 74C27.4002 80.5 31.8002 86.6 37.8002 90.1C40.0002 91.3 42.4002 92.1 44.8002 92.4C49.1002 99 54.6002 104.7 60.8002 108.7Z" fill="url(#paint0_linear_3_7466)"/>
<path opacity="0.3" fill-rule="evenodd" clip-rule="evenodd" d="M82.9999 88.5C81.0999 88.5 79.2999 88.1 77.4999 87.3C73.4999 85.6 70.0999 82.3 67.1999 77.9C67.9999 76.5 68.6999 75 69.3999 73.5C70.2999 71.5 70.9999 69.5 71.5999 67.4C72.9999 62.6 91.1999 68.7 88.4999 76.7C86.9999 80.8 85.1999 84.8 82.9999 88.5ZM60.7999 108.7C51.4999 112.5 40.5999 112.3 31.3999 108C20.7999 103.1 31.6999 86.5 37.7999 89.9C39.9999 91.1 42.2999 91.9 44.7999 92.2C49.0999 99 54.5999 104.7 60.7999 108.7Z" fill="url(#paint1_linear_3_7466)"/>
<path d="M37.4004 51.7V51.2999C37.5004 39.0999 42.5004 26.7 52.5004 20.4C56.2004 18.1 60.5004 16.7 64.8004 16.7H65.0004V35.7999C64.5004 35.7999 63.9004 35.8999 63.4004 36.0999C60.6004 37.2999 58.8004 40.4 57.7004 43.4C56.7004 46.1 56.3004 48.9 56.3004 51.7V52.5C56.4004 59.7 57.7004 66.9 60.6004 73.5C63.7004 81 68.8004 87.7999 76.0004 90.8999C81.4004 93.2999 87.4004 92.7 92.3004 89.8999C98.4004 86.4999 102.8 80.3999 105.6 73.7999C111.6 60.2 111.7 43.7 105.8 29.7C111.6 26.7 111.6 20.7 111.6 20.7C111.6 20.7 117 24.5999 123.1 22.0999C131.2 41.0999 131 63.5999 122.5 82.2999C117.5 93.2999 109.4 102.9 98.7004 107.8C89.2004 112.2 78.1004 112.3 68.6004 108.2C60.0004 104.7 53.0004 98 48.0004 90.2C40.8004 78.9 37.4004 65.2 37.4004 51.7Z" fill="url(#paint2_linear_3_7466)"/>
<defs>
<linearGradient id="paint0_linear_3_7466" x1="0.998687" y1="64.0007" x2="63.5376" y2="64.0007" gradientUnits="userSpaceOnUse">
<stop stop-color="#00D2E6"/>
<stop offset="1" stop-color="#2ECCAA"/>
</linearGradient>
<linearGradient id="paint1_linear_3_7466" x1="39.995" y1="96.7448" x2="73.1684" y2="75.6005" gradientUnits="userSpaceOnUse">
<stop stop-opacity="0"/>
<stop offset="0.514"/>
<stop offset="1" stop-opacity="0"/>
</linearGradient>
<linearGradient id="paint2_linear_3_7466" x1="129.001" y1="64.0006" x2="66.5678" y2="64.0006" gradientUnits="userSpaceOnUse">
<stop stop-color="#1FA385"/>
<stop offset="1" stop-color="#2ECCAA"/>
</linearGradient>
</defs>
</svg>
