<?xml version="1.0" encoding="utf-8"?>
<!-- Generator: Adobe Illustrator 24.0.2, SVG Export Plug-In . SVG Version: 6.00 Build 0)  -->
<svg version="1.1" id="Capa_1" xmlns="http://www.w3.org/2000/svg" xmlns:xlink="http://www.w3.org/1999/xlink" x="0px" y="0px"
	 viewBox="0 0 100 100" style="enable-background:new 0 0 100 100;" xml:space="preserve">
<style type="text/css">
	.st0{fill:#A3C625;}
	.st1{fill:#FBE42D;}
	.st2{fill:#6C99D1;}
	.st3{fill:#ED9143;}
	.st4{fill:#EB5C40;}
	.st5{fill:#FCC125;}
	.st6{fill:#7C58A0;}
	.st7{fill:#E9444E;}
	.st8{fill:#E04692;}
	.st9{fill:#EFF6FB;}
	.st10{fill:#383E43;}
</style>
<polygon class="st0" points="13.2,72.8 17.3,90 21.3,91.7 38.4,88.8 51.4,69.1 "/>
<polygon class="st1" points="13.1,71.9 11.1,59 51.3,67.9 "/>
<polygon class="st2" points="53.1,69 76.5,84.2 40.8,88.7 "/>
<polygon class="st3" points="51.7,65.2 50.3,42.1 28.6,44.8 "/>
<polygon class="st4" points="53.1,64.5 75.5,37.2 51.8,41.3 "/>
<polygon class="st5" points="10.9,57.8 9.5,47.9 27.6,45.2 50.5,66.3 "/>
<polygon class="st6" points="91.9,67 93.8,78 90.4,81.5 76.9,83.1 55.1,68.7 "/>
<polygon class="st7" points="88.2,48.9 86.6,37.5 75.2,38.7 54.4,65.5 "/>
<polygon class="st8" points="88.4,49.2 91.5,65.8 55.1,67 "/>
<path class="st9" d="M88.3,33.1l7.5,46.2c0.3,1.7-0.9,3.3-2.6,3.5L19.3,95.1c-0.2,0-0.3,0-0.5,0c-1.5,0-2.8-1.1-3.1-2.5L8.1,46.4
	L88.3,33.1z M90.5,30L5,44.1l8.1,48.8c0.4,2.8,3,4.9,5.8,4.9c0.3,0,0.7,0,1-0.1L94,85.6c3.2-0.5,5.4-3.5,4.8-6.7L90.5,30
	C90.6,30.1,90.6,30,90.5,30"/>
<path class="st9" d="M90.6,30.3L5,44.4L3.2,33l84.4-13.9c0.7-0.1,1.4,0.3,1.4,1.1L90.6,30.3z"/>
<path class="st9" d="M87,10.6L3.3,33.1L0.8,24c-0.3-1.3,0.4-2.6,1.7-3L80.1,0.1c2.1-0.5,4.2,0.7,4.7,2.7L87,10.6z"/>
<path class="st10" d="M87.5,19.1l-9.9,1.6l-9.4,13.1l10.7-1.7l9.3-12.9C88,19.1,87.7,19.1,87.5,19.1"/>
<polygon class="st10" points="52.7,24.9 43.3,38 54,36.3 63.4,23.2 "/>
<polygon class="st10" points="27.9,29 18.5,42.1 29.2,40.3 38.6,27.2 "/>
<polygon class="st10" points="3.2,33 4.9,43.6 13.7,31.4 "/>
<polygon class="st10" points="10.6,18.7 27.4,26.6 39,23.5 22.1,15.6 "/>
<polygon class="st10" points="35.2,12.2 52.1,19.9 63.6,16.8 46.8,9 "/>
<polygon class="st10" points="87,10.6 86.7,9.5 71.4,2.4 59.9,5.5 76.7,13.4 "/>
<path class="st10" d="M0.8,24.2L3.2,33h0.1l11.5-3.2c-0.1,0-0.1-0.1-0.2-0.1c-0.2-0.1-0.4-0.2-0.5-0.3c-0.3-0.1-0.6-0.3-0.8-0.4
	c-0.4-0.2-0.7-0.3-1.1-0.5c-0.4-0.2-0.8-0.4-1.3-0.6s-0.9-0.4-1.4-0.6C9,27.2,8.5,27,8,26.7c-0.5-0.2-1-0.5-1.5-0.7
	s-0.9-0.4-1.4-0.7c-0.4-0.2-0.9-0.4-1.3-0.6S3,24.3,2.6,24.2c-0.3-0.1-0.6-0.3-1-0.4c-0.2-0.1-0.5-0.2-0.7-0.3
	c-0.1,0-0.2-0.1-0.3-0.1l0,0l0,0"/>
</svg>
