<?xml version="1.0" encoding="utf-8"?>
<!-- Generator: Adobe Illustrator 24.0.2, SVG Export Plug-In . SVG Version: 6.00 Build 0)  -->
<svg version="1.1" id="Capa_1" xmlns="http://www.w3.org/2000/svg" xmlns:xlink="http://www.w3.org/1999/xlink" x="0px" y="0px"
	 viewBox="0 0 144 144" style="enable-background:new 0 0 144 144;" xml:space="preserve">
<style type="text/css">
	.st0{fill:#FF18AD;}
	.st1{fill:#4C0084;}
	.st2{fill:#FFD249;}
	.st3{fill:#FF5A02;}
	.st4{fill:#46FFB7;}
</style>
<path d="M71.4,143c-6.8-6.7-13.6-13.5-20.3-20.3c-0.6-0.6-1-1.5-1-2.3c0-17.5,0-35.1,0-52.6c0,0,0-0.1,0.1-0.2c1.4,0,2.8,0,4.3,0
	c0,16.2,0,32.5,0,49c1.1-0.7,2-1.3,2.8-1.9c1.1-0.8,2.2-0.8,3.3,0c1.4,1,2.8,2,4.3,2.8c0.4,0.2,1.1,0.2,1.4,0c1.5-0.9,3-1.9,4.4-2.9
	c1-0.7,2-0.7,3.1,0c1.4,1,2.9,1.9,4.3,2.9c0.6,0.4,1.1,0.5,1.7,0c1.3-1,2.8-1.8,4.1-2.8c1.1-0.8,2.2-0.8,3.3,0
	c0.8,0.6,1.7,1.1,2.7,1.8c0-12.7,0-25.3,0-37.9c1.6,0,3,0,4.5,0c0,0.5,0.1,0.9,0.1,1.4c0,13.2,0,26.5,0,39.7c0,1.4-0.5,2.4-1.4,3.4
	c-6.2,6.1-12.3,12.3-18.5,18.4c-0.5,0.5-1,0.9-1.5,1.4C72.5,143,71.9,143,71.4,143z M55.7,121.2c2.8,2.8,5.5,5.5,8.2,8.2
	c0.3,0.3,0.8,0.3,1.3,0.3c4.7,0,9.3,0,14,0c0.4,0,1-0.1,1.3-0.3c2.7-2.7,5.4-5.4,8.2-8.2c-0.8-0.5-1.5-0.9-2-1.4
	c-0.8-0.7-1.5-0.6-2.3,0c-1.3,1-2.7,1.8-4,2.7c-1,0.7-2,0.7-3,0c-1.5-1-2.9-2-4.4-2.9c-0.4-0.2-1.1-0.2-1.5,0
	c-1.4,0.8-2.8,1.8-4.2,2.7c-1.2,0.8-2.3,0.9-3.4,0c-1.4-1-2.8-1.9-4.3-2.8c-0.3-0.2-0.9-0.3-1.2-0.1
	C57.5,119.9,56.7,120.5,55.7,121.2z M71.9,137.3c1.2-1.1,2.3-2.1,3.3-3c-2,0-4.1,0-6.2,0C70.1,135.4,71.1,136.4,71.9,137.3z"/>
<path class="st0" d="M1.2,58.6c1.4,0,2.8,0,4.4,0c0-1.5,0-2.9,0-4.4c1.5,0,2.9,0,4.4,0c0,1.4,0,2.8,0,4.3c1.5,0,3,0,4.4,0
	c0,1.5,0,2.9,0,4.4c-1.4,0-2.8,0-4.3,0c0,1.5,0,3,0,4.4c-1.5,0-2.9,0-4.4,0c0-1.4,0-2.8,0-4.4c-1.6,0-3.1,0-4.5,0
	C1.2,61.6,1.2,60.1,1.2,58.6z"/>
<path class="st1" d="M1.2,36.4c1.4,0,2.8,0,4.4,0c0,0.8,0,1.5,0,2.2c0,0.7,0,1.4,0,2.2c-1.5,0-3,0-4.4,0C1.2,39.4,1.2,37.9,1.2,36.4
	z"/>
<path d="M75.8,46.8c0.6-3.4,1.1-7.1,1.9-10.7c0.2-1.2,0-2-0.9-2.9c-2.5-2.4-5-4.8-7.5-7.2c-0.8-0.7-1.4-1.5-1.1-2.7
	c0.4-1.2,1.3-1.6,2.4-1.7c3.5-0.5,7-1,10.6-1.5c1-0.1,1.6-0.5,2.1-1.5c1.5-3.3,3.2-6.5,4.7-9.7c0.5-1,1.1-1.7,2.3-1.6
	c1.1,0,1.7,0.7,2.2,1.6c1.6,3.3,3.3,6.6,4.9,9.9c0.4,0.8,0.9,1.1,1.7,1.2c3.4,0.5,6.9,1,10.3,1.5c0.3,0,0.7,0,0.9,0.2
	c0.7,0.5,1.8,0.9,2,1.6c0.2,0.7-0.2,1.8-0.8,2.4c-2.6,2.7-5.2,5.2-7.9,7.8c-0.7,0.7-0.9,1.3-0.7,2.3c0.7,3.6,1.2,7.2,1.9,10.8
	c0.2,1,0.1,2.1-0.8,2.5c-0.8,0.3-1.9,0.3-2.7,0c-3.3-1.6-6.6-3.4-9.8-5.1c-0.8-0.4-1.3-0.5-2.1,0c-3.3,1.8-6.6,3.5-9.9,5.2
	C77.4,50.1,75.7,49.1,75.8,46.8z M104.9,25.3c-2.3-0.3-4.8-0.8-7.4-1.1c-1.8-0.2-2.9-1-3.7-2.6c-1.1-2.4-2.3-4.7-3.6-7.3
	c-1.3,2.7-2.5,5-3.6,7.5c-0.7,1.5-1.7,2.2-3.4,2.4c-2.6,0.3-5.3,0.7-7.7,1.1c1.9,2,3.7,4.1,5.7,6c1,1,1.4,2.1,1.1,3.5
	c-0.5,2.7-0.9,5.4-1.4,8.4c2.4-1.3,4.7-2.3,6.7-3.6c1.8-1.1,3.4-1.1,5.3,0c2.1,1.3,4.4,2.3,6.8,3.6c-0.5-3-0.9-5.7-1.4-8.4
	c-0.3-1.4,0.1-2.5,1.1-3.5C101.3,29.4,103.1,27.3,104.9,25.3z"/>
<path d="M39.9,27.9c0.3-1.9,0.7-4.1,1.1-6.2c0.2-1,0.1-1.8-0.8-2.6c-1.5-1.3-3-2.7-4.4-4.3c-0.6-0.6-1-1.7-1-2.5
	c0.1-1.1,1.1-1.6,2.2-1.7c2.2-0.3,4.3-0.7,6.4-0.9c0.9-0.1,1.3-0.5,1.7-1.3c0.9-1.8,1.8-3.6,2.7-5.5c0.5-1,1.1-1.8,2.4-1.8
	c1.2,0,1.9,0.8,2.3,1.9c0.9,1.9,1.8,3.8,2.8,5.7c0.2,0.4,0.8,0.8,1.3,0.9c2.3,0.4,4.6,0.6,6.8,1.1c0.8,0.2,1.7,0.9,2,1.6
	c0.2,0.6-0.2,1.8-0.7,2.3c-1.5,1.7-3.1,3.2-4.7,4.7c-0.6,0.6-0.9,1.2-0.7,2.1c0.4,2.1,0.9,4.3,1.1,6.4c0.1,0.8-0.2,2-0.7,2.4
	c-0.6,0.4-1.9,0.4-2.7,0.1c-2-0.9-4-2-5.9-3.1c-0.7-0.4-1.3-0.4-2,0c-2,1.1-4,2.2-6,3.2C41.4,31.2,39.8,30.2,39.9,27.9z M55.6,24.4
	c-0.2-1.5-0.4-2.7-0.7-3.9C54.6,19.1,55,18,56,17.1c0.9-0.8,1.8-1.7,2.9-2.7c-1.7-0.3-2.9-0.5-4.1-0.6c-1.4-0.1-2.3-0.9-2.8-2.1
	c-0.5-1.1-1.1-2.2-1.7-3.5c-0.7,1.3-1.2,2.4-1.7,3.5c-0.6,1.2-1.4,2-2.8,2.1c-1.3,0.1-2.5,0.4-3.8,0.6c1,1,1.8,2,2.7,2.8
	c1,0.9,1.3,2,1,3.4c-0.3,1.2-0.4,2.4-0.6,3.8c1.4-0.7,2.5-1.3,3.7-1.9c1.1-0.6,2.1-0.6,3.2,0C53,23.1,54.2,23.7,55.6,24.4z"/>
<path d="M37,64c-0.4-0.2-1.1-0.4-1.7-0.7C33.6,62.4,32,61,30.4,61c-1.6,0-3.2,1.5-4.8,2.3c-0.2,0.1-0.3,0.2-0.5,0.2
	c-0.9,0-1.9,0.3-2.7,0c-1-0.4-1.1-1.6-0.9-2.7c0.3-1.4,0.4-2.9,0.8-4.4c0.3-1.2,0-1.9-0.9-2.6c-1.2-1-2.3-2-3.3-3.2
	c-0.5-0.6-0.9-1.8-0.7-2.4c0.2-0.7,1.2-1.3,2-1.5c1.6-0.4,3.3-0.6,4.9-0.8c0.9-0.1,1.4-0.5,1.7-1.3c0.7-1.5,1.3-3,2.2-4.3
	c0.4-0.7,1.3-1.3,2.1-1.5c1-0.2,1.8,0.5,2.2,1.5c0.7,1.5,1.4,3,2.2,4.5c0.3,0.5,1,1,1.5,1.1c1.7,0.4,3.4,0.4,5,0.9
	c0.8,0.2,1.8,0.9,2,1.5c0.2,0.7-0.2,1.8-0.8,2.4c-1.1,1.3-2.3,2.4-3.5,3.5c-0.6,0.6-0.8,1.1-0.6,1.9c0.4,1.7,0.6,3.4,0.9,5
	C39.6,62.7,38.7,63.9,37,64z M34.2,57.6c-1-3-0.3-5.3,2.4-7c-1.5-0.4-3-0.5-4-1.2c-1-0.7-1.5-2.1-2.1-3.2c-0.7,1.1-1.2,2.5-2.1,3.2
	c-1,0.7-2.5,0.8-4,1.2c2.7,1.7,3.4,4,2.4,7C29.2,55.7,31.6,55.6,34.2,57.6z"/>
<path d="M109.6,72.4c0.2-1.3,0.4-2.8,0.8-4.3c0.2-0.8,0-1.4-0.6-1.9c-1-0.9-1.9-1.8-2.8-2.7c-0.8-0.7-1.4-1.5-1-2.7
	c0.4-1.2,1.3-1.5,2.5-1.7c1.3-0.2,2.7-0.3,4-0.6c0.6-0.1,1.2-0.6,1.5-1.1c0.7-1.2,1.1-2.5,1.9-3.7c0.5-0.7,1.4-1.4,2.1-1.4
	c0.7,0,1.7,0.7,2.1,1.4c0.8,1.2,1.3,2.6,2,3.9c0.2,0.4,0.8,0.8,1.2,0.9c1.5,0.3,3.1,0.4,4.6,0.8c0.7,0.2,1.6,0.9,1.8,1.5
	c0.2,0.7-0.2,1.7-0.7,2.3c-0.9,1.1-2.1,2-3.1,3.2c-0.4,0.4-0.6,1.2-0.5,1.8c0.1,1.5,0.5,2.9,0.7,4.4c0.2,2.2-1.4,3.3-3.4,2.4
	c-1.3-0.6-2.6-1.3-3.8-2c-0.7-0.4-1.3-0.5-2,0c-1.3,0.8-2.7,1.5-4.1,2.1C111.1,75.6,109.6,74.5,109.6,72.4z M120.9,68.6
	c-0.8-2.5,0-4.2,2.3-5.9c-3,0.3-4.4-1.1-5.3-3.4c-0.7,2.5-2.4,3.5-4.9,3.6c2.2,1.4,2.6,3.3,1.9,5.7
	C116.9,67.2,118.8,67.2,120.9,68.6z"/>
<path class="st0" d="M69.9,83c-1.5,0-2.8,0-4.3,0c-0.2-6.3-2-12-6.2-16.8c-4.2-4.8-9.5-7.4-15.9-7.6c0-1.5,0-2.9,0-4.3
	C57.2,53.9,70.1,66.9,69.9,83z"/>
<path class="st2" d="M83.3,94.1c-1.6,0-2.9,0-4.6,0c0.2-2.7,0.3-5.3,0.7-7.9c0.8-6.2,2.7-12.2,6.3-17.4c2.5-3.7,5.7-6.5,10.2-7.6
	c0.9-0.2,1.8-0.3,2.8-0.4c0,1.5,0,3,0,4.4c-6.6,0.9-9.6,5.8-12,11.2c-2.3,5.1-3.2,10.5-3.4,16C83.3,92.9,83.3,93.5,83.3,94.1z"/>
<path class="st1" d="M92.1,49.8c0,1.5,0,2.8,0,4.3c-4.6,0.2-8.4,2.1-11.3,5.7c-2.9,3.5-4.1,7.6-4.3,12.1c-1.5,0-2.8,0-4.2,0
	C71.6,62.5,79.5,49.8,92.1,49.8z"/>
<path d="M136.6,0.9c3.6,0,6.6,3,6.6,6.6c0,3.7-3.1,6.7-6.7,6.7c-3.6,0-6.6-3.1-6.6-6.7C130,3.9,133,0.9,136.6,0.9z M136.7,5.4
	c-1.2,0-2.2,1-2.2,2.2c0,1.1,1,2.1,2.1,2.2c1.2,0.1,2.3-0.9,2.3-2.1C138.9,6.5,137.8,5.4,136.7,5.4z"/>
<path class="st2" d="M132.2,49.7c0-1.4,0-2.8,0-4.3c-1.5,0-2.9,0-4.4,0c0-1.6,0-3,0-4.5c1.4,0,2.8,0,4.3,0c0-1.5,0-2.9,0-4.4
	c1.6,0,3,0,4.5,0c0,1.4,0,2.8,0,4.3c1.5,0,2.9,0,4.4,0c0,1.6,0,3,0,4.5c-1.4,0-2.8,0-4.3,0c0,1.5,0,2.9,0,4.4
	C135.1,49.7,133.7,49.7,132.2,49.7z"/>
<path class="st1" d="M45.6,36.4c0-1.5,0-2.9,0-4.2c5.9-0.2,11.2,6.1,11,13.1c-1.4,0-2.8,0-4.2,0C51.2,39.1,49.8,37.3,45.6,36.4z"/>
<path class="st3" d="M72.1,43.2c0,1.4,0,2.8,0,4.2c-4.9,1-6.2,4.6-6.7,8.9c-1.4,0-2.8,0-4.2,0C60.9,49.9,65.7,43.1,72.1,43.2z"/>
<path class="st1" d="M114.3,38.7c0,1.4,0,2.8,0,4.3c-1.4,0-2.8,0-4.3,0c0-1.4,0-2.8,0-4.3C111.4,38.7,112.8,38.7,114.3,38.7z"/>
<path class="st1" d="M23.3,31.9c-1.4,0-2.8,0-4.3,0c0-1.4,0-2.8,0-4.3c1.4,0,2.8,0,4.3,0C23.3,29,23.3,30.4,23.3,31.9z"/>
<path class="st2" d="M121.1,25.4c1.5,0,2.8,0,4.2,0c0,1.4,0,2.8,0,4.3c-1.3,0-2.7,0-4.2,0C121.1,28.3,121.1,26.9,121.1,25.4z"/>
<path class="st2" d="M138.7,27.5c-1.5,0-2.8,0-4.2,0c0-1.4,0-2.8,0-4.3c1.4,0,2.8,0,4.2,0C138.7,24.6,138.7,26,138.7,27.5z"/>
<path class="st2" d="M27.9,67.5c1.5,0,2.8,0,4.2,0c0,1.4,0,2.8,0,4.3c-1.3,0-2.7,0-4.2,0C27.9,70.5,27.9,69.1,27.9,67.5z"/>
<path class="st4" d="M10.1,12.1c1.4,0,2.8,0,4.3,0c0,1.4,0,2.8,0,4.3c-1.4,0-2.8,0-4.3,0C10.1,15,10.1,13.6,10.1,12.1z"/>
<path class="st4" d="M25.7,14.2c0-1.4,0-2.8,0-4.3c1.4,0,2.8,0,4.3,0c0,1.4,0,2.8,0,4.3C28.5,14.2,27.1,14.2,25.7,14.2z"/>
<path class="st1" d="M72.2,80.8c0-1.5,0-2.8,0-4.2c1.4,0,2.8,0,4.3,0c0,1.3,0,2.7,0,4.2C75.2,80.8,73.8,80.8,72.2,80.8z"/>
<path class="st1" d="M112.1,12c-1.5,0-2.8,0-4.3,0c0-1.4,0-2.8,0-4.3c1.4,0,2.8,0,4.3,0C112.1,9.1,112.1,10.4,112.1,12z"/>
<path class="st0" d="M69.9,91.9c-1.5,0-2.8,0-4.2,0c0-1.4,0-2.8,0-4.3c1.3,0,2.7,0,4.2,0C69.9,89,69.9,90.4,69.9,91.9z"/>
<path class="st0" d="M69.9,100.8c-1.4,0-2.8,0-4.2,0c0-1.4,0-2.8,0-4.3c1.4,0,2.8,0,4.2,0C69.9,97.9,69.9,99.4,69.9,100.8z"/>
<path class="st2" d="M83.2,103c-1.4,0-2.8,0-4.3,0c0-1.4,0-2.8,0-4.3c1.4,0,2.8,0,4.3,0C83.2,100.1,83.2,101.5,83.2,103z"/>
<path class="st0" d="M69.9,109.6c-1.4,0-2.8,0-4.3,0c0-1.4,0-2.8,0-4.3c1.4,0,2.8,0,4.3,0C69.9,106.7,69.9,108.1,69.9,109.6z"/>
<path class="st4" d="M55.7,121.2c1-0.7,1.8-1.3,2.7-1.7c0.3-0.2,0.9-0.1,1.2,0.1c1.5,0.9,2.9,1.8,4.3,2.8c1.2,0.8,2.3,0.8,3.4,0
	c1.4-1,2.7-1.9,4.2-2.7c0.4-0.2,1.1-0.2,1.5,0c1.5,0.9,2.9,1.9,4.4,2.9c1,0.7,2,0.7,3,0c1.3-0.9,2.7-1.7,4-2.7
	c0.8-0.6,1.5-0.7,2.3,0c0.6,0.5,1.3,0.9,2,1.4c-2.8,2.8-5.5,5.5-8.2,8.2c-0.3,0.3-0.8,0.3-1.3,0.3c-4.7,0-9.3,0-14,0
	c-0.4,0-1-0.1-1.3-0.3C61.2,126.7,58.5,124,55.7,121.2z"/>
<path d="M71.9,137.3c-0.8-0.8-1.8-1.9-2.9-3c2.1,0,4.2,0,6.2,0C74.2,135.2,73.1,136.2,71.9,137.3z"/>
<path class="st3" d="M104.9,25.3c-1.9,2-3.7,4.1-5.6,6c-1,1-1.4,2-1.1,3.5c0.5,2.7,0.9,5.4,1.4,8.4C97.3,42,95,41,92.9,39.7
	c-1.8-1.1-3.4-1.1-5.3,0c-2.1,1.3-4.3,2.3-6.7,3.6c0.5-3,0.9-5.7,1.4-8.4c0.3-1.4-0.1-2.5-1.1-3.5c-1.9-2-3.8-4-5.7-6
	c2.4-0.4,5-0.8,7.7-1.1c1.6-0.2,2.7-0.9,3.4-2.4c1.1-2.4,2.3-4.8,3.6-7.5c1.3,2.6,2.5,4.9,3.6,7.3c0.7,1.7,1.9,2.5,3.7,2.6
	C100.1,24.5,102.6,25,104.9,25.3z"/>
<path class="st4" d="M55.6,24.4c-1.4-0.7-2.6-1.3-3.7-1.9c-1.1-0.6-2.1-0.6-3.2,0c-1.1,0.6-2.3,1.2-3.7,1.9c0.2-1.4,0.4-2.6,0.6-3.8
	c0.3-1.4,0-2.4-1-3.4c-0.9-0.8-1.7-1.8-2.7-2.8c1.3-0.2,2.6-0.5,3.8-0.6c1.4-0.1,2.3-0.9,2.8-2.1c0.5-1.1,1.1-2.1,1.7-3.5
	c0.7,1.3,1.2,2.4,1.7,3.5c0.6,1.2,1.4,2,2.8,2.1c1.2,0.1,2.4,0.4,4.1,0.6c-1.1,1.1-2,1.9-2.9,2.7c-1,0.9-1.5,1.9-1.1,3.3
	C55.2,21.7,55.3,22.9,55.6,24.4z"/>
<path class="st0" d="M34.2,57.6c-2.6-2-4.9-1.9-7.5,0c1-3,0.3-5.4-2.4-7c1.5-0.4,3-0.5,4-1.2c1-0.7,1.4-2.1,2.1-3.2
	c0.7,1.1,1.2,2.5,2.1,3.2c1,0.7,2.5,0.8,4,1.2C33.9,52.3,33.2,54.6,34.2,57.6z"/>
<path class="st2" d="M120.9,68.6c-2.1-1.4-4-1.5-6,0.1c0.6-2.4,0.3-4.3-1.9-5.7c2.5-0.2,4.2-1.1,4.9-3.6c0.9,2.3,2.3,3.6,5.3,3.4
	C120.9,64.4,120,66.2,120.9,68.6z"/>
<path class="st2" d="M136.7,5.4c1.2,0,2.2,1.1,2.1,2.3c-0.1,1.2-1.2,2.2-2.3,2.1c-1.1-0.1-2.1-1.1-2.1-2.2
	C134.4,6.4,135.5,5.4,136.7,5.4z"/>
</svg>
