<?xml version="1.0" encoding="utf-8"?>
<!-- Generator: Adobe Illustrator 24.0.2, SVG Export Plug-In . SVG Version: 6.00 Build 0)  -->
<svg version="1.1" id="Capa_1" xmlns="http://www.w3.org/2000/svg" xmlns:xlink="http://www.w3.org/1999/xlink" x="0px" y="0px"
	 viewBox="0 0 144 144" style="enable-background:new 0 0 144 144;" xml:space="preserve">
<style type="text/css">
	.st0{fill:#200053;}
	.st1{fill:#A45CFF;}
	.st2{fill:#FFFFFF;}
</style>
<path class="st0" d="M59,63H13c-2.2,0-4-1.8-4-4V13c0-2.2,1.8-4,4-4h46c2.2,0,4,1.8,4,4v46C63,61.2,61.2,63,59,63z"/>
<path class="st0" d="M131,63H85c-2.2,0-4-1.8-4-4V13c0-2.2,1.8-4,4-4h46c2.2,0,4,1.8,4,4v46C135,61.2,133.2,63,131,63z"/>
<path class="st0" d="M59,135H13c-2.2,0-4-1.8-4-4V85c0-2.2,1.8-4,4-4h46c2.2,0,4,1.8,4,4v46C63,133.2,61.2,135,59,135z"/>
<g>
	<path class="st1" d="M131,135H85c-2.2,0-4-1.8-4-4V85c0-2.2,1.8-4,4-4h46c2.2,0,4,1.8,4,4v46C135,133.2,133.2,135,131,135z"/>
	<g>
		<path class="st2" d="M96.9,119.2c-0.7,0-1.1-0.3-1.3-0.8c-0.3-0.5-0.3-1,0.2-1.4c1.4-1.3,2.9-2.6,4.4-3.9c0.5-0.5,1.1-0.3,1.6,0.2
			s0.7,1.1,0.2,1.6c-1.4,1.4-2.9,2.7-4.4,4C97.3,119.1,97.1,119.1,96.9,119.2z"/>
		<path class="st2" d="M119.8,109.5c-0.8,0-1.6,0-2.5,0c-1,0-1.6-0.5-1.6-1.3c0.1-0.9,0.6-1.4,1.5-1.5c1.7,0,3.4,0,5.1,0
			c1,0,1.5,0.6,1.5,1.5s-0.6,1.3-1.5,1.3c-0.1,0-0.1,0-0.2,0C121.3,109.5,120.5,109.5,119.8,109.5L119.8,109.5z"/>
		<path class="st2" d="M102.8,123.1c-1.1,0-1.7-0.8-1.3-1.8c0.6-1.7,1.2-3.3,1.8-5c0.3-0.8,0.9-1.1,1.7-0.8c0.8,0.3,1,0.9,0.7,1.7
			c-0.6,1.6-1.2,3.3-1.8,4.9C103.7,122.8,103.4,123.2,102.8,123.1z"/>
		<path class="st2" d="M117.4,119.9c0.1,0.9-0.4,1.2-0.9,1.4c-0.5,0.2-0.9,0-1.2-0.4c-1.1-1.6-2.2-3.1-3.3-4.7
			c-0.4-0.5-0.2-1,0.2-1.4c0.5-0.4,1.2-0.7,1.6-0.1c1.3,1.6,2.5,3.2,3.5,5C117.4,119.9,117.4,120,117.4,119.9z"/>
		<path class="st2" d="M110.7,121.8c0.1,1.7-0.4,2.2-1.4,2.1c-0.6-0.1-0.9-0.3-1-0.9c-0.2-1.9-0.5-3.8-0.7-5.7
			c-0.1-0.7,0.3-1.1,1.1-1.2c0.8-0.1,1.3,0.2,1.5,1C110.4,118.8,110.6,120.5,110.7,121.8z"/>
		<path class="st2" d="M122.1,114.7c0.1,1-0.9,1.6-1.7,1.2c-1.6-0.8-3.2-1.6-4.7-2.4c-0.8-0.4-0.9-1-0.5-1.7s0.9-0.8,1.6-0.5
			c1.5,0.8,3,1.5,4.6,2.3C121.7,113.8,122,114.2,122.1,114.7z"/>
		<path class="st2" d="M111.7,100.4c0.1-0.5,0.3-0.8,0.5-1.2c0.8-1.2,1.6-2.4,2.4-3.6c0.7-1.1,1.4-1.2,2.2-0.6
			c0.5,0.4,0.6,0.8,0.4,1.3c-1,1.8-2.1,3.4-3.4,5c-0.4,0.5-0.9,0.4-1.3,0.2C112,101.3,111.7,100.9,111.7,100.4z"/>
		<path class="st2" d="M116.1,105c-0.8,0-1.1-0.4-1.3-1c-0.2-0.6,0-1.1,0.5-1.4c1.7-0.9,3.4-1.8,5.1-2.7c0.6-0.3,1.2-0.1,1.5,0.5
			c0.4,0.6,0.4,1.3-0.2,1.6c-1.7,1-3.5,1.9-5.2,2.8C116.3,105,116.1,105,116.1,105z"/>
		<path class="st2" d="M93.8,112.9c-0.9,0-1.4-0.3-1.5-0.9c-0.2-0.6,0-1.2,0.7-1.5c0.5-0.2,0.9-0.3,1.4-0.4c1.4-0.4,2.7-0.7,4.1-1
			c0.8-0.2,1.2,0.3,1.5,0.9c0.3,0.7,0,1.3-0.7,1.5C97.4,111.9,95.5,112.4,93.8,112.9z"/>
		<path class="st2" d="M101.3,94.3c0-0.6,0.2-1.1,0.9-1.3c0.7-0.1,1.2,0.1,1.5,0.7c0.6,1.6,1.3,3.2,1.9,4.8c0.4,1,0,1.6-0.8,1.9
			c-1,0.3-1.3-0.3-1.6-1.1c-0.5-1.2-1-2.4-1.5-3.6C101.5,95.3,101.3,94.8,101.3,94.3z"/>
		<path class="st2" d="M102,101.8c-0.1,0.5-0.2,1-0.6,1.2c-0.6,0.3-1.2,0.1-1.7-0.3c-0.8-0.6-1.5-1.3-2.3-1.9c-0.5-0.5-1-1-1.6-1.4
			c-0.6-0.5-0.6-1.1-0.2-1.7s1.1-0.7,1.6-0.3c1.6,1.2,3.1,2.5,4.5,3.9C101.9,101.3,101.9,101.6,102,101.8z"/>
		<path class="st2" d="M110.6,94.4c-0.2,1.4-0.3,2.9-0.5,4.3c-0.1,0.8-0.5,1.5-1.4,1.3c-0.9-0.1-1.2-0.8-1.1-1.6
			c0.2-1.7,0.3-3.3,0.5-5c0.1-0.8,0.6-1.3,1.4-1.2c0.8,0.1,1.1,0.6,1.1,1.4C110.5,93.9,110.6,94.2,110.6,94.4z"/>
		<path class="st2" d="M98.4,107.2c-1.8-0.4-3.7-0.8-5.5-1.3c-0.7-0.2-0.8-0.8-0.7-1.5c0.2-0.7,0.7-1.1,1.3-0.9
			c1.8,0.4,3.5,0.8,5.3,1.2c0.7,0.2,1.1,0.7,1,1.5C99.7,107,99.1,107.2,98.4,107.2z"/>
	</g>
</g>
</svg>
