<?xml version="1.0" encoding="utf-8"?>
<!-- Generator: Adobe Illustrator 24.0.2, SVG Export Plug-In . SVG Version: 6.00 Build 0)  -->
<svg version="1.1" id="Capa_1" xmlns="http://www.w3.org/2000/svg" xmlns:xlink="http://www.w3.org/1999/xlink" x="0px" y="0px"
	 viewBox="0 0 100 100" style="enable-background:new 0 0 100 100;" xml:space="preserve">
<g>
	<path d="M10,92.3c0.5-0.5,1-1.1,1.6-1.6C19.8,82.5,28,74.3,36.2,66c1-1,1.8-1.3,3.2-0.6c4.4,2.2,10,0.1,12.2-4.5
		c2.2-4.5,0.3-10.2-4.1-12.4c-6.5-3.2-14,1.4-13.7,8.6c0,1.3,0.6,2.7,1.1,3.9c0.4,0.9,0.3,1.5-0.4,2.2C27.3,70.5,20.1,77.6,13,84.7
		c-1.4,1.4-2.7,2.7-4,4.1c-0.5,0.5-1,0.9-1.8,1.1c0.5-1.4,1.1-2.8,1.5-4.1c2.3-6.7,4.7-13.4,6.7-20.2c2.1-7,3.8-14.1,4.5-21.4
		c0.3-3.5,0.7-6.9,1-10.4c0.1-1.1,0.5-1.5,1.6-1.6c6.5-0.6,12.9-1.5,19.2-3.2c10-2.7,19.4-6.8,27.4-13.5c0.9-0.8,1.5-0.7,2.3,0.1
		c4.4,4.4,8.8,8.8,13.2,13.2c0.7,0.7,0.6,1.3,0,2c-6.6,7.9-10.7,17-13.4,26.9c-1.8,6.6-2.7,13.2-3.5,20c-0.1,1.2-0.6,1.5-1.7,1.6
		c-9.6,0.4-19,2.1-28.3,4.5C28.7,86,20,89,11.4,92.4c-0.4,0.1-0.8,0.2-1.2,0.3C10.1,92.5,10.1,92.4,10,92.3z"/>
	<path d="M92.8,22.1c-0.2,0.3-0.3,0.6-0.5,0.8c-1.1,1.1-2.3,2.3-3.4,3.4c-0.6,0.6-1.2,0.6-1.8,0c-4.5-4.5-9-9-13.5-13.5
		c-0.6-0.6-0.6-1.1,0-1.7c1.1-1.1,2.2-2.1,3.2-3.2c0.7-0.7,1.3-0.7,2,0c3,3,6,6,9,9c1.4,1.4,2.8,2.8,4.1,4.2
		C92.3,21.4,92.5,21.7,92.8,22.1z"/>
</g>
</svg>
