<?xml version="1.0" encoding="utf-8"?>
<!-- Generator: Adobe Illustrator 24.0.2, SVG Export Plug-In . SVG Version: 6.00 Build 0)  -->
<svg version="1.1" id="Capa_1" xmlns="http://www.w3.org/2000/svg" xmlns:xlink="http://www.w3.org/1999/xlink" x="0px" y="0px"
	 viewBox="0 0 100 100" style="enable-background:new 0 0 100 100;" xml:space="preserve">
<style type="text/css">
	.st0{enable-background:new    ;}
</style>
<g class="st0">
	<path d="M0,25h23.5c4.6,0,8.4,0.6,11.2,1.9c2.9,1.3,5.2,3.1,7.1,5.4c1.9,2.4,3.2,5.1,4.1,8.2s1.3,6.4,1.3,9.9
		c0,5.5-0.6,9.7-1.9,12.7c-1.2,3-3,5.5-5.2,7.6c-2.2,2-4.6,3.4-7.1,4.1c-3.5,0.9-6.6,1.4-9.4,1.4H0V25z M15.8,36.6v28h3.9
		c3.3,0,5.7-0.4,7.1-1.1c1.4-0.7,2.5-2,3.3-3.8c0.8-1.8,1.2-4.8,1.2-8.9c0-5.4-0.9-9.1-2.7-11.2c-1.8-2-4.7-3-8.8-3H15.8z"/>
	<path d="M51.9,25H100v12.7H83.9v38.6H68V37.7H51.9V25z"/>
</g>
</svg>
