<?xml version="1.0" encoding="utf-8"?>
<!-- Generator: Adobe Illustrator 24.0.2, SVG Export Plug-In . SVG Version: 6.00 Build 0)  -->
<svg version="1.1" id="Capa_1" xmlns="http://www.w3.org/2000/svg" xmlns:xlink="http://www.w3.org/1999/xlink" x="0px" y="0px"
	 viewBox="0 0 100 100" style="enable-background:new 0 0 100 100;" xml:space="preserve">
<path d="M99.1,42.8c-0.6-2.2-1.6-4.1-2.9-5.7s-2.9-3-5-3.7c-9.2-3.4-17-2.6-23.4-1.6c-6.4,1-12.9,4.3-17.7,8.6
	c-0.9,0.8-2.3,2.2-4.1,3.9L35.7,33.7c-1.6-1.6-4.2-1.6-5.9,0l-0.2,0.2c-1.6,1.6-1.6,4.2,0,5.9L40,50.1c-3.3,3.1-6.3,5.9-7.8,6.7
	c-3.4,2-2,2.2-5.8,2.2c-3.7,0-7.5,0-11.2,0c-2.2,0-4-1.8-4-4V36.1c0-2.2-1.8-4-4-4H4c-2.2,0-4,1.8-4,4v27.7c0,2.2,1.8,4,4,4h9.7
	c7.5,0,8.6,0,16.1,0c4.8,0,13.3-7.9,14.6-9.4c0.6-0.7,1.2-1.4,1.8-2.1l10.1,10.1c1.6,1.6,4.2,1.6,5.9,0l0.2-0.2
	c1.6-1.6,1.6-4.2,0-5.9L52.1,50.1c3.4-3.3,7.2-6.3,11.7-8.3c8.9-3.9,20.8-2.1,23.2,0.4c1.3,1.4,1.9,3.9,1.9,7.8
	c0,2.9-0.3,4.9-0.9,6.2s-1.4,2.1-2.3,2.7c-1,0.5-2.7,0.7-5,0.7c0,0-2.8,0-2.8,0c-1.4,0-2.9-0.6-2.9-3.3V49c0-2.3-1.9-4.3-4.3-4.3
	c-2.3,0-4.3,1.9-4.3,4.3v14.6c0,2.3,1.9,4.3,4.3,4.3c0.3,0,0.6,0,0.9-0.1c1.6,0,4.1,0,5.3,0c2.1,0,4.3,0,6.4,0c2,0,4.3-0.3,6.7-1
	c1.7-0.5,3.3-1.4,4.8-2.7c0.1-0.1,0.2-0.2,0.4-0.3c1.4-1.4,2.6-3.1,3.4-5.1c0.9-2,1.3-5,1.3-8.8C100,47.3,99.8,44.9,99.1,42.8z"/>
</svg>
