<?xml version="1.0" encoding="utf-8"?>
<!-- Generator: Adobe Illustrator 24.0.2, SVG Export Plug-In . SVG Version: 6.00 Build 0)  -->
<svg version="1.1" id="Capa_1" xmlns="http://www.w3.org/2000/svg" xmlns:xlink="http://www.w3.org/1999/xlink" x="0px" y="0px"
	 viewBox="0 0 1000 1000" style="enable-background:new 0 0 1000 1000;" xml:space="preserve">
<style type="text/css">
	.st0{fill:#E3E4E5;}
	.st1{fill:#93683E;}
	.st2{fill:#845E37;}
	.st3{fill:#785531;}
	.st4{fill:#7B5733;}
	.st5{fill:#634627;}
	.st6{fill:#4A8033;}
	.st7{fill:#5CB142;}
	.st8{fill:#80BA2F;}
	.st9{fill:#42722D;}
</style>
<path class="st0" d="M613.8,816.4H346.2c-31.9,0-63.2,8.4-90.8,24.3L182,883c-8.2,4.7-5.8,17.2,3.6,18.6l153,21.5
	c28.9,4.1,56.2,16,78.8,34.6l16.6,13.6c23.3,19.1,53.9,26.8,83.4,20.9l205.3-40.8c83-16.3,116.2-40,124.5-68.6l2.6-8.7
	c1.5-5.2-1.6-10.6-6.8-12l-124.1-32.2C684.6,821,649.2,816.4,613.8,816.4z"/>
<polygon class="st1" points="722.7,593 684.5,585.3 575.6,698.3 549.6,687 548.5,604.8 532.7,589.1 495.6,662.2 456.1,618.3 
	409.4,623.4 492.5,749 460.4,898.6 648.8,898.6 612.8,809.8 619.5,733.2 "/>
<polygon class="st2" points="612.8,809.8 619.5,733.2 722.7,593 684.5,585.3 575.6,698.3 544.7,785.3 542.3,857.6 551.7,898.6 
	648.8,898.6 "/>
<polygon class="st3" points="570.3,713.2 575.6,698.3 549.6,687 548.5,604.8 543.1,599.4 535.7,696.5 "/>
<polygon class="st4" points="495.6,662.2 456.1,618.3 445.9,619.5 487.4,668.5 "/>
<polygon class="st5" points="612.8,809.8 619.5,733.2 722.7,593 706.9,589.9 602.3,722.3 595.9,809.4 631.2,898.6 648.8,898.6 "/>
<path class="st6" d="M832.6,478.2l-72.1-14.1c-26.5-5.2-52.2,12.1-57.4,38.6L689,574.9l72.1,14.1c26.5,5.2,52.2-12.1,57.4-38.6
	L832.6,478.2z"/>
<path class="st6" d="M894.6,628l-30.8-42.4c-11.3-15.6-33.2-19.1-48.8-7.8l-42.4,30.8l30.8,42.4c11.3,15.6,33.2,19.1,48.8,7.8
	L894.6,628z"/>
<path class="st6" d="M452.4,610l-5.5-62.3c-2-22.9-22.3-39.9-45.2-37.9l-62.3,5.5l5.5,62.3c2,22.9,22.3,39.9,45.2,37.9L452.4,610z"
	/>
<path class="st7" d="M687.6,532.8l12-61.4c4.4-22.6-10.3-44.5-32.9-48.9l-61.4-12l-12,61.4c-4.4,22.6,10.3,44.5,32.9,48.9
	L687.6,532.8z"/>
<path class="st7" d="M660.6,410.7l12-61.4c4.4-22.6-10.3-44.5-32.9-48.9l-61.4-12l-12,61.4c-4.4,22.6,10.3,44.5,32.9,48.9
	L660.6,410.7z"/>
<path class="st8" d="M632.5,283.9l12-61.4c4.4-22.6-10.3-44.5-32.9-48.9l-61.4-12l-12,61.4c-4.4,22.6,10.3,44.5,32.9,48.9
	L632.5,283.9z"/>
<path class="st8" d="M602.2,154.3l10.3-52.7c3.8-19.4-8.9-38.2-28.3-42l-52.7-10.3L521.3,102c-3.8,19.4,8.9,38.2,28.3,42
	L602.2,154.3z"/>
<path class="st6" d="M553.8,590.5l35.3-42.5c13-15.6,10.8-38.9-4.8-51.9l-42.5-35.3l-35.3,42.5c-13,15.6-10.8,38.9,4.8,51.9
	L553.8,590.5z"/>
<path class="st9" d="M752.3,685.3l18.6-32.2c6.8-11.8,2.8-27-9.1-33.8l-32.2-18.6l-18.6,32.2c-6.8,11.8-2.8,27,9.1,33.8L752.3,685.3
	z"/>
<path class="st6" d="M656.9,597.1l7.1-36.4c2.6-13.4-6.1-26.4-19.5-29l-36.4-7.1l-7.1,36.4c-2.6,13.4,6.1,26.4,19.5,29L656.9,597.1z
	"/>
<path class="st6" d="M491.6,537.7l-2.9-22.1c-1.1-8.1-8.5-13.9-16.6-12.8l-22.1,2.9l2.9,22.1c1.1,8.1,8.5,13.9,16.6,12.8
	L491.6,537.7z"/>
<path class="st9" d="M509.9,616l14.2-17.1c5.2-6.3,4.4-15.7-1.9-20.9l-17.1-14.2l-14.2,17.1c-5.2,6.3-4.4,15.7,1.9,20.9L509.9,616z"
	/>
<path class="st8" d="M542.1,375.3l12.7-18.3c4.7-6.7,3-16-3.8-20.7l-18.3-12.7L520,342c-4.7,6.7-3,16,3.8,20.7L542.1,375.3z"/>
<path class="st8" d="M567,467.8l18.6-32.2c6.8-11.8,2.8-27-9.1-33.8l-32.2-18.6l-18.6,32.2c-6.8,11.8-2.8,27,9.1,33.8L567,467.8z"/>
<path class="st7" d="M368.6,504.6l-5.5-62.3c-2-22.9-22.3-39.9-45.2-37.9l-62.3,5.5l5.5,62.3c2,22.9,22.3,39.9,45.2,37.9
	L368.6,504.6z"/>
<path class="st7" d="M951.6,338.7l-87.5-17.1c-32.2-6.3-63.4,14.7-69.7,46.9L777.3,456l87.5,17.1c32.2,6.3,63.4-14.7,69.7-46.9
	L951.6,338.7z"/>
<path class="st9" d="M397.6,629.4h-41.3c-15.2,0-27.5,12.3-27.5,27.5v41.3h41.3c15.2,0,27.5-12.3,27.5-27.5V629.4z"/>
<path class="st8" d="M509.2,347l-82,7.2c-30.2,2.7-52.5,29.3-49.9,59.5l7.2,82l82-7.2c30.2-2.7,52.5-29.3,49.9-59.5L509.2,347z"/>
<path class="st7" d="M293.8,275.7l-17.8,59.7c-6.5,22,6,45.1,28,51.6l59.7,17.8l17.8-59.7c6.5-22-6-45.1-28-51.6L293.8,275.7z"/>
<path class="st6" d="M319,526.7l-58.1-17.3c-21.4-6.4-43.9,5.8-50.3,27.2l-17.3,58.1l58.1,17.3c21.4,6.4,43.9-5.8,50.3-27.2
	L319,526.7z"/>
<path class="st8" d="M718.2,209.8l-44.3,25.6c-16.3,9.4-21.9,30.3-12.5,46.6l25.6,44.3l44.3-25.6c16.3-9.4,21.9-30.3,12.5-46.6
	L718.2,209.8z"/>
<path class="st8" d="M281.3,394l-31.2-61.6c-11.5-22.7-39.2-31.7-61.8-20.2l-61.6,31.2l31.2,61.6c11.5,22.7,39.2,31.7,61.8,20.2
	L281.3,394z"/>
<path class="st8" d="M528,202.9h-78.2c-28.8,0-52.1,23.3-52.1,52.1v78.2h78.2c28.8,0,52.1-23.3,52.1-52.1V202.9z"/>
<path class="st8" d="M236.7,126.5l-47.7,57.4c-17.5,21.1-14.6,52.5,6.5,70.1l57.4,47.7l47.7-57.4c17.5-21.1,14.6-52.5-6.5-70.1
	L236.7,126.5z"/>
<path class="st8" d="M754.8,304.6l-52.5,26.6c-19.3,9.8-27,33.4-17.2,52.7l26.6,52.5l52.5-26.6c19.3-9.8,27-33.4,17.2-52.7
	L754.8,304.6z"/>
<path class="st8" d="M328,202.7l-11.4,38.2c-4.2,14.1,3.8,28.8,17.9,33l38.2,11.4l11.4-38.2c4.2-14.1-3.8-28.8-17.9-33L328,202.7z"
	/>
<path class="st7" d="M808.5,129.5l39.4,6c14.5,2.2,28-7.7,30.3-22.2l6-39.4l-39.4-6c-14.5-2.2-28,7.7-30.3,22.2L808.5,129.5z"/>
<path class="st7" d="M896.3,311.4l39.4,6c14.5,2.2,28-7.7,30.3-22.2l6-39.4l-39.4-6c-14.5-2.2-28,7.7-30.3,22.2L896.3,311.4z"/>
<path class="st7" d="M292.5,36.7l-18.4,61.9c-6.8,22.8,6.2,46.7,29,53.5l61.9,18.4l18.4-61.9c6.8-22.8-6.2-46.7-29-53.5L292.5,36.7z
	"/>
<path class="st7" d="M840,154.4l-68.1,39.3c-25.1,14.5-33.7,46.5-19.2,71.6l39.3,68.1l68.1-39.3c25.1-14.5,33.7-46.5,19.2-71.6
	L840,154.4z"/>
<path class="st7" d="M508,77.1h-67.2c-24.8,0-44.8,20.1-44.8,44.8v67.2h67.2c24.8,0,44.8-20.1,44.8-44.8V77.1z"/>
<path class="st8" d="M194.2,290.1l-36.6-63.5c-13.5-23.4-43.4-31.4-66.7-17.9l-63.5,36.6L64,308.8c13.5,23.4,43.4,31.4,66.7,17.9
	L194.2,290.1z"/>
<path class="st7" d="M751.1,4.7l-86,36.9c-31.7,13.6-46.3,50.3-32.7,81.9l36.9,86l86-36.9C787,159,801.6,122.3,788,90.7L751.1,4.7z"
	/>
</svg>
