<?xml version="1.0" encoding="utf-8"?>
<!-- Generator: Adobe Illustrator 24.0.2, SVG Export Plug-In . SVG Version: 6.00 Build 0)  -->
<svg version="1.1" id="Capa_1" xmlns="http://www.w3.org/2000/svg" xmlns:xlink="http://www.w3.org/1999/xlink" x="0px" y="0px"
	 viewBox="0 0 100 100" style="enable-background:new 0 0 100 100;" xml:space="preserve">
<path d="M25.3,48h3.9c0,0,2.6,0,2.8,0c3,0.3,5.3,2.9,5.3,6v7.2c0,2.3-0.4,4.5-1.1,6.5c-0.7,2-1.8,3.8-3.4,5.4
	c-1.5,1.5-3.1,2.6-4.8,3.2c-2.3,0.9-5.1,1.3-8.4,1.3c-1.9,0-4-0.1-6.2-0.4s-4.1-0.8-5.6-1.6c-1.5-0.8-2.9-1.9-4.1-3.4
	c-1.2-1.4-2.1-2.9-2.6-4.5C0.4,65.3,0,63.1,0,61.2V44c0-3.3,2.7-6,6-6h0c3.3,0,6,2.7,6,6v17.7c0,2.1,0.6,3.8,1.8,5
	c1.2,1.2,2.8,1.8,4.9,1.8s3.7-0.6,4.9-1.8c1.2-1.2,1.8-2.8,1.8-5V48H25.3z"/>
<path d="M88,59.9c-0.1,1.7-0.4,3.4-1.2,4.9c-1.6,3.1-3.2,3.6-6.6,3.6c-4.5-0.1-10.5-10.4-10.2-10.8c0,0,12.6-19.5,12.6-19.5H69.4
	c0,0-6.7,12-6.7,12c-2.9-5-7.8-11.1-12.1-14c-3.7-2.5-7.5-4.5-12.3-4c-3.9,0.4-6.9,2.5-8.6,6c-1.1,2.3-1,5.5,1,7
	c1.6,1.2,4.1,0.8,5.3-0.8c1.3-1.8,1.2-4.9,4.1-5c4.4-0.1,6.8,5.4,8.8,8.5c1.9,3,3.9,5.9,5.8,8.9L41.4,76.9h13.3l7.7-12.5
	c1.8,2.9,6.1,7.7,8.5,9.1c5.1,2.8,12.3,3.5,17.7,0.6c2-1.1,11.3-5.5,11.3-16.8c0-4.5,0-9.8,0-15.7c0-2.2-2.2-3.5-5.9-3.5
	c-1.3,0-2.6,0.4-3.5,1.3c-0.6,0.6-0.9,1.5-1.2,2.3C87.5,47.9,88.5,53.4,88,59.9z"/>
<circle cx="94.6" cy="28.1" r="5.4"/>
</svg>
