<?xml version="1.0" encoding="utf-8"?>
<!-- Generator: Adobe Illustrator 24.0.2, SVG Export Plug-In . SVG Version: 6.00 Build 0)  -->
<svg version="1.1" id="Capa_1" xmlns="http://www.w3.org/2000/svg" xmlns:xlink="http://www.w3.org/1999/xlink" x="0px" y="0px"
	 viewBox="0 0 100 100" style="enable-background:new 0 0 100 100;" xml:space="preserve">
<style type="text/css">
	.st0{fill:#6F98D0;}
	.st1{fill:#396CB3;}
</style>
<path class="st0" d="M82.8,29c-11.1,0-22.2,0.4-33.3,0c-7.2-0.2-12-5.7-12-12.4S42.6,4.4,49.9,4.1c11-0.3,22,0,33,0.1
	C82.7,5.3,81.8,5.4,81,6c-7,4.6-7.9,13.8-2,19.7C80.1,27,82,27.3,82.8,29"/>
<path class="st0" d="M45.3,62.6c-11.1,0-22.2,0.4-33.3,0C4.8,62.3,0,56.8,0,50.2c0-6.7,5.1-12.3,12.4-12.5c11-0.3,22,0,33,0
	c-0.2,1.1-1.2,1.2-1.9,1.7c-7,4.6-7.9,13.8-2,19.8C42.5,60.4,44.5,60.7,45.3,62.6"/>
<path class="st0" d="M82.8,96c-11.1,0-22.2,0.3-33.3,0c-7.2-0.2-12-5.7-12-12.4c0-6.7,5.1-12.3,12.4-12.5c11-0.3,22,0,33,0
	c-0.2,1.1-1.2,1.2-1.9,1.7c-7,4.6-7.9,13.8-2,19.8C80.1,94,82,94.3,82.8,96"/>
<path class="st1" d="M82.8,29c-0.7-1.7-2.8-2-4.1-3.3c-5.9-6-4.9-15.2,2-19.7c0.7-0.4,1.7-0.5,1.9-1.7c1.6-0.1,3.2-0.2,4.8-0.1
	c7,0.3,12.3,5.7,12.5,12.4c0.1,6.6-5.1,12.2-12.2,12.6C86.2,29.2,84.5,29.1,82.8,29"/>
<path class="st1" d="M45.3,62.6c-0.7-1.7-2.8-2-4.1-3.3c-5.9-6-4.9-15.2,2-19.8c0.7-0.4,1.7-0.5,1.9-1.7c1.6-0.1,3.2-0.2,4.8-0.1
	c7,0.3,12.3,5.7,12.4,12.4c0.1,6.6-5.1,12.2-12.2,12.7C48.6,62.8,47,62.6,45.3,62.6"/>
<path class="st1" d="M82.8,96c-0.7-1.8-2.8-2-4.1-3.3c-5.9-6-4.9-15.2,2-19.8c0.7-0.4,1.7-0.5,1.9-1.7c1.6-0.1,3.2-0.2,4.8-0.1
	c7,0.3,12.3,5.7,12.5,12.4c0.1,6.7-5.1,12.3-12.2,12.8C86.2,96.4,84.5,96.1,82.8,96"/>
</svg>
