<?xml version="1.0" encoding="utf-8"?>
<!-- Generator: Adobe Illustrator 24.0.2, SVG Export Plug-In . SVG Version: 6.00 Build 0)  -->
<svg version="1.1" id="Capa_1" xmlns="http://www.w3.org/2000/svg" xmlns:xlink="http://www.w3.org/1999/xlink" x="0px" y="0px"
	 viewBox="0 0 100 100" style="enable-background:new 0 0 100 100;" xml:space="preserve">
<style type="text/css">
	.st0{fill:#1A5D38;}
	.st1{fill:#1FA367;}
	.st2{fill:#0E7D42;}
	.st3{fill:url(#SVGID_1_);}
	.st4{fill:#4EB47F;}
</style>
<path class="st0" d="M63,74.3V51.7h-7.1V74c0,2.1-0.6,6.4-6.5,6.4H23.2v9.4c0,0.6,0.1,1.1,0.3,1.6c0.2,0.5,0.5,1,0.9,1.3
	c0.4,0.4,0.8,0.7,1.3,0.9c0.5,0.2,1,0.3,1.6,0.3h68.5c0.5,0,1.1-0.1,1.6-0.3c0.5-0.2,1-0.5,1.3-0.9c0.4-0.4,0.7-0.8,0.9-1.3
	c0.2-0.5,0.3-1,0.3-1.6V74.3H63z"/>
<path class="st1" d="M27.5,5.5c-0.5,0-1.1,0.1-1.6,0.3c-0.5,0.2-1,0.5-1.3,0.9c-0.4,0.4-0.7,0.8-0.9,1.3c-0.2,0.5-0.3,1-0.3,1.6v14
	h28.2c1.1,0,2.3,0.5,3,1.3c0.8,0.7,1.2,1.8,1.2,2.9v0.3h0.1h7V5.5H27.5z"/>
<polygon class="st1" points="65.2,30.1 65.2,50 100,50 100,30.1 "/>
<polygon class="st2" points="55.8,30.1 55.8,50 55.9,50 62.8,50 62.8,30.1 "/>
<linearGradient id="SVGID_1_" gradientUnits="userSpaceOnUse" x1="-23.8423" y1="50.45" x2="103.3739" y2="50.45" gradientTransform="matrix(1 0 0 -1 0 102)">
	<stop  offset="0" style="stop-color:#1B8950"/>
	<stop  offset="0.5" style="stop-color:#147F44"/>
	<stop  offset="1" style="stop-color:#116732"/>
</linearGradient>
<path class="st3" d="M52.3,28.2c-0.2-0.4-0.4-0.7-0.8-1c-0.8-0.8-1.9-1.2-3.1-1.2H24.1H24H4.4c-0.5,0-1.2,0.1-1.7,0.3
	c-0.5,0.2-1.1,0.5-1.4,0.9c-0.4,0.4-0.7,0.8-1,1.3C0.1,29,0,29.5,0,30.1v42.8c0,0.5,0.1,1.1,0.3,1.7c0.2,0.5,0.5,1,1,1.3
	c0.4,0.4,0.8,0.7,1.4,0.9c0.5,0.2,1.1,0.3,1.7,0.3H24h24.4c1.2,0,2.2-0.4,3.1-1.2s1.3-1.9,1.3-3V51.5v-4.4v-2.7V30.1
	C52.8,29.4,52.6,28.8,52.3,28.2z M30.3,51.5l8.9,14h-6.7l-5.3-9.7c-0.2-0.4-0.4-0.8-0.6-1.3h-0.1c-0.2,0.4-0.4,0.8-0.6,1.2L24,58.9
	l-3.7,6.6h-6.7l9.2-14l-8.5-13.8h6.8l2.9,5.5l1.8,3.4c0.4,0.8,0.7,1.4,0.8,1.9h0.1c0.3-0.7,0.6-1.3,1-2l1.9-3.3l3.1-5.5H39l-4.1,6.4
	L30.3,51.5L30.3,51.5z"/>
<path class="st4" d="M99.7,8.1c-0.2-0.5-0.5-1-0.8-1.3c-0.4-0.4-0.7-0.7-1.2-0.9c-0.6-0.2-1-0.4-1.6-0.4H65.2v22.6H100V9.7
	C100,9.2,99.9,8.6,99.7,8.1z"/>
<polygon class="st2" points="65.2,51.8 65.2,72.4 99.9,72.4 100,51.8 "/>
</svg>
