<?xml version="1.0" encoding="utf-8"?>
<!-- Generator: Adobe Illustrator 24.0.2, SVG Export Plug-In . SVG Version: 6.00 Build 0)  -->
<svg version="1.1" id="Capa_1" xmlns="http://www.w3.org/2000/svg" xmlns:xlink="http://www.w3.org/1999/xlink" x="0px" y="0px"
	 viewBox="0 0 100 100" style="enable-background:new 0 0 100 100;" xml:space="preserve">
<style type="text/css">
	.st0{fill:#3F403D;}
	.st1{fill:#82BB4C;}
	.st2{fill:#60A13A;}
	.st3{fill:#B5D16C;}
	.st4{fill:#86BE4D;}
</style>
<path class="st0" d="M44.7,76.5c1.8,0,4.3,1.2,2.5,3.3c-0.7,0.8-1.7,0.6-2.6,0.8c-0.8,0.2-1.8,0.6-2.7,0.8c-2,0.6-3.8,1.4-5.7,2.3
	c-3.6,1.8-7,3.8-10.4,6.2c-2.6,1.8-5.2,3.5-7.9,5c-0.8,0.4-1.7,0.8-2.5,1c-1.3,0.3-2.5,0.9-3.4,2c-0.7,0.7-1.6,1-2.6,1
	c-2.9,0-5.7-0.6-8.5-1.1c-0.3,0-0.6-0.1-1-0.1v-2c2.3,0.1,4.5,0.3,6.7,0c3-0.4,5.7-1.3,7.5-4.5c0.1,0.7-0.3,1.8,0.9,1.2
	c4.5-2.1,8.9-4.2,13.1-6.8c2.6-1.2,4.9-2.8,7.3-4.1c1.3-0.7,2.7-1.6,3.9-2.4c0.5-0.3,1.2-0.7,1.6-1.2s0.3-1,0.9-1.3
	c0.5-0.2,1.1-0.2,1.7-0.2C44.1,76.5,44.4,76.5,44.7,76.5"/>
<path class="st0" d="M77.3,71.1c2.2,0.5,4.3,0.7,6.5,0.6c2.4,0,4.5-1,6.3-2.4c3-2.1,5.6-4.7,8.4-6.9c0.4-0.3,0.7-0.9,1.4-0.9v1.2
	c-0.7,0.2-1.2,0.8-1.8,1.2c-2.5,1.9-5,3.8-7.5,5.7c-0.7,0.5-1.1,1-0.4,1.9c0.6,0.7-0.1,0.8-0.6,0.8c-1.8,0.3-3.4,0.4-5.2,0.4
	c-2.7,0-5.5-0.2-8.2-0.3c0-0.1,0-0.1,0-0.2C76.8,71.9,77,71.5,77.3,71.1"/>
<path class="st1" d="M41.6,77.6c-1.8,1.7-3.9,2.8-6,4c-2.4,1.4-4.8,3-7.3,4.1c-2.9-0.3-5.5-1.3-7.8-3.1c-2.1-1.7-3.8-3.7-5.2-6.1
	C12.3,71,10.6,65,10,58.7c-0.5-5.8,0-11.6,0.8-17.4c0.2-1.4,0.2-1.4,1.7-0.9c5.4,2.4,10.9,4.7,15.9,7.7c1,0.6,2,1.7,3.1,2.2
	c-0.2,1.2-0.4,2.6-0.5,3.8c-0.4,3-0.5,6.1,0.2,9c0.6,2.4,1.2,4.9,2.5,7.1c1.6,2.9,3.7,5,6.6,6.3C41,76.8,41.4,77.1,41.6,77.6"/>
<path class="st2" d="M24.7,64.4c0.8,2,2.3,3.6,3.4,5.5c1.2,2.1,2.7,4,3.9,6c1.2,1.9,2.5,3.8,3.9,5.6c-0.4,0.3-0.8,0.7-1.4,0.7
	c-1.2-1.2-1.9-2.9-2.9-4.2c-1.3-2-2.5-4-3.7-6c-0.7-1.1-1.4-2.3-2.1-3.5c-0.2-0.4-0.4-0.8-0.8-1c-1.6-2.6-3-5.1-4.6-7.7
	c-0.5-0.8-1-1.8-1.4-2.6c0.1-0.1,0.2-0.2,0.3-0.2c0.7,0.5,1,1.3,1.6,2.1C22,60.8,23.1,62.8,24.7,64.4"/>
<path class="st3" d="M76.9,3h0.5c-0.1,0.4,0.1,0.8,0.2,1.2c1.7,4.9,3.1,9.8,4.1,14.9c1.1,5.4,2.2,10.8,2.3,16.3
	c0.2,5.1,0.2,10-0.5,15.1c-1,7.2-2.8,14.3-6.3,20.8c-0.4,0.5-0.7,1-0.9,1.6c-0.2,0.3-0.4,0.6-0.6,0.9c-3.7,5.7-9,9.2-15.5,11
	c-3.9,1.1-7.7,0.7-11.3-1.4c-1.2-0.8-2.3-2-3.6-2.7c-0.3-0.6-0.1-1.2,0.1-1.8c1.9-4.3,3.7-8.8,5.6-13.1c2.7-6.2,5.4-12.3,8-18.5
	c1.2-2.9,2.4-5.8,3.5-8.8c0.1-0.2,0.3-0.5,0-0.6c-0.3-0.1-0.5,0.1-0.6,0.3c-0.1,0.1-0.1,0.3-0.2,0.4c-2.5,4.3-4.5,9-6.6,13.6
	c-2.7,5.7-5.2,11.4-8.1,17c-1.1,2.2-2,4.6-3,6.8c-0.9,2.1-1.3,2.2-3.3,1c-0.2-0.1-0.5-0.2-0.7-0.3c-1.7-0.8-3.2-1.9-4.5-3.2
	c-2.6-3-3.7-6.7-4.6-10.6c-0.6-3-0.5-6-0.1-9c0.1-1.1,0.6-2.3,0.5-3.5c0.8-0.7,0.7-1.9,1-2.7c2.6-7.2,5.9-14.1,11.2-19.9
	c4.5-4.9,9.8-8.8,15.2-12.6S69.8,8,75.3,4.3C76.1,3.9,76.7,3.7,76.9,3"/>
<path class="st4" d="M42.5,77.4c0.3-0.6,0.9-1.2,1.3-2c1-2.3,1.9-4.7,3-6.8c2.9-5.6,5.3-11.4,8.1-17c2.2-4.6,4.1-9.1,6.6-13.6
	c0.1-0.1,0.1-0.3,0.2-0.4c0.1-0.2,0.3-0.4,0.6-0.3c0.3,0.1,0.5,0.5,0.4,0.7c-1.1,2.9-2,5.5-3.2,8.4C57,52.7,54,60.2,51.3,66.3
	c-1.9,4.3-3.7,8.8-5.6,13.1c-0.1,0.3-0.1,0.9-0.5,1c-0.6,0.1-1.9-1.1-2.3-1.6C42.4,78.4,42.4,77.9,42.5,77.4"/>
</svg>
