<?xml version="1.0" encoding="utf-8"?>
<!-- Generator: Adobe Illustrator 24.0.2, SVG Export Plug-In . SVG Version: 6.00 Build 0)  -->
<svg version="1.1" id="Capa_1" xmlns="http://www.w3.org/2000/svg" xmlns:xlink="http://www.w3.org/1999/xlink" x="0px" y="0px"
	 viewBox="0 0 100 100" style="enable-background:new 0 0 100 100;" xml:space="preserve">
<style type="text/css">
	.st0{fill:#579DD5;}
	.st1{fill:#DEEBF9;}
</style>
<path class="st0" d="M11.8,23.9c0.6-0.3,0.6-0.9,0.9-1.5c1.5-2.3,4.2-3.4,6.7-2.7c2.7,0.8,4.5,3,4.5,5.8c0,2.9-1.7,5.1-4.4,5.9
	c-2.6,0.7-5.2-0.3-6.7-2.6c-0.3-0.5-0.4-1.1-0.9-1.5v-3.5H11.8z"/>
<path class="st0" d="M91.4,61.7c-0.5,0.2-0.5,0.7-0.7,1.1c-1.7,2.7-4.3,3.8-7.1,2.9c-2.8-0.9-4.4-3.3-4.2-6.4c0.2-2.7,2.2-4.9,5-5.4
	c2.6-0.5,5.3,1,6.5,3.8c0.1,0.3,0,0.7,0.4,0.8C91.4,58.6,91.4,61.7,91.4,61.7z"/>
<path class="st0" d="M91.4,78.9c-0.5,0.2-0.5,0.7-0.7,1.1c-1.6,2.7-4.3,3.8-7.1,2.9c-2.8-0.9-4.4-3.3-4.2-6.4
	c0.2-2.8,2.3-5.1,5.1-5.5c2.6-0.4,5.3,1.2,6.4,4c0.1,0.3,0,0.6,0.4,0.8V78.9z"/>
<path class="st0" d="M11.8,41.1c0.3-0.5,0.7-1.1,1-1.7c1.6-2.3,4.2-3.3,6.8-2.5c2.8,0.9,4.4,3.1,4.3,6.2c-0.1,2.7-2,4.9-4.6,5.5
	c-2.7,0.6-5.4-0.6-6.7-3c-0.2-0.4-0.5-0.9-0.7-1.4v-3.2H11.8z"/>
<path class="st0" d="M91.4,27.1c-0.2,0.4-0.4,0.8-0.6,1.1c-1.4,2.7-4.1,4-6.8,3.3c-3-0.7-4.8-3.1-4.7-6.2c0.1-2.8,2.2-5.2,5-5.7
	c2.8-0.5,5.5,1.1,6.7,3.8c0.1,0.3,0,0.7,0.4,0.8C91.4,24.3,91.4,27.1,91.4,27.1z"/>
<path class="st0" d="M91.4,44.6c-0.5,0.3-0.5,0.8-0.8,1.2c-1.6,2.6-4.4,3.6-7.2,2.7c-2.8-1-4.4-3.5-4-6.8c0.3-2.7,2.7-4.9,5.5-5.1
	c2.7-0.2,5.2,1.6,6.1,4.4c0.1,0.2,0.2,0.4,0.3,0.6V44.6z"/>
<path class="st0" d="M11.8,58.2c1.4-2.3,2.8-4.4,5.8-4.4c3-0.1,5.6,2,6.1,4.9c0.5,3-1,5.9-3.7,7c-2.8,1-6-0.1-7.5-2.8
	c-0.2-0.4-0.5-0.9-0.7-1.4C11.8,61.5,11.8,58.2,11.8,58.2z"/>
<path class="st0" d="M11.8,75.3c1.4-2.4,2.8-4.5,5.9-4.5c2.9,0,5.5,2,5.9,4.8c0.5,3-1,5.9-3.6,7c-2.7,1-5.7,0-7.3-2.5
	c-0.3-0.5-0.6-1.1-0.9-1.7C11.8,78.4,11.8,75.3,11.8,75.3z"/>
<path class="st1" d="M53.2,0c1,1,2.6,1.4,3.5,2.8c1.7,3,0.9,6.8-2.1,8.6C52,13,48,11.9,46.4,8.9c-1.8-2.9-0.6-6.5,2.5-8.1
	c0.4-0.2,0.7-0.5,1.1-0.7L53.2,0L53.2,0z"/>
<path class="st0" d="M40.8,43c-0.1,3.3-2.9,6-6.2,5.9c-3.3-0.1-5.9-2.9-5.9-6.2c0.1-3.3,3-6.1,6.2-6C38.2,36.9,40.9,39.8,40.8,43"/>
<path class="st0" d="M68.5,49c-3.2,0-6-2.9-6-6.1c0.1-3.3,2.9-6.1,6.1-6.1c3.2,0,6,2.9,6,6.1C74.5,46.3,71.8,49.1,68.5,49"/>
<path class="st0" d="M57.6,60c0,3.4-2.7,6.1-6,6.1s-6-2.8-5.9-6.1c0-3.3,2.7-6.1,6-6.1C54.9,53.8,57.6,56.7,57.6,60"/>
<path class="st1" d="M57.5,25.8c0,3.1-2.8,6-5.9,6c-3,0.1-6-2.9-6-5.9c0-3.7,2.6-6.4,6.1-6.3C54.9,19.5,57.6,22.3,57.5,25.8"/>
<path class="st1" d="M74.3,60c0,3.7-2.4,6.1-6,6.1c-3,0-6-3-5.9-6c0.1-3.2,3-6.2,6-6.2C71.8,53.7,74.3,56.4,74.3,60"/>
<path class="st1" d="M74.3,25.8c0,3.4-2.4,6-5.7,6.1c-3,0.1-6.2-3.1-6.1-6.3c0.1-3.5,2.9-6,6.1-6C72.2,19.5,74.8,22.9,74.3,25.8"/>
<path class="st1" d="M74.3,77.2c0.3,4.2-3.3,6-6,6c-3.2,0-5.8-2.4-5.8-6.2c0-3.2,2.9-6.2,5.9-6C71.1,71.1,74.7,72.8,74.3,77.2"/>
<path class="st1" d="M57.5,43c-0.1,3.4-2.7,6-6,5.9c-3.4,0-5.9-2.7-5.8-6.3c0-3.4,2.7-5.6,6.7-5.6C55.3,37.1,57.6,39.8,57.5,43"/>
<path class="st1" d="M34.9,53.7c2.8,0,6,3.3,5.8,6.2c-0.3,4.1-2.8,6-6.4,6.1c-2.9,0-5.6-2.6-5.5-6.4C29,55.6,32.3,54.1,34.9,53.7"/>
<path class="st1" d="M29,76.9c-0.3-4.2,3.3-5.9,6-6c3-0.1,5.9,2.9,5.8,6c-0.1,3.6-2.7,6.2-5.9,6.1C32.2,83.2,28.5,81.4,29,76.9"/>
<path class="st1" d="M29,25.7c0-3.6,2.4-6.2,5.8-6.1c2.9,0.1,5.8,2.1,6,6.1c0.2,3-3,6.3-6,6.2C32,31.7,28.5,29.5,29,25.7"/>
<path class="st1" d="M45.6,77c0-3.1,2.9-6,5.9-6c3.2,0,6,3,6,6.3c0,3.1-3,6-6,5.9C48.4,83.2,45.6,80.2,45.6,77"/>
<path class="st1" d="M51.5,100c-3.3,0-5.8-2.5-5.8-5.7s2.9-6.1,5.9-6.1c3.1,0,6,3,6,6.1C57.5,97.6,55,100,51.5,100"/>
</svg>
