<?xml version="1.0" encoding="utf-8"?>
<!-- Generator: Adobe Illustrator 24.0.2, SVG Export Plug-In . SVG Version: 6.00 Build 0)  -->
<svg version="1.1" id="Capa_1" xmlns="http://www.w3.org/2000/svg" xmlns:xlink="http://www.w3.org/1999/xlink" x="0px" y="0px"
	 viewBox="0 0 100 74.7" style="enable-background:new 0 0 100 74.7;" xml:space="preserve">
<style type="text/css">
	.st0{fill:#6182B7;}
</style>
<g>
	<path class="st0" d="M28.3,30.4h-3.4L23,40.1h2.7c2.2,0,3.9-0.4,4.9-1.1s1.6-2.2,2-4c0.3-1.7,0.2-3-0.4-3.7
		C31.9,30.9,30.9,30.4,28.3,30.4z"/>
	<path class="st0" d="M74.9,30.4h-3.4l-1.9,9.7h2.7c2.2,0,3.9-0.4,4.9-1.1s1.6-2.2,2-4c0.4-1.7,0.2-3-0.4-3.7
		C78.5,30.9,77.5,30.4,74.9,30.4z"/>
	<path class="st0" d="M50,12.3c-27.6,0-50,11.2-50,25.1c0,13.8,22.4,25,50,25s50-11.2,50-25.1S77.6,12.3,50,12.3z M52.9,46
		c-0.2-0.2-0.2-0.5-0.2-0.7L55,33.2c0.3-1.5,0-2-0.1-2.1c-0.2-0.2-0.7-0.5-2.4-0.5h-4.1l-3,14.9c-0.1,0.3-0.4,0.6-0.8,0.6h-5.9
		c-0.2,0-0.4-0.1-0.6-0.3c-0.2-0.2-0.2-0.5-0.2-0.7l1-5.4c-0.8,1.2-1.6,2.2-2.6,3.1c-1.3,1.3-2.8,2.1-4.3,2.6s-3.4,0.7-5.8,0.7h-4.4
		l-1.3,6.5c-0.1,0.3-0.4,0.6-0.8,0.6h-5.9c-0.2,0-0.4-0.1-0.6-0.3C13,52.7,13,52.4,13,52.2L18.3,25c0.1-0.3,0.4-0.6,0.8-0.6h11.4
		c3.7,0,6.5,1.1,8.2,3c0.9,1,1.5,2.4,1.7,3.9l2.7-13.4c0.1-0.3,0.4-0.6,0.8-0.6h5.9c0.2,0,0.4,0.1,0.6,0.3c0.2,0.2,0.2,0.5,0.2,0.7
		l-1.2,6.2h4.3c3.6,0,6.1,0.6,7.5,1.9c1.5,1.3,2,3.4,1.4,6.3l-2.5,12.7c-0.1,0.4-0.4,0.6-0.5,0.9h-6.1C53.3,46.3,53.1,46.2,52.9,46z
		 M86.9,35.8c-0.3,1.4-0.8,2.8-1.4,3.9c-0.7,1.2-1.6,2.2-2.6,3.2c-1.3,1.3-2.7,2.1-4.3,2.6c-1.5,0.5-3.4,0.7-5.8,0.7h-4.4l-1.3,6.5
		c-0.1,0.3-0.4,0.6-0.8,0.6h-5.9c-0.2,0-0.4-0.1-0.6-0.3c-0.2-0.2-0.2-0.5-0.2-0.7L64.9,25c0.1-0.3,0.4-0.6,0.8-0.6h11.5
		c3.7,0,6.5,1.1,8.2,3C87.2,29.5,87.7,32.2,86.9,35.8z"/>
</g>
</svg>
