<?xml version="1.0" encoding="utf-8"?>
<!-- Generator: Adobe Illustrator 24.0.2, SVG Export Plug-In . SVG Version: 6.00 Build 0)  -->
<svg version="1.1" id="Capa_1" xmlns="http://www.w3.org/2000/svg" xmlns:xlink="http://www.w3.org/1999/xlink" x="0px" y="0px"
	 viewBox="0 0 100 100" style="enable-background:new 0 0 100 100;" xml:space="preserve">
<path d="M90.3,53c-2.4-5.3-5.6-8.2-11.4-10.4c-0.2-0.1-0.4-0.2-0.6-0.2c-0.2-0.1-0.5-0.2-0.8-0.2c-0.2,0-0.4,0-0.7,0.1
	c-0.5,0.2-0.9,0.5-1.2,1c-1.1,2.4-2.5,4.6-4.3,6.6c-1.7,1.8-3.7,3.4-5.9,4.6c-2.3,1.3-4.9,2.1-7.5,2.6c-0.3,0.1-0.7,0.2-0.9,0.1
	c-0.3-0.2-0.6-0.6-0.7-1c-0.1-0.8,0.5-1,1.2-1.2c0.7-0.2,1.4-0.4,2.1-0.6c1.3-0.4,2.6-0.9,3.8-1.6c2.3-1.2,4.4-2.7,6.2-4.6
	c1.4-1.5,2.5-3.2,3.5-5.1c2.3-4.6,2.4-9.6,0.3-13.8c-2.1-4.2-6.2-7.2-11.3-8.2c-1.4-0.3-2.8-0.4-4.2-0.4c-4.2,0-8,1.3-11.5,3.9
	c-2.5,1.9-5,4-7.5,6.1c-2.5,2.2-5.5,4.6-8.9,6.2c-2.7,1.2-5.2,1.8-7.6,1.8c-0.7,0-1.3,0-2-0.1c-4.3-0.6-7.7-4.5-7.8-9.1
	c-0.1-4.4,3-8.2,7.3-8.9c0.5-0.1,0.9-0.1,1.4-0.1c0.7,0,1.3-0.4,1.7-1c0.1-0.1,0.2-0.2,0.3-0.4c1.1-1.8,1.9-5.2-0.5-6.2
	c-1.6-0.7-3.2-0.2-4.8,0.2C9.6,15,3.5,23.2,3.8,32c0.2,6.4,2.9,11.6,8.1,15.5c3,2.3,6.4,4.1,9.6,5.8l1.6,0.9c4.1,2,8.4,4.3,12.4,7.2
	c5.1,3.8,8.3,8.3,9.8,13.7c0.7,2.7,1,7.4,0.7,9.5c-0.1,0.6,0.1,1.2,0.5,1.6c0.4,0.4,0.9,0.7,1.5,0.7h5.5c1.1,0,2.1-0.9,2.2-2
	c0.3-3.7,1.9-6.6,4.9-8.5c2-1.4,4.2-2.1,6.3-2.1c1.9,0,3.9,0.6,5.9,1.7c3.3,1.9,5.6,6.3,5.2,8.6c-0.1,0.6,0.1,1.2,0.5,1.6
	c0.4,0.4,0.9,0.7,1.5,0.7h4.9c0.7,0,1.4-0.3,1.8-0.9l0.1-0.1c0.4-0.6,0.8-1,1.1-1.7C94.2,73.9,95.1,63.4,90.3,53z M45.1,45.6
	c-1.9,0-3.5-1.5-3.5-3.5s1.5-3.5,3.5-3.5s3.5,1.5,3.5,3.5S47,45.6,45.1,45.6z"/>
</svg>
